{
date = "2015-07-03 17:03:13 +0000";
familyName = "Arima Koshi";
fontMaster = (
{
alignmentZones = (
"{500, 12}",
"{0, -16}"
);
ascender = 800;
capHeight = 700;
descender = -200;
guideLines = (
{
locked = 1;
position = "{407, -167}";
},
{
position = "{331, 546}";
},
{
position = "{332, 531}";
}
);
id = "60CFBDE8-BC08-4808-BF41-F011F3E03A54";
userData = {
GSOffsetHorizontal = 15;
GSOffsetMakeStroke = 1;
GSOffsetVertical = 14;
};
weight = Light;
weightValue = 30;
xHeight = 500;
},
{
alignmentZones = (
"{520, 15}",
"{0, -15}"
);
ascender = 800;
capHeight = 700;
descender = -200;
guideLines = (
{
position = "{291, 566}";
},
{
position = "{248, -209}";
},
{
locked = 1;
position = "{323, 207}";
},
{
position = "{257, 548}";
}
);
id = "EBFFFCD3-BAE4-48A5-9442-B72A90AD34A8";
userData = {
GSCornerRadius = 75;
};
weight = Bold;
weightValue = 160;
xHeight = 520;
}
);
glyphs = (
{
glyphname = "a-malayalam";
lastChange = "2015-09-17 15:20:09 +0000";
layers = (
{
layerId = "60CFBDE8-BC08-4808-BF41-F011F3E03A54";
name = Light;
paths = (
{
closed = 1;
nodes = (
"1120 -13 OFFCURVE",
"1187 38 OFFCURVE",
"1187 222 CURVE SMOOTH",
"1187 432 OFFCURVE",
"1100 547 OFFCURVE",
"964 547 CURVE SMOOTH",
"860 547 OFFCURVE",
"783 479 OFFCURVE",
"759 384 CURVE",
"734 479 OFFCURVE",
"661 547 OFFCURVE",
"543 547 CURVE SMOOTH",
"398 547 OFFCURVE",
"271 446 OFFCURVE",
"271 237 CURVE SMOOTH",
"271 88 OFFCURVE",
"336 -12 OFFCURVE",
"454 -12 CURVE SMOOTH",
"552 -12 OFFCURVE",
"596 56 OFFCURVE",
"596 119 CURVE SMOOTH",
"596 184 OFFCURVE",
"549 249 OFFCURVE",
"475 253 CURVE",
"539 268 OFFCURVE",
"579 319 OFFCURVE",
"579 386 CURVE SMOOTH",
"579 499 OFFCURVE",
"466 546 OFFCURVE",
"349 546 CURVE SMOOTH",
"163 546 OFFCURVE",
"38 426 OFFCURVE",
"38 244 CURVE SMOOTH",
"38 95 OFFCURVE",
"122 -12 OFFCURVE",
"202 -12 CURVE SMOOTH",
"234 -12 OFFCURVE",
"239 6 OFFCURVE",
"226 16 CURVE",
"130 16 OFFCURVE",
"71 117 OFFCURVE",
"71 241 CURVE SMOOTH",
"71 414 OFFCURVE",
"187 519 OFFCURVE",
"349 519 CURVE SMOOTH",
"447 519 OFFCURVE",
"546 481 OFFCURVE",
"546 387 CURVE SMOOTH",
"546 323 OFFCURVE",
"500 265 OFFCURVE",
"426 265 CURVE SMOOTH",
"389 265 LINE",
"389 239 LINE",
"426 239 LINE SMOOTH",
"522 239 OFFCURVE",
"562 182 OFFCURVE",
"562 120 CURVE SMOOTH",
"562 50 OFFCURVE",
"511 16 OFFCURVE",
"452 16 CURVE SMOOTH",
"362 16 OFFCURVE",
"304 95 OFFCURVE",
"304 233 CURVE SMOOTH",
"304 433 OFFCURVE",
"425 519 OFFCURVE",
"545 519 CURVE SMOOTH",
"694 519 OFFCURVE",
"742 388 OFFCURVE",
"742 321 CURVE SMOOTH",
"742 4 LINE SMOOTH",
"742 -4 OFFCURVE",
"745 -13 OFFCURVE",
"759 -13 CURVE SMOOTH",
"765 -13 OFFCURVE",
"769 -11 OFFCURVE",
"774 -6 CURVE",
"773 -2 OFFCURVE",
"772 16 OFFCURVE",
"772 45 CURVE SMOOTH",
"772 322 LINE SMOOTH",
"772 403 OFFCURVE",
"832 519 OFFCURVE",
"966 519 CURVE SMOOTH",
"1074 519 OFFCURVE",
"1144 443 OFFCURVE",
"1157 261 CURVE",
"1134 311 OFFCURVE",
"1095 343 OFFCURVE",
"1035 343 CURVE SMOOTH",
"953 343 OFFCURVE",
"896 282 OFFCURVE",
"896 165 CURVE SMOOTH",
"896 42 OFFCURVE",
"958 -13 OFFCURVE",
"1041 -13 CURVE SMOOTH"
);
},
{
closed = 1;
nodes = (
"965 15 OFFCURVE",
"925 68 OFFCURVE",
"925 164 CURVE SMOOTH",
"925 258 OFFCURVE",
"963 315 OFFCURVE",
"1035 315 CURVE SMOOTH",
"1106 315 OFFCURVE",
"1153 260 OFFCURVE",
"1153 166 CURVE SMOOTH",
"1153 75 OFFCURVE",
"1108 15 OFFCURVE",
"1034 15 CURVE SMOOTH"
);
}
);
width = 1285;
},
{
background = {
paths = (
{
closed = 1;
nodes = (
"1012 28 OFFCURVE",
"992 74 OFFCURVE",
"992 153 CURVE SMOOTH",
"992 233 OFFCURVE",
"1013 287 OFFCURVE",
"1054 287 CURVE SMOOTH",
"1097 287 OFFCURVE",
"1111 229 OFFCURVE",
"1111 158 CURVE SMOOTH",
"1111 66 OFFCURVE",
"1088 28 OFFCURVE",
"1052 28 CURVE SMOOTH"
);
},
{
closed = 0;
nodes = (
"1055 -18 LINE SMOOTH",
"1160 -18 OFFCURVE",
"1261 29 OFFCURVE",
"1261 165 CURVE SMOOTH",
"1261 262 OFFCURVE",
"1209 344 OFFCURVE",
"1089 344 CURVE SMOOTH",
"989 344 OFFCURVE",
"935 282 OFFCURVE",
"935 165 CURVE SMOOTH",
"935 127 OFFCURVE",
"943 71 OFFCURVE",
"979 28 CURVE"
);
}
);
};
layerId = "EBFFFCD3-BAE4-48A5-9442-B72A90AD34A8";
name = Bold;
paths = (
{
closed = 1;
nodes = (
"1275 -18 OFFCURVE",
"1403 59 OFFCURVE",
"1403 256 CURVE SMOOTH",
"1403 475 OFFCURVE",
"1245 567 OFFCURVE",
"1103 567 CURVE SMOOTH",
"957 567 OFFCURVE",
"877 472 OFFCURVE",
"857 379 CURVE",
"829 490 OFFCURVE",
"751 567 OFFCURVE",
"588 567 CURVE SMOOTH",
"394 567 OFFCURVE",
"234 459 OFFCURVE",
"234 236 CURVE SMOOTH",
"234 82 OFFCURVE",
"304 -17 OFFCURVE",
"446 -17 CURVE SMOOTH",
"574 -17 OFFCURVE",
"646 33 OFFCURVE",
"646 117 CURVE SMOOTH",
"646 191 OFFCURVE",
"590 256 OFFCURVE",
"509 260 CURVE",
"572 272 OFFCURVE",
"636 314 OFFCURVE",
"636 391 CURVE SMOOTH",
"636 515 OFFCURVE",
"471 566 OFFCURVE",
"337 566 CURVE SMOOTH",
"114 566 OFFCURVE",
"4 426 OFFCURVE",
"4 250 CURVE SMOOTH",
"4 78 OFFCURVE",
"109 -17 OFFCURVE",
"195 -17 CURVE SMOOTH",
"239 -17 OFFCURVE",
"243 8 OFFCURVE",
"227 21 CURVE",
"133 21 OFFCURVE",
"68 117 OFFCURVE",
"68 246 CURVE SMOOTH",
"68 413 OFFCURVE",
"177 518 OFFCURVE",
"321 518 CURVE SMOOTH",
"410 518 OFFCURVE",
"492 478 OFFCURVE",
"492 386 CURVE SMOOTH",
"492 331 OFFCURVE",
"463 283 OFFCURVE",
"420 283 CURVE SMOOTH",
"389 283 LINE",
"389 235 LINE",
"420 235 LINE SMOOTH",
"474 235 OFFCURVE",
"496 182 OFFCURVE",
"496 125 CURVE SMOOTH",
"496 68 OFFCURVE",
"468 31 OFFCURVE",
"412 31 CURVE SMOOTH",
"346 31 OFFCURVE",
"298 107 OFFCURVE",
"298 230 CURVE SMOOTH",
"298 429 OFFCURVE",
"445 518 OFFCURVE",
"573 518 CURVE SMOOTH",
"710 518 OFFCURVE",
"753 417 OFFCURVE",
"753 331 CURVE SMOOTH",
"753 103 LINE SMOOTH",
"753 9 OFFCURVE",
"784 -10 OFFCURVE",
"834 -10 CURVE SMOOTH",
"866 -10 OFFCURVE",
"894 -2 OFFCURVE",
"918 15 CURVE",
"907 45 OFFCURVE",
"899 72 OFFCURVE",
"899 167 CURVE SMOOTH",
"899 295 LINE SMOOTH",
"899 416 OFFCURVE",
"978 498 OFFCURVE",
"1095 498 CURVE SMOOTH",
"1224 498 OFFCURVE",
"1260 399 OFFCURVE",
"1263 292 CURVE",
"1244 335 OFFCURVE",
"1203 364 OFFCURVE",
"1144 364 CURVE SMOOTH",
"1063 364 OFFCURVE",
"993 309 OFFCURVE",
"993 174 CURVE SMOOTH",
"993 32 OFFCURVE",
"1071 -18 OFFCURVE",
"1163 -18 CURVE SMOOTH"
);
},
{
closed = 1;
nodes = (
"1095 32 OFFCURVE",
"1059 84 OFFCURVE",
"1059 172 CURVE SMOOTH",
"1059 257 OFFCURVE",
"1093 307 OFFCURVE",
"1151 307 CURVE SMOOTH",
"1211 307 OFFCURVE",
"1247 255 OFFCURVE",
"1247 168 CURVE SMOOTH",
"1247 83 OFFCURVE",
"1213 32 OFFCURVE",
"1154 32 CURVE SMOOTH"
);
}
);
width = 1419;
},
{
associatedMasterId = "EBFFFCD3-BAE4-48A5-9442-B72A90AD34A8";
background = {
paths = (
{
closed = 1;
nodes = (
"1012 28 OFFCURVE",
"992 74 OFFCURVE",
"992 153 CURVE SMOOTH",
"992 233 OFFCURVE",
"1013 287 OFFCURVE",
"1054 287 CURVE SMOOTH",
"1097 287 OFFCURVE",
"1111 229 OFFCURVE",
"1111 158 CURVE SMOOTH",
"1111 66 OFFCURVE",
"1088 28 OFFCURVE",
"1052 28 CURVE SMOOTH"
);
},
{
closed = 0;
nodes = (
"1055 -18 LINE SMOOTH",
"1160 -18 OFFCURVE",
"1261 29 OFFCURVE",
"1261 165 CURVE SMOOTH",
"1261 262 OFFCURVE",
"1209 344 OFFCURVE",
"1089 344 CURVE SMOOTH",
"989 344 OFFCURVE",
"935 282 OFFCURVE",
"935 165 CURVE SMOOTH",
"935 127 OFFCURVE",
"943 71 OFFCURVE",
"979 28 CURVE"
);
}
);
};
layerId = "DAF24304-6C83-42FD-AC9D-A329B49BC522";
name = "Bold Sep 3 15, 12:11";
paths = (
{
closed = 1;
nodes = (
"1277 -18 OFFCURVE",
"1407 58 OFFCURVE",
"1407 261 CURVE SMOOTH",
"1407 471 OFFCURVE",
"1247 567 OFFCURVE",
"1107 567 CURVE SMOOTH",
"955 567 OFFCURVE",
"878 473 OFFCURVE",
"857 379 CURVE",
"831 484 OFFCURVE",
"755 567 OFFCURVE",
"591 567 CURVE SMOOTH",
"403 567 OFFCURVE",
"254 459 OFFCURVE",
"254 235 CURVE SMOOTH",
"254 82 OFFCURVE",
"323 -17 OFFCURVE",
"470 -17 CURVE SMOOTH",
"579 -17 OFFCURVE",
"646 37 OFFCURVE",
"646 118 CURVE SMOOTH",
"646 191 OFFCURVE",
"590 256 OFFCURVE",
"509 260 CURVE",
"575 273 OFFCURVE",
"636 315 OFFCURVE",
"636 392 CURVE SMOOTH",
"636 515 OFFCURVE",
"483 566 OFFCURVE",
"352 566 CURVE SMOOTH",
"136 566 OFFCURVE",
"24 426 OFFCURVE",
"24 249 CURVE SMOOTH",
"24 78 OFFCURVE",
"129 -17 OFFCURVE",
"215 -17 CURVE SMOOTH",
"259 -17 OFFCURVE",
"263 8 OFFCURVE",
"247 21 CURVE",
"153 21 OFFCURVE",
"88 117 OFFCURVE",
"88 245 CURVE SMOOTH",
"88 413 OFFCURVE",
"199 518 OFFCURVE",
"336 518 CURVE SMOOTH",
"420 518 OFFCURVE",
"492 478 OFFCURVE",
"492 387 CURVE SMOOTH",
"492 330 OFFCURVE",
"463 283 OFFCURVE",
"420 283 CURVE SMOOTH",
"389 283 LINE",
"389 235 LINE",
"420 235 LINE SMOOTH",
"474 235 OFFCURVE",
"496 177 OFFCURVE",
"496 116 CURVE SMOOTH",
"496 56 OFFCURVE",
"475 31 OFFCURVE",
"435 31 CURVE SMOOTH",
"365 31 OFFCURVE",
"318 107 OFFCURVE",
"318 227 CURVE SMOOTH",
"318 432 OFFCURVE",
"454 518 OFFCURVE",
"576 518 CURVE SMOOTH",
"708 518 OFFCURVE",
"753 418 OFFCURVE",
"753 331 CURVE SMOOTH",
"753 103 LINE",
"753 9 OFFCURVE",
"784 -10 OFFCURVE",
"834 -10 CURVE SMOOTH",
"866 -10 OFFCURVE",
"894 -2 OFFCURVE",
"918 15 CURVE",
"907 45 OFFCURVE",
"899 72 OFFCURVE",
"899 167 CURVE SMOOTH",
"899 295 LINE SMOOTH",
"899 416 OFFCURVE",
"977 498 OFFCURVE",
"1098 498 CURVE SMOOTH",
"1225 498 OFFCURVE",
"1256 388 OFFCURVE",
"1256 274 CURVE SMOOTH",
"1256 117 OFFCURVE",
"1227 32 OFFCURVE",
"1155 32 CURVE SMOOTH",
"1099 32 OFFCURVE",
"1059 72 OFFCURVE",
"1059 172 CURVE SMOOTH",
"1059 246 OFFCURVE",
"1080 307 OFFCURVE",
"1151 307 CURVE SMOOTH",
"1231 307 OFFCURVE",
"1256 232 OFFCURVE",
"1247 148 CURVE",
"1273 214 LINE",
"1273 295 OFFCURVE",
"1233 364 OFFCURVE",
"1143 364 CURVE SMOOTH",
"1063 364 OFFCURVE",
"993 309 OFFCURVE",
"993 173 CURVE SMOOTH",
"993 32 OFFCURVE",
"1070 -18 OFFCURVE",
"1165 -18 CURVE SMOOTH"
);
}
);
width = 1419;
},
{
associatedMasterId = "60CFBDE8-BC08-4808-BF41-F011F3E03A54";
layerId = "0FF8A484-6F35-47E1-917E-429639EC687D";
name = "Light Sep 3 15, 12:13";
paths = (
{
closed = 1;
nodes = (
"1160 96 OFFCURVE",
"1110 9 OFFCURVE",
"1033 9 CURVE SMOOTH",
"966 9 OFFCURVE",
"924 59 OFFCURVE",
"924 157 CURVE SMOOTH",
"924 243 OFFCURVE",
"956 310 OFFCURVE",
"1031 310 CURVE SMOOTH",
"1112 310 OFFCURVE",
"1169 223 OFFCURVE",
"1156 141 CURVE",
"1174 205 LINE",
"1154 291 OFFCURVE",
"1108 338 OFFCURVE",
"1034 338 CURVE SMOOTH",
"954 338 OFFCURVE",
"896 277 OFFCURVE",
"896 160 CURVE SMOOTH",
"896 37 OFFCURVE",
"960 -18 OFFCURVE",
"1036 -18 CURVE SMOOTH",
"1119 -18 OFFCURVE",
"1186 47 OFFCURVE",
"1186 231 CURVE SMOOTH",
"1186 445 OFFCURVE",
"1093 543 OFFCURVE",
"965 543 CURVE SMOOTH",
"857 543 OFFCURVE",
"782 474 OFFCURVE",
"759 384 CURVE",
"734 477 OFFCURVE",
"661 543 OFFCURVE",
"543 543 CURVE SMOOTH",
"399 543 OFFCURVE",
"273 444 OFFCURVE",
"273 235 CURVE SMOOTH",
"273 86 OFFCURVE",
"337 -17 OFFCURVE",
"454 -17 CURVE SMOOTH",
"551 -17 OFFCURVE",
"595 54 OFFCURVE",
"595 118 CURVE SMOOTH",
"595 184 OFFCURVE",
"548 249 OFFCURVE",
"475 253 CURVE",
"535 267 OFFCURVE",
"578 317 OFFCURVE",
"578 385 CURVE SMOOTH",
"578 497 OFFCURVE",
"464 542 OFFCURVE",
"349 542 CURVE SMOOTH",
"164 542 OFFCURVE",
"40 425 OFFCURVE",
"40 241 CURVE SMOOTH",
"40 95 OFFCURVE",
"119 -17 OFFCURVE",
"209 -17 CURVE SMOOTH",
"238 -17 OFFCURVE",
"234 9 OFFCURVE",
"226 11 CURVE",
"130 11 OFFCURVE",
"71 115 OFFCURVE",
"71 239 CURVE SMOOTH",
"71 413 OFFCURVE",
"187 516 OFFCURVE",
"350 516 CURVE SMOOTH",
"447 516 OFFCURVE",
"546 479 OFFCURVE",
"546 386 CURVE SMOOTH",
"546 323 OFFCURVE",
"500 265 OFFCURVE",
"426 265 CURVE SMOOTH",
"389 265 LINE",
"389 239 LINE",
"426 239 LINE SMOOTH",
"522 239 OFFCURVE",
"562 183 OFFCURVE",
"562 119 CURVE SMOOTH",
"562 47 OFFCURVE",
"510 11 OFFCURVE",
"451 11 CURVE SMOOTH",
"362 11 OFFCURVE",
"304 93 OFFCURVE",
"304 232 CURVE SMOOTH",
"304 432 OFFCURVE",
"425 516 OFFCURVE",
"545 516 CURVE SMOOTH",
"694 516 OFFCURVE",
"742 387 OFFCURVE",
"742 321 CURVE SMOOTH",
"742 -1 LINE SMOOTH",
"742 -9 OFFCURVE",
"745 -18 OFFCURVE",
"759 -18 CURVE SMOOTH",
"765 -18 OFFCURVE",
"769 -16 OFFCURVE",
"774 -11 CURVE",
"772 -3 OFFCURVE",
"772 9 OFFCURVE",
"772 34 CURVE SMOOTH",
"772 322 LINE SMOOTH",
"772 401 OFFCURVE",
"832 516 OFFCURVE",
"965 516 CURVE SMOOTH",
"1089 516 OFFCURVE",
"1160 419 OFFCURVE",
"1160 197 CURVE SMOOTH"
);
}
);
width = 1285;
},
{
associatedMasterId = "EBFFFCD3-BAE4-48A5-9442-B72A90AD34A8";
background = {
paths = (
{
closed = 1;
nodes = (
"1012 28 OFFCURVE",
"992 74 OFFCURVE",
"992 153 CURVE SMOOTH",
"992 233 OFFCURVE",
"1013 287 OFFCURVE",
"1054 287 CURVE SMOOTH",
"1097 287 OFFCURVE",
"1111 229 OFFCURVE",
"1111 158 CURVE SMOOTH",
"1111 66 OFFCURVE",
"1088 28 OFFCURVE",
"1052 28 CURVE SMOOTH"
);
},
{
closed = 0;
nodes = (
"1055 -18 LINE SMOOTH",
"1160 -18 OFFCURVE",
"1261 29 OFFCURVE",
"1261 165 CURVE SMOOTH",
"1261 262 OFFCURVE",
"1209 344 OFFCURVE",
"1089 344 CURVE SMOOTH",
"989 344 OFFCURVE",
"935 282 OFFCURVE",
"935 165 CURVE SMOOTH",
"935 127 OFFCURVE",
"943 71 OFFCURVE",
"979 28 CURVE"
);
}
);
};
layerId = "E1BA165B-B8AF-43D0-A8FE-A623157E2020";
name = "Bold Sep 17 15, 15:08";
paths = (
{
closed = 1;
nodes = (
"1277 -18 OFFCURVE",
"1407 59 OFFCURVE",
"1407 256 CURVE SMOOTH",
"1407 475 OFFCURVE",
"1247 567 OFFCURVE",
"1103 567 CURVE SMOOTH",
"957 567 OFFCURVE",
"877 472 OFFCURVE",
"857 379 CURVE",
"829 490 OFFCURVE",
"751 567 OFFCURVE",
"588 567 CURVE SMOOTH",
"394 567 OFFCURVE",
"234 459 OFFCURVE",
"234 236 CURVE SMOOTH",
"234 82 OFFCURVE",
"304 -17 OFFCURVE",
"446 -17 CURVE SMOOTH",
"574 -17 OFFCURVE",
"646 33 OFFCURVE",
"646 117 CURVE SMOOTH",
"646 191 OFFCURVE",
"590 256 OFFCURVE",
"509 260 CURVE",
"572 272 OFFCURVE",
"636 314 OFFCURVE",
"636 391 CURVE SMOOTH",
"636 515 OFFCURVE",
"471 566 OFFCURVE",
"337 566 CURVE SMOOTH",
"114 566 OFFCURVE",
"4 426 OFFCURVE",
"4 250 CURVE SMOOTH",
"4 78 OFFCURVE",
"109 -17 OFFCURVE",
"195 -17 CURVE SMOOTH",
"239 -17 OFFCURVE",
"243 8 OFFCURVE",
"227 21 CURVE",
"133 21 OFFCURVE",
"68 117 OFFCURVE",
"68 246 CURVE SMOOTH",
"68 413 OFFCURVE",
"177 518 OFFCURVE",
"321 518 CURVE SMOOTH",
"410 518 OFFCURVE",
"492 478 OFFCURVE",
"492 386 CURVE SMOOTH",
"492 331 OFFCURVE",
"463 283 OFFCURVE",
"420 283 CURVE SMOOTH",
"389 283 LINE",
"389 235 LINE",
"420 235 LINE SMOOTH",
"474 235 OFFCURVE",
"496 182 OFFCURVE",
"496 125 CURVE SMOOTH",
"496 68 OFFCURVE",
"468 31 OFFCURVE",
"412 31 CURVE SMOOTH",
"346 31 OFFCURVE",
"298 107 OFFCURVE",
"298 230 CURVE SMOOTH",
"298 429 OFFCURVE",
"445 518 OFFCURVE",
"573 518 CURVE SMOOTH",
"710 518 OFFCURVE",
"753 417 OFFCURVE",
"753 331 CURVE SMOOTH",
"753 103 LINE SMOOTH",
"753 9 OFFCURVE",
"784 -10 OFFCURVE",
"834 -10 CURVE SMOOTH",
"866 -10 OFFCURVE",
"894 -2 OFFCURVE",
"918 15 CURVE",
"907 45 OFFCURVE",
"899 72 OFFCURVE",
"899 167 CURVE SMOOTH",
"899 295 LINE SMOOTH",
"899 416 OFFCURVE",
"978 498 OFFCURVE",
"1095 498 CURVE SMOOTH",
"1224 498 OFFCURVE",
"1260 399 OFFCURVE",
"1263 292 CURVE",
"1244 335 OFFCURVE",
"1203 364 OFFCURVE",
"1144 364 CURVE SMOOTH",
"1063 364 OFFCURVE",
"993 309 OFFCURVE",
"993 174 CURVE SMOOTH",
"993 32 OFFCURVE",
"1071 -18 OFFCURVE",
"1163 -18 CURVE SMOOTH"
);
},
{
closed = 1;
nodes = (
"1095 32 OFFCURVE",
"1059 84 OFFCURVE",
"1059 172 CURVE SMOOTH",
"1059 257 OFFCURVE",
"1093 307 OFFCURVE",
"1151 307 CURVE SMOOTH",
"1211 307 OFFCURVE",
"1247 255 OFFCURVE",
"1247 168 CURVE SMOOTH",
"1247 83 OFFCURVE",
"1213 32 OFFCURVE",
"1154 32 CURVE SMOOTH"
);
}
);
width = 1419;
}
);
unicode = 0D05;
},
{
glyphname = "aa-malayalam";
lastChange = "2015-09-21 13:24:00 +0000";
layers = (
{
layerId = "60CFBDE8-BC08-4808-BF41-F011F3E03A54";
name = Light;
paths = (
{
closed = 1;
nodes = (
"1050 -154 OFFCURVE",
"1089 -154 CURVE SMOOTH",
"1202 -154 OFFCURVE",
"1337 -88 OFFCURVE",
"1337 92 CURVE SMOOTH",
"1337 254 OFFCURVE",
"1228 338 OFFCURVE",
"1085 338 CURVE SMOOTH",
"964 338 OFFCURVE",
"896 277 OFFCURVE",
"896 156 CURVE SMOOTH",
"896 38 OFFCURVE",
"960 -18 OFFCURVE",
"1037 -18 CURVE SMOOTH",
"1120 -18 OFFCURVE",
"1188 47 OFFCURVE",
"1188 232 CURVE SMOOTH",
"1188 445 OFFCURVE",
"1099 545 OFFCURVE",
"967 545 CURVE SMOOTH",
"856 545 OFFCURVE",
"782 475 OFFCURVE",
"759 384 CURVE",
"734 478 OFFCURVE",
"661 545 OFFCURVE",
"543 545 CURVE SMOOTH",
"398 545 OFFCURVE",
"271 445 OFFCURVE",
"271 235 CURVE SMOOTH",
"271 86 OFFCURVE",
"336 -17 OFFCURVE",
"454 -17 CURVE SMOOTH",
"552 -17 OFFCURVE",
"596 54 OFFCURVE",
"596 118 CURVE SMOOTH",
"596 184 OFFCURVE",
"549 249 OFFCURVE",
"475 253 CURVE",
"536 267 OFFCURVE",
"579 317 OFFCURVE",
"579 386 CURVE SMOOTH",
"579 498 OFFCURVE",
"465 544 OFFCURVE",
"349 544 CURVE SMOOTH",
"163 544 OFFCURVE",
"38 425 OFFCURVE",
"38 242 CURVE SMOOTH",
"38 94 OFFCURVE",
"121 -17 OFFCURVE",
"202 -17 CURVE SMOOTH",
"234 -17 OFFCURVE",
"239 1 OFFCURVE",
"226 11 CURVE",
"130 11 OFFCURVE",
"71 115 OFFCURVE",
"71 239 CURVE SMOOTH",
"71 413 OFFCURVE",
"187 517 OFFCURVE",
"349 517 CURVE SMOOTH",
"447 517 OFFCURVE",
"546 479 OFFCURVE",
"546 386 CURVE SMOOTH",
"546 323 OFFCURVE",
"500 265 OFFCURVE",
"426 265 CURVE SMOOTH",
"389 265 LINE",
"389 239 LINE",
"426 239 LINE SMOOTH",
"522 239 OFFCURVE",
"562 183 OFFCURVE",
"562 119 CURVE SMOOTH",
"562 47 OFFCURVE",
"510 11 OFFCURVE",
"451 11 CURVE SMOOTH",
"362 11 OFFCURVE",
"304 93 OFFCURVE",
"304 232 CURVE SMOOTH",
"304 432 OFFCURVE",
"425 517 OFFCURVE",
"545 517 CURVE SMOOTH",
"694 517 OFFCURVE",
"742 388 OFFCURVE",
"742 321 CURVE SMOOTH",
"742 -1 LINE SMOOTH",
"742 -9 OFFCURVE",
"745 -18 OFFCURVE",
"759 -18 CURVE SMOOTH",
"765 -18 OFFCURVE",
"769 -16 OFFCURVE",
"774 -11 CURVE",
"773 -7 OFFCURVE",
"772 11 OFFCURVE",
"772 40 CURVE SMOOTH",
"772 322 LINE SMOOTH",
"772 402 OFFCURVE",
"830 517 OFFCURVE",
"968 517 CURVE SMOOTH",
"1099 517 OFFCURVE",
"1155 412 OFFCURVE",
"1155 239 CURVE SMOOTH",
"1155 93 OFFCURVE",
"1115 9 OFFCURVE",
"1032 9 CURVE SMOOTH",
"965 9 OFFCURVE",
"924 64 OFFCURVE",
"924 156 CURVE SMOOTH",
"924 253 OFFCURVE",
"970 310 OFFCURVE",
"1087 310 CURVE SMOOTH",
"1232 310 OFFCURVE",
"1307 222 OFFCURVE",
"1307 93 CURVE SMOOTH",
"1307 -62 OFFCURVE",
"1198 -127 OFFCURVE",
"1083 -127 CURVE SMOOTH",
"1051 -127 OFFCURVE",
"1026 -122 OFFCURVE",
"1002 -115 CURVE",
"995 -118 OFFCURVE",
"992 -123 OFFCURVE",
"992 -128 CURVE SMOOTH",
"992 -146 OFFCURVE"
);
}
);
width = 1387;
},
{
layerId = "EBFFFCD3-BAE4-48A5-9442-B72A90AD34A8";
name = Bold;
paths = (
{
closed = 1;
nodes = (
"1290 -205 OFFCURVE",
"1346 -205 CURVE SMOOTH",
"1537 -205 OFFCURVE",
"1674 -99 OFFCURVE",
"1674 82 CURVE SMOOTH",
"1674 293 OFFCURVE",
"1470 364 OFFCURVE",
"1309 364 CURVE SMOOTH",
"1154 364 OFFCURVE",
"1039 300 OFFCURVE",
"1039 148 CURVE SMOOTH",
"1039 23 OFFCURVE",
"1117 -18 OFFCURVE",
"1205 -18 CURVE SMOOTH",
"1327 -18 OFFCURVE",
"1457 60 OFFCURVE",
"1457 265 CURVE SMOOTH",
"1457 476 OFFCURVE",
"1320 567 OFFCURVE",
"1162 567 CURVE SMOOTH",
"995 567 OFFCURVE",
"922 466 OFFCURVE",
"903 379 CURVE",
"875 489 OFFCURVE",
"799 567 OFFCURVE",
"633 567 CURVE SMOOTH",
"439 567 OFFCURVE",
"280 461 OFFCURVE",
"280 231 CURVE SMOOTH",
"280 82 OFFCURVE",
"346 -17 OFFCURVE",
"503 -17 CURVE SMOOTH",
"615 -17 OFFCURVE",
"692 33 OFFCURVE",
"692 129 CURVE SMOOTH",
"692 191 OFFCURVE",
"651 256 OFFCURVE",
"555 260 CURVE",
"627 274 OFFCURVE",
"682 314 OFFCURVE",
"682 391 CURVE SMOOTH",
"682 515 OFFCURVE",
"517 566 OFFCURVE",
"383 566 CURVE SMOOTH",
"160 566 OFFCURVE",
"50 426 OFFCURVE",
"50 250 CURVE SMOOTH",
"50 78 OFFCURVE",
"155 -17 OFFCURVE",
"241 -17 CURVE SMOOTH",
"285 -17 OFFCURVE",
"289 8 OFFCURVE",
"273 21 CURVE",
"179 21 OFFCURVE",
"114 117 OFFCURVE",
"114 246 CURVE SMOOTH",
"114 413 OFFCURVE",
"223 518 OFFCURVE",
"367 518 CURVE SMOOTH",
"456 518 OFFCURVE",
"538 478 OFFCURVE",
"538 386 CURVE SMOOTH",
"538 331 OFFCURVE",
"509 283 OFFCURVE",
"466 283 CURVE SMOOTH",
"435 283 LINE",
"435 235 LINE",
"466 235 LINE SMOOTH",
"520 235 OFFCURVE",
"542 177 OFFCURVE",
"542 125 CURVE SMOOTH",
"542 65 OFFCURVE",
"513 31 OFFCURVE",
"463 31 CURVE SMOOTH",
"384 31 OFFCURVE",
"344 117 OFFCURVE",
"344 226 CURVE SMOOTH",
"344 429 OFFCURVE",
"481 521 OFFCURVE",
"619 518 CURVE SMOOTH",
"758 515 OFFCURVE",
"799 416 OFFCURVE",
"799 331 CURVE SMOOTH",
"799 103 LINE SMOOTH",
"799 9 OFFCURVE",
"830 -10 OFFCURVE",
"880 -10 CURVE SMOOTH",
"912 -10 OFFCURVE",
"940 -2 OFFCURVE",
"964 15 CURVE",
"953 45 OFFCURVE",
"945 72 OFFCURVE",
"945 167 CURVE SMOOTH",
"945 295 LINE SMOOTH",
"945 416 OFFCURVE",
"1023 498 OFFCURVE",
"1144 498 CURVE SMOOTH",
"1263 498 OFFCURVE",
"1303 419 OFFCURVE",
"1303 256 CURVE SMOOTH",
"1303 98 OFFCURVE",
"1265 32 OFFCURVE",
"1185 32 CURVE SMOOTH",
"1141 32 OFFCURVE",
"1105 72 OFFCURVE",
"1105 148 CURVE SMOOTH",
"1105 244 OFFCURVE",
"1163 304 OFFCURVE",
"1294 304 CURVE SMOOTH",
"1501 304 OFFCURVE",
"1524 153 OFFCURVE",
"1524 66 CURVE SMOOTH",
"1524 -29 OFFCURVE",
"1474 -133 OFFCURVE",
"1269 -133 CURVE SMOOTH",
"1241 -133 OFFCURVE",
"1200 -131 OFFCURVE",
"1163 -121 CURVE",
"1154 -129 OFFCURVE",
"1149 -137 OFFCURVE",
"1149 -149 CURVE SMOOTH",
"1149 -188 OFFCURVE"
);
}
);
width = 1724;
},
{
associatedMasterId = "60CFBDE8-BC08-4808-BF41-F011F3E03A54";
layerId = "10B7A986-11CD-4711-98CF-CC0D5EA0C2CD";
name = "Light Sep 17 15, 14:42";
paths = (
{
closed = 1;
nodes = (
"1198 -183 OFFCURVE",
"1337 -113 OFFCURVE",
"1337 84 CURVE SMOOTH",
"1337 258 OFFCURVE",
"1228 338 OFFCURVE",
"1087 338 CURVE SMOOTH",
"963 338 OFFCURVE",
"896 277 OFFCURVE",
"896 156 CURVE SMOOTH",
"896 38 OFFCURVE",
"960 -18 OFFCURVE",
"1037 -18 CURVE SMOOTH",
"1120 -18 OFFCURVE",
"1188 47 OFFCURVE",
"1188 232 CURVE SMOOTH",
"1188 445 OFFCURVE",
"1099 545 OFFCURVE",
"967 545 CURVE SMOOTH",
"856 545 OFFCURVE",
"782 475 OFFCURVE",
"759 384 CURVE",
"734 478 OFFCURVE",
"661 545 OFFCURVE",
"543 545 CURVE SMOOTH",
"398 545 OFFCURVE",
"271 445 OFFCURVE",
"271 235 CURVE SMOOTH",
"271 86 OFFCURVE",
"336 -17 OFFCURVE",
"454 -17 CURVE SMOOTH",
"552 -17 OFFCURVE",
"596 54 OFFCURVE",
"596 118 CURVE SMOOTH",
"596 184 OFFCURVE",
"549 249 OFFCURVE",
"475 253 CURVE",
"536 267 OFFCURVE",
"579 317 OFFCURVE",
"579 385 CURVE SMOOTH",
"579 498 OFFCURVE",
"465 544 OFFCURVE",
"349 544 CURVE SMOOTH",
"163 544 OFFCURVE",
"38 425 OFFCURVE",
"38 242 CURVE SMOOTH",
"38 94 OFFCURVE",
"121 -17 OFFCURVE",
"202 -17 CURVE SMOOTH",
"236 -17 OFFCURVE",
"238 2 OFFCURVE",
"226 11 CURVE",
"130 11 OFFCURVE",
"71 115 OFFCURVE",
"71 239 CURVE SMOOTH",
"71 413 OFFCURVE",
"187 517 OFFCURVE",
"350 517 CURVE SMOOTH",
"447 517 OFFCURVE",
"546 479 OFFCURVE",
"546 386 CURVE SMOOTH",
"546 323 OFFCURVE",
"500 265 OFFCURVE",
"426 265 CURVE SMOOTH",
"389 265 LINE",
"389 239 LINE",
"426 239 LINE SMOOTH",
"522 239 OFFCURVE",
"562 183 OFFCURVE",
"562 119 CURVE SMOOTH",
"562 47 OFFCURVE",
"510 11 OFFCURVE",
"451 11 CURVE SMOOTH",
"362 11 OFFCURVE",
"304 93 OFFCURVE",
"304 232 CURVE SMOOTH",
"304 432 OFFCURVE",
"425 517 OFFCURVE",
"545 517 CURVE SMOOTH",
"694 517 OFFCURVE",
"742 388 OFFCURVE",
"742 321 CURVE SMOOTH",
"742 -1 LINE SMOOTH",
"742 -9 OFFCURVE",
"745 -18 OFFCURVE",
"759 -18 CURVE SMOOTH",
"765 -18 OFFCURVE",
"769 -16 OFFCURVE",
"774 -11 CURVE",
"773 -7 OFFCURVE",
"772 11 OFFCURVE",
"772 40 CURVE SMOOTH",
"772 322 LINE SMOOTH",
"772 402 OFFCURVE",
"830 517 OFFCURVE",
"968 517 CURVE SMOOTH",
"1099 517 OFFCURVE",
"1155 412 OFFCURVE",
"1155 239 CURVE SMOOTH",
"1155 93 OFFCURVE",
"1115 9 OFFCURVE",
"1032 9 CURVE SMOOTH",
"965 9 OFFCURVE",
"924 64 OFFCURVE",
"924 156 CURVE SMOOTH",
"924 253 OFFCURVE",
"970 310 OFFCURVE",
"1088 310 CURVE SMOOTH",
"1230 310 OFFCURVE",
"1304 228 OFFCURVE",
"1304 89 CURVE SMOOTH",
"1304 -60 OFFCURVE",
"1220 -156 OFFCURVE",
"1047 -156 CURVE",
"1026 -177 OFFCURVE",
"1040 -183 OFFCURVE",
"1076 -183 CURVE SMOOTH"
);
}
);
width = 1387;
},
{
associatedMasterId = "EBFFFCD3-BAE4-48A5-9442-B72A90AD34A8";
layerId = "4578AEBB-9244-4740-995C-4BF7C4B79F7A";
name = "Bold Sep 17 15, 14:43";
paths = (
{
closed = 1;
nodes = (
"1394 -255 OFFCURVE",
"1678 -183 OFFCURVE",
"1678 67 CURVE SMOOTH",
"1678 290 OFFCURVE",
"1458 364 OFFCURVE",
"1260 364 CURVE SMOOTH",
"1142 364 OFFCURVE",
"1039 300 OFFCURVE",
"1039 144 CURVE SMOOTH",
"1039 24 OFFCURVE",
"1117 -18 OFFCURVE",
"1209 -18 CURVE SMOOTH",
"1325 -18 OFFCURVE",
"1457 59 OFFCURVE",
"1457 256 CURVE SMOOTH",
"1457 475 OFFCURVE",
"1295 567 OFFCURVE",
"1149 567 CURVE SMOOTH",
"1003 567 OFFCURVE",
"923 472 OFFCURVE",
"903 379 CURVE",
"875 490 OFFCURVE",
"797 567 OFFCURVE",
"634 567 CURVE SMOOTH",
"440 567 OFFCURVE",
"280 459 OFFCURVE",
"280 236 CURVE SMOOTH",
"280 82 OFFCURVE",
"350 -17 OFFCURVE",
"492 -17 CURVE SMOOTH",
"620 -17 OFFCURVE",
"692 33 OFFCURVE",
"692 117 CURVE SMOOTH",
"692 191 OFFCURVE",
"636 256 OFFCURVE",
"555 260 CURVE",
"618 272 OFFCURVE",
"682 314 OFFCURVE",
"682 391 CURVE SMOOTH",
"682 515 OFFCURVE",
"517 566 OFFCURVE",
"383 566 CURVE SMOOTH",
"160 566 OFFCURVE",
"50 426 OFFCURVE",
"50 250 CURVE SMOOTH",
"50 78 OFFCURVE",
"155 -17 OFFCURVE",
"241 -17 CURVE SMOOTH",
"285 -17 OFFCURVE",
"289 8 OFFCURVE",
"273 21 CURVE",
"179 21 OFFCURVE",
"114 117 OFFCURVE",
"114 246 CURVE SMOOTH",
"114 413 OFFCURVE",
"223 518 OFFCURVE",
"367 518 CURVE SMOOTH",
"456 518 OFFCURVE",
"538 478 OFFCURVE",
"538 386 CURVE SMOOTH",
"538 331 OFFCURVE",
"509 283 OFFCURVE",
"466 283 CURVE SMOOTH",
"435 283 LINE",
"435 235 LINE",
"466 235 LINE SMOOTH",
"520 235 OFFCURVE",
"542 179 OFFCURVE",
"542 120 CURVE SMOOTH",
"542 66 OFFCURVE",
"514 31 OFFCURVE",
"458 31 CURVE SMOOTH",
"392 31 OFFCURVE",
"344 107 OFFCURVE",
"344 230 CURVE SMOOTH",
"344 429 OFFCURVE",
"491 518 OFFCURVE",
"619 518 CURVE SMOOTH",
"756 518 OFFCURVE",
"799 417 OFFCURVE",
"799 331 CURVE SMOOTH",
"799 103 LINE SMOOTH",
"799 9 OFFCURVE",
"830 -10 OFFCURVE",
"880 -10 CURVE SMOOTH",
"912 -10 OFFCURVE",
"940 -2 OFFCURVE",
"964 15 CURVE",
"953 45 OFFCURVE",
"945 72 OFFCURVE",
"945 167 CURVE SMOOTH",
"945 295 LINE SMOOTH",
"945 416 OFFCURVE",
"1024 498 OFFCURVE",
"1141 498 CURVE SMOOTH",
"1265 498 OFFCURVE",
"1303 420 OFFCURVE",
"1303 247 CURVE SMOOTH",
"1303 106 OFFCURVE",
"1266 32 OFFCURVE",
"1200 32 CURVE SMOOTH",
"1141 32 OFFCURVE",
"1105 73 OFFCURVE",
"1105 142 CURVE SMOOTH",
"1105 244 OFFCURVE",
"1159 304 OFFCURVE",
"1252 304 CURVE SMOOTH",
"1506 304 OFFCURVE",
"1524 154 OFFCURVE",
"1524 74 CURVE SMOOTH",
"1524 0 OFFCURVE",
"1459 -181 OFFCURVE",
"1163 -121 CURVE",
"1142 -138 OFFCURVE",
"1156 -165 OFFCURVE",
"1172 -171 CURVE SMOOTH"
);
}
);
width = 1724;
},
{
associatedMasterId = "60CFBDE8-BC08-4808-BF41-F011F3E03A54";
layerId = "44726861-273A-4C40-92C3-B50269A10C03";
name = "Light Sep 17 15, 14:44";
paths = (
{
closed = 1;
nodes = (
"1198 -183 OFFCURVE",
"1337 -113 OFFCURVE",
"1337 84 CURVE SMOOTH",
"1337 258 OFFCURVE",
"1228 338 OFFCURVE",
"1087 338 CURVE SMOOTH",
"963 338 OFFCURVE",
"896 277 OFFCURVE",
"896 156 CURVE SMOOTH",
"896 38 OFFCURVE",
"960 -18 OFFCURVE",
"1037 -18 CURVE SMOOTH",
"1120 -18 OFFCURVE",
"1188 47 OFFCURVE",
"1188 232 CURVE SMOOTH",
"1188 445 OFFCURVE",
"1099 545 OFFCURVE",
"967 545 CURVE SMOOTH",
"856 545 OFFCURVE",
"782 475 OFFCURVE",
"759 384 CURVE",
"734 478 OFFCURVE",
"661 545 OFFCURVE",
"543 545 CURVE SMOOTH",
"398 545 OFFCURVE",
"271 445 OFFCURVE",
"271 235 CURVE SMOOTH",
"271 86 OFFCURVE",
"336 -17 OFFCURVE",
"454 -17 CURVE SMOOTH",
"552 -17 OFFCURVE",
"596 54 OFFCURVE",
"596 118 CURVE SMOOTH",
"596 184 OFFCURVE",
"549 249 OFFCURVE",
"475 253 CURVE",
"536 267 OFFCURVE",
"579 317 OFFCURVE",
"579 385 CURVE SMOOTH",
"579 498 OFFCURVE",
"465 544 OFFCURVE",
"349 544 CURVE SMOOTH",
"163 544 OFFCURVE",
"38 425 OFFCURVE",
"38 242 CURVE SMOOTH",
"38 94 OFFCURVE",
"121 -17 OFFCURVE",
"202 -17 CURVE SMOOTH",
"236 -17 OFFCURVE",
"238 2 OFFCURVE",
"226 11 CURVE",
"130 11 OFFCURVE",
"71 115 OFFCURVE",
"71 239 CURVE SMOOTH",
"71 413 OFFCURVE",
"187 517 OFFCURVE",
"350 517 CURVE SMOOTH",
"447 517 OFFCURVE",
"546 479 OFFCURVE",
"546 386 CURVE SMOOTH",
"546 323 OFFCURVE",
"500 265 OFFCURVE",
"426 265 CURVE SMOOTH",
"389 265 LINE",
"389 239 LINE",
"426 239 LINE SMOOTH",
"522 239 OFFCURVE",
"562 183 OFFCURVE",
"562 119 CURVE SMOOTH",
"562 47 OFFCURVE",
"510 11 OFFCURVE",
"451 11 CURVE SMOOTH",
"362 11 OFFCURVE",
"304 93 OFFCURVE",
"304 232 CURVE SMOOTH",
"304 432 OFFCURVE",
"425 517 OFFCURVE",
"545 517 CURVE SMOOTH",
"694 517 OFFCURVE",
"742 388 OFFCURVE",
"742 321 CURVE SMOOTH",
"742 -1 LINE SMOOTH",
"742 -9 OFFCURVE",
"745 -18 OFFCURVE",
"759 -18 CURVE SMOOTH",
"765 -18 OFFCURVE",
"769 -16 OFFCURVE",
"774 -11 CURVE",
"773 -7 OFFCURVE",
"772 11 OFFCURVE",
"772 40 CURVE SMOOTH",
"772 322 LINE SMOOTH",
"772 402 OFFCURVE",
"830 517 OFFCURVE",
"968 517 CURVE SMOOTH",
"1099 517 OFFCURVE",
"1155 412 OFFCURVE",
"1155 239 CURVE SMOOTH",
"1155 93 OFFCURVE",
"1115 9 OFFCURVE",
"1032 9 CURVE SMOOTH",
"965 9 OFFCURVE",
"924 64 OFFCURVE",
"924 156 CURVE SMOOTH",
"924 253 OFFCURVE",
"970 310 OFFCURVE",
"1088 310 CURVE SMOOTH",
"1230 310 OFFCURVE",
"1304 228 OFFCURVE",
"1304 80 CURVE SMOOTH",
"1304 -60 OFFCURVE",
"1222 -157 OFFCURVE",
"1049 -157 CURVE",
"1047 -160 OFFCURVE",
"1045 -164 OFFCURVE",
"1045 -168 CURVE SMOOTH",
"1045 -176 OFFCURVE",
"1051 -183 OFFCURVE",
"1076 -183 CURVE SMOOTH"
);
}
);
width = 1387;
},
{
associatedMasterId = "EBFFFCD3-BAE4-48A5-9442-B72A90AD34A8";
layerId = "2AAE7A60-0F4D-4E89-8AC7-38F7AA38C2D0";
name = "Bold Sep 17 15, 15:08";
paths = (
{
closed = 1;
nodes = (
"1290 -205 OFFCURVE",
"1346 -205 CURVE SMOOTH",
"1537 -205 OFFCURVE",
"1674 -99 OFFCURVE",
"1674 91 CURVE SMOOTH",
"1674 293 OFFCURVE",
"1470 364 OFFCURVE",
"1309 364 CURVE SMOOTH",
"1154 364 OFFCURVE",
"1039 300 OFFCURVE",
"1039 148 CURVE SMOOTH",
"1039 23 OFFCURVE",
"1117 -18 OFFCURVE",
"1205 -18 CURVE SMOOTH",
"1327 -18 OFFCURVE",
"1457 60 OFFCURVE",
"1457 265 CURVE SMOOTH",
"1457 476 OFFCURVE",
"1320 567 OFFCURVE",
"1162 567 CURVE SMOOTH",
"995 567 OFFCURVE",
"922 466 OFFCURVE",
"903 379 CURVE",
"875 489 OFFCURVE",
"799 567 OFFCURVE",
"633 567 CURVE SMOOTH",
"439 567 OFFCURVE",
"280 461 OFFCURVE",
"280 231 CURVE SMOOTH",
"280 82 OFFCURVE",
"346 -17 OFFCURVE",
"503 -17 CURVE SMOOTH",
"615 -17 OFFCURVE",
"692 33 OFFCURVE",
"692 118 CURVE SMOOTH",
"692 191 OFFCURVE",
"636 256 OFFCURVE",
"555 260 CURVE",
"618 272 OFFCURVE",
"682 314 OFFCURVE",
"682 391 CURVE SMOOTH",
"682 515 OFFCURVE",
"517 566 OFFCURVE",
"383 566 CURVE SMOOTH",
"160 566 OFFCURVE",
"50 426 OFFCURVE",
"50 250 CURVE SMOOTH",
"50 78 OFFCURVE",
"155 -17 OFFCURVE",
"241 -17 CURVE SMOOTH",
"285 -17 OFFCURVE",
"289 8 OFFCURVE",
"273 21 CURVE",
"179 21 OFFCURVE",
"114 117 OFFCURVE",
"114 246 CURVE SMOOTH",
"114 413 OFFCURVE",
"223 518 OFFCURVE",
"367 518 CURVE SMOOTH",
"456 518 OFFCURVE",
"538 478 OFFCURVE",
"538 386 CURVE SMOOTH",
"538 331 OFFCURVE",
"509 283 OFFCURVE",
"466 283 CURVE SMOOTH",
"435 283 LINE",
"435 235 LINE",
"466 235 LINE SMOOTH",
"520 235 OFFCURVE",
"542 177 OFFCURVE",
"542 125 CURVE SMOOTH",
"542 65 OFFCURVE",
"513 31 OFFCURVE",
"463 31 CURVE SMOOTH",
"384 31 OFFCURVE",
"344 117 OFFCURVE",
"344 226 CURVE SMOOTH",
"344 429 OFFCURVE",
"481 521 OFFCURVE",
"619 518 CURVE SMOOTH",
"758 515 OFFCURVE",
"799 416 OFFCURVE",
"799 331 CURVE SMOOTH",
"799 103 LINE SMOOTH",
"799 9 OFFCURVE",
"830 -10 OFFCURVE",
"880 -10 CURVE SMOOTH",
"912 -10 OFFCURVE",
"940 -2 OFFCURVE",
"964 15 CURVE",
"953 45 OFFCURVE",
"945 72 OFFCURVE",
"945 167 CURVE SMOOTH",
"945 295 LINE SMOOTH",
"945 416 OFFCURVE",
"1023 498 OFFCURVE",
"1144 498 CURVE SMOOTH",
"1263 498 OFFCURVE",
"1303 419 OFFCURVE",
"1303 256 CURVE SMOOTH",
"1303 98 OFFCURVE",
"1265 32 OFFCURVE",
"1195 32 CURVE SMOOTH",
"1141 32 OFFCURVE",
"1105 72 OFFCURVE",
"1105 148 CURVE SMOOTH",
"1105 244 OFFCURVE",
"1163 304 OFFCURVE",
"1294 304 CURVE SMOOTH",
"1501 304 OFFCURVE",
"1524 153 OFFCURVE",
"1524 79 CURVE SMOOTH",
"1524 -29 OFFCURVE",
"1474 -133 OFFCURVE",
"1269 -133 CURVE SMOOTH",
"1241 -133 OFFCURVE",
"1200 -131 OFFCURVE",
"1163 -121 CURVE",
"1154 -129 OFFCURVE",
"1149 -137 OFFCURVE",
"1149 -149 CURVE SMOOTH",
"1149 -188 OFFCURVE"
);
}
);
width = 1724;
}
);
unicode = 0D06;
},
{
glyphname = "i-malayalam";
lastChange = "2015-09-17 14:09:40 +0000";
layers = (
{
layerId = "60CFBDE8-BC08-4808-BF41-F011F3E03A54";
name = Light;
paths = (
{
closed = 1;
nodes = (
"762 -168 LINE",
"762 -138 LINE",
"189 -138 LINE SMOOTH",
"119 -138 OFFCURVE",
"77 -99 OFFCURVE",
"77 -37 CURVE SMOOTH",
"77 26 OFFCURVE",
"119 70 OFFCURVE",
"189 70 CURVE SMOOTH",
"458 70 LINE SMOOTH",
"633 70 OFFCURVE",
"760 164 OFFCURVE",
"760 342 CURVE SMOOTH",
"760 471 OFFCURVE",
"693 545 OFFCURVE",
"584 545 CURVE SMOOTH",
"495 545 OFFCURVE",
"447 495 OFFCURVE",
"429 435 CURVE",
"403 512 OFFCURVE",
"324 545 OFFCURVE",
"249 545 CURVE SMOOTH",
"122 545 OFFCURVE",
"45 451 OFFCURVE",
"45 337 CURVE SMOOTH",
"45 262 OFFCURVE",
"78 192 OFFCURVE",
"163 192 CURVE SMOOTH",
"234 192 OFFCURVE",
"286 242 OFFCURVE",
"286 320 CURVE SMOOTH",
"286 396 OFFCURVE",
"238 448 OFFCURVE",
"168 448 CURVE SMOOTH",
"115 448 OFFCURVE",
"92 418 OFFCURVE",
"76 393 CURVE",
"96 460 OFFCURVE",
"150 518 OFFCURVE",
"246 518 CURVE SMOOTH",
"331 518 OFFCURVE",
"412 472 OFFCURVE",
"412 374 CURVE SMOOTH",
"412 204 LINE",
"441 204 LINE",
"441 365 LINE SMOOTH",
"441 463 OFFCURVE",
"499 518 OFFCURVE",
"581 518 CURVE SMOOTH",
"652 518 OFFCURVE",
"729 476 OFFCURVE",
"729 343 CURVE SMOOTH",
"729 191 OFFCURVE",
"629 98 OFFCURVE",
"455 98 CURVE SMOOTH",
"189 98 LINE SMOOTH",
"100 98 OFFCURVE",
"47 44 OFFCURVE",
"47 -37 CURVE SMOOTH",
"47 -117 OFFCURVE",
"100 -168 OFFCURVE",
"189 -168 CURVE SMOOTH"
);
},
{
closed = 1;
nodes = (
"115 219 OFFCURVE",
"75 253 OFFCURVE",
"75 318 CURVE SMOOTH",
"75 376 OFFCURVE",
"108 421 OFFCURVE",
"166 421 CURVE SMOOTH",
"220 421 OFFCURVE",
"256 382 OFFCURVE",
"256 321 CURVE SMOOTH",
"256 258 OFFCURVE",
"218 219 OFFCURVE",
"165 219 CURVE SMOOTH"
);
}
);
width = 805;
},
{
layerId = "EBFFFCD3-BAE4-48A5-9442-B72A90AD34A8";
name = Bold;
paths = (
{
closed = 1;
nodes = (
"875 -209 LINE",
"875 -96 LINE",
"247 -96 LINE SMOOTH",
"169 -96 OFFCURVE",
"127 -76 OFFCURVE",
"127 -27 CURVE SMOOTH",
"127 14 OFFCURVE",
"157 41 OFFCURVE",
"223 41 CURVE SMOOTH",
"422 41 LINE SMOOTH",
"687 41 OFFCURVE",
"902 106 OFFCURVE",
"902 350 CURVE SMOOTH",
"902 465 OFFCURVE",
"849 566 OFFCURVE",
"705 566 CURVE SMOOTH",
"597 566 OFFCURVE",
"541 514 OFFCURVE",
"516 409 CURVE",
"501 504 OFFCURVE",
"402 566 OFFCURVE",
"282 566 CURVE SMOOTH",
"118 566 OFFCURVE",
"43 466 OFFCURVE",
"43 346 CURVE SMOOTH",
"43 267 OFFCURVE",
"76 192 OFFCURVE",
"180 192 CURVE SMOOTH",
"274 192 OFFCURVE",
"331 249 OFFCURVE",
"331 336 CURVE SMOOTH",
"331 418 OFFCURVE",
"281 474 OFFCURVE",
"192 474 CURVE SMOOTH",
"176 474 OFFCURVE",
"161 472 OFFCURVE",
"143 464 CURVE",
"168 499 OFFCURVE",
"219 504 OFFCURVE",
"243 504 CURVE SMOOTH",
"346 504 OFFCURVE",
"409 428 OFFCURVE",
"409 324 CURVE SMOOTH",
"409 207 LINE",
"559 207 LINE",
"559 330 LINE SMOOTH",
"559 404 OFFCURVE",
"576 499 OFFCURVE",
"671 499 CURVE SMOOTH",
"724 499 OFFCURVE",
"752 454 OFFCURVE",
"752 363 CURVE SMOOTH",
"752 221 OFFCURVE",
"670 99 OFFCURVE",
"422 99 CURVE SMOOTH",
"238 99 LINE SMOOTH",
"124 99 OFFCURVE",
"57 50 OFFCURVE",
"57 -52 CURVE SMOOTH",
"57 -151 OFFCURVE",
"120 -209 OFFCURVE",
"248 -209 CURVE SMOOTH"
);
},
{
closed = 1;
nodes = (
"107 240 OFFCURVE",
"96 286 OFFCURVE",
"96 332 CURVE SMOOTH",
"96 391 OFFCURVE",
"114 435 OFFCURVE",
"149 435 CURVE SMOOTH",
"190 435 OFFCURVE",
"200 376 OFFCURVE",
"200 334 CURVE SMOOTH",
"200 300 OFFCURVE",
"194 240 OFFCURVE",
"147 240 CURVE SMOOTH"
);
}
);
width = 952;
},
{
associatedMasterId = "EBFFFCD3-BAE4-48A5-9442-B72A90AD34A8";
layerId = "312D6342-F346-4F77-835F-26B578AB380D";
name = "Bold Sep 17 15, 15:09";
paths = (
{
closed = 1;
nodes = (
"875 -209 LINE",
"875 -96 LINE",
"247 -96 LINE SMOOTH",
"169 -96 OFFCURVE",
"127 -76 OFFCURVE",
"127 -27 CURVE SMOOTH",
"127 14 OFFCURVE",
"157 41 OFFCURVE",
"223 41 CURVE SMOOTH",
"422 41 LINE SMOOTH",
"690 41 OFFCURVE",
"907 106 OFFCURVE",
"907 350 CURVE SMOOTH",
"907 465 OFFCURVE",
"853 566 OFFCURVE",
"705 566 CURVE SMOOTH",
"597 566 OFFCURVE",
"541 514 OFFCURVE",
"516 409 CURVE",
"501 504 OFFCURVE",
"402 566 OFFCURVE",
"282 566 CURVE SMOOTH",
"118 566 OFFCURVE",
"43 466 OFFCURVE",
"43 346 CURVE SMOOTH",
"43 267 OFFCURVE",
"76 192 OFFCURVE",
"180 192 CURVE SMOOTH",
"274 192 OFFCURVE",
"331 249 OFFCURVE",
"331 336 CURVE SMOOTH",
"331 418 OFFCURVE",
"281 474 OFFCURVE",
"192 474 CURVE SMOOTH",
"176 474 OFFCURVE",
"161 472 OFFCURVE",
"143 464 CURVE",
"168 499 OFFCURVE",
"219 504 OFFCURVE",
"243 504 CURVE SMOOTH",
"346 504 OFFCURVE",
"409 428 OFFCURVE",
"409 324 CURVE SMOOTH",
"409 207 LINE",
"559 207 LINE",
"559 330 LINE SMOOTH",
"559 404 OFFCURVE",
"576 499 OFFCURVE",
"671 499 CURVE SMOOTH",
"724 499 OFFCURVE",
"752 454 OFFCURVE",
"752 363 CURVE SMOOTH",
"752 221 OFFCURVE",
"670 99 OFFCURVE",
"422 99 CURVE SMOOTH",
"238 99 LINE SMOOTH",
"124 99 OFFCURVE",
"57 50 OFFCURVE",
"57 -52 CURVE SMOOTH",
"57 -151 OFFCURVE",
"120 -209 OFFCURVE",
"248 -209 CURVE SMOOTH"
);
},
{
closed = 1;
nodes = (
"107 240 OFFCURVE",
"96 286 OFFCURVE",
"96 332 CURVE SMOOTH",
"96 391 OFFCURVE",
"114 435 OFFCURVE",
"149 435 CURVE SMOOTH",
"190 435 OFFCURVE",
"200 376 OFFCURVE",
"200 334 CURVE SMOOTH",
"200 300 OFFCURVE",
"194 240 OFFCURVE",
"147 240 CURVE SMOOTH"
);
}
);
width = 952;
}
);
unicode = 0D07;
},
{
glyphname = "ii-malayalam";
lastChange = "2015-09-21 14:42:32 +0000";
layers = (
{
components = (
{
disableAlignment = 1;
name = "i-malayalam";
}
);
layerId = "60CFBDE8-BC08-4808-BF41-F011F3E03A54";
name = Light;
paths = (
{
closed = 1;
nodes = (
"1350 -12 OFFCURVE",
"1490 104 OFFCURVE",
"1490 326 CURVE SMOOTH",
"1490 476 OFFCURVE",
"1426 543 OFFCURVE",
"1320 543 CURVE SMOOTH",
"1229 543 OFFCURVE",
"1178 493 OFFCURVE",
"1159 433 CURVE",
"1139 509 OFFCURVE",
"1081 543 OFFCURVE",
"1017 543 CURVE SMOOTH",
"919 543 OFFCURVE",
"860 462 OFFCURVE",
"860 348 CURVE SMOOTH",
"860 279 OFFCURVE",
"882 226 OFFCURVE",
"892 210 CURVE SMOOTH",
"897 202 OFFCURVE",
"903 197 OFFCURVE",
"914 197 CURVE SMOOTH",
"920 197 OFFCURVE",
"925 199 OFFCURVE",
"927 201 CURVE",
"906 243 OFFCURVE",
"890 281 OFFCURVE",
"890 344 CURVE SMOOTH",
"890 455 OFFCURVE",
"940 516 OFFCURVE",
"1017 516 CURVE SMOOTH",
"1084 516 OFFCURVE",
"1142 470 OFFCURVE",
"1142 372 CURVE SMOOTH",
"1142 202 LINE",
"1171 202 LINE",
"1171 363 LINE SMOOTH",
"1171 461 OFFCURVE",
"1232 516 OFFCURVE",
"1318 516 CURVE SMOOTH",
"1388 516 OFFCURVE",
"1459 479 OFFCURVE",
"1459 327 CURVE SMOOTH",
"1459 136 OFFCURVE",
"1347 17 OFFCURVE",
"1195 17 CURVE SMOOTH",
"1118 17 OFFCURVE",
"1050 47 OFFCURVE",
"1005 128 CURVE",
"994 122 OFFCURVE",
"994 114 OFFCURVE",
"994 106 CURVE SMOOTH",
"994 62 OFFCURVE",
"1078 -12 OFFCURVE",
"1199 -12 CURVE SMOOTH"
);
}
);
width = 1540;
},
{
components = (
{
disableAlignment = 1;
name = "i-malayalam";
}
);
layerId = "EBFFFCD3-BAE4-48A5-9442-B72A90AD34A8";
name = Bold;
paths = (
{
closed = 1;
nodes = (
"1517 -15 OFFCURVE",
"1728 79 OFFCURVE",
"1728 343 CURVE SMOOTH",
"1728 476 OFFCURVE",
"1675 566 OFFCURVE",
"1535 566 CURVE SMOOTH",
"1430 566 OFFCURVE",
"1368 515 OFFCURVE",
"1342 409 CURVE",
"1323 526 OFFCURVE",
"1237 566 OFFCURVE",
"1158 566 CURVE SMOOTH",
"1062 566 OFFCURVE",
"990 507 OFFCURVE",
"990 394 CURVE SMOOTH",
"990 333 OFFCURVE",
"1011 240 OFFCURVE",
"1037 207 CURVE SMOOTH",
"1048 193 OFFCURVE",
"1058 190 OFFCURVE",
"1067 190 CURVE SMOOTH",
"1085 190 OFFCURVE",
"1094 202 OFFCURVE",
"1096 207 CURVE",
"1065 272 OFFCURVE",
"1055 332 OFFCURVE",
"1055 379 CURVE SMOOTH",
"1055 465 OFFCURVE",
"1089 504 OFFCURVE",
"1141 504 CURVE SMOOTH",
"1214 504 OFFCURVE",
"1235 425 OFFCURVE",
"1235 324 CURVE SMOOTH",
"1235 207 LINE",
"1385 207 LINE",
"1385 330 LINE SMOOTH",
"1385 403 OFFCURVE",
"1406 499 OFFCURVE",
"1489 499 CURVE SMOOTH",
"1542 499 OFFCURVE",
"1578 460 OFFCURVE",
"1578 341 CURVE SMOOTH",
"1578 125 OFFCURVE",
"1458 50 OFFCURVE",
"1323 50 CURVE SMOOTH",
"1236 50 OFFCURVE",
"1175 82 OFFCURVE",
"1160 139 CURVE",
"1138 143 OFFCURVE",
"1131 119 OFFCURVE",
"1131 100 CURVE SMOOTH",
"1131 54 OFFCURVE",
"1176 -15 OFFCURVE",
"1333 -15 CURVE SMOOTH"
);
}
);
width = 1778;
},
{
associatedMasterId = "EBFFFCD3-BAE4-48A5-9442-B72A90AD34A8";
components = (
{
disableAlignment = 1;
name = "i-malayalam";
}
);
layerId = "66E07F9F-FAB7-464F-A5D8-224447388343";
name = "Bold Sep 17 15, 15:09";
paths = (
{
closed = 1;
nodes = (
"1518 -15 OFFCURVE",
"1728 71 OFFCURVE",
"1728 348 CURVE SMOOTH",
"1728 471 OFFCURVE",
"1675 566 OFFCURVE",
"1530 566 CURVE SMOOTH",
"1423 566 OFFCURVE",
"1367 514 OFFCURVE",
"1342 409 CURVE",
"1323 527 OFFCURVE",
"1235 566 OFFCURVE",
"1159 566 CURVE SMOOTH",
"1061 566 OFFCURVE",
"990 507 OFFCURVE",
"990 394 CURVE SMOOTH",
"990 336 OFFCURVE",
"1009 245 OFFCURVE",
"1037 207 CURVE SMOOTH",
"1048 192 OFFCURVE",
"1060 190 OFFCURVE",
"1069 190 CURVE SMOOTH",
"1084 190 OFFCURVE",
"1095 203 OFFCURVE",
"1096 207 CURVE",
"1065 272 OFFCURVE",
"1055 332 OFFCURVE",
"1055 379 CURVE SMOOTH",
"1055 464 OFFCURVE",
"1088 504 OFFCURVE",
"1142 504 CURVE SMOOTH",
"1214 504 OFFCURVE",
"1235 424 OFFCURVE",
"1235 324 CURVE SMOOTH",
"1235 207 LINE",
"1385 207 LINE",
"1385 330 LINE SMOOTH",
"1385 403 OFFCURVE",
"1404 499 OFFCURVE",
"1493 499 CURVE SMOOTH",
"1550 499 OFFCURVE",
"1578 459 OFFCURVE",
"1578 326 CURVE SMOOTH",
"1578 155 OFFCURVE",
"1457 50 OFFCURVE",
"1315 50 CURVE SMOOTH",
"1237 50 OFFCURVE",
"1175 82 OFFCURVE",
"1160 139 CURVE",
"1138 143 OFFCURVE",
"1131 119 OFFCURVE",
"1131 100 CURVE SMOOTH",
"1131 54 OFFCURVE",
"1174 -15 OFFCURVE",
"1337 -15 CURVE SMOOTH"
);
}
);
width = 1778;
}
);
unicode = 0D08;
},
{
glyphname = "u-malayalam";
lastChange = "2015-09-17 14:10:53 +0000";
layers = (
{
layerId = "60CFBDE8-BC08-4808-BF41-F011F3E03A54";
name = Light;
paths = (
{
closed = 1;
nodes = (
"552 -168 LINE",
"552 -138 LINE",
"190 -138 LINE SMOOTH",
"120 -138 OFFCURVE",
"78 -99 OFFCURVE",
"78 -37 CURVE SMOOTH",
"78 26 OFFCURVE",
"120 70 OFFCURVE",
"190 70 CURVE SMOOTH",
"298 70 LINE SMOOTH",
"464 70 OFFCURVE",
"550 172 OFFCURVE",
"550 310 CURVE SMOOTH",
"550 455 OFFCURVE",
"457 546 OFFCURVE",
"299 546 CURVE SMOOTH",
"140 546 OFFCURVE",
"45 453 OFFCURVE",
"45 332 CURVE SMOOTH",
"45 261 OFFCURVE",
"78 190 OFFCURVE",
"163 190 CURVE SMOOTH",
"234 190 OFFCURVE",
"286 240 OFFCURVE",
"286 318 CURVE SMOOTH",
"286 394 OFFCURVE",
"238 446 OFFCURVE",
"168 446 CURVE SMOOTH",
"115 446 OFFCURVE",
"92 416 OFFCURVE",
"76 391 CURVE",
"102 460 OFFCURVE",
"170 519 OFFCURVE",
"295 519 CURVE SMOOTH",
"415 519 OFFCURVE",
"519 464 OFFCURVE",
"519 313 CURVE SMOOTH",
"519 196 OFFCURVE",
"456 98 OFFCURVE",
"295 98 CURVE SMOOTH",
"190 98 LINE SMOOTH",
"101 98 OFFCURVE",
"48 44 OFFCURVE",
"48 -37 CURVE SMOOTH",
"48 -117 OFFCURVE",
"101 -168 OFFCURVE",
"190 -168 CURVE SMOOTH"
);
},
{
closed = 1;
nodes = (
"115 217 OFFCURVE",
"75 251 OFFCURVE",
"75 316 CURVE SMOOTH",
"75 374 OFFCURVE",
"108 419 OFFCURVE",
"166 419 CURVE SMOOTH",
"220 419 OFFCURVE",
"256 380 OFFCURVE",
"256 319 CURVE SMOOTH",
"256 256 OFFCURVE",
"218 217 OFFCURVE",
"165 217 CURVE SMOOTH"
);
}
);
width = 600;
},
{
layerId = "EBFFFCD3-BAE4-48A5-9442-B72A90AD34A8";
name = Bold;
paths = (
{
closed = 1;
nodes = (
"650 -209 LINE",
"650 -96 LINE",
"247 -96 LINE SMOOTH",
"169 -96 OFFCURVE",
"127 -76 OFFCURVE",
"127 -27 CURVE SMOOTH",
"127 14 OFFCURVE",
"157 41 OFFCURVE",
"223 41 CURVE SMOOTH",
"286 41 LINE SMOOTH",
"485 41 OFFCURVE",
"642 111 OFFCURVE",
"642 303 CURVE SMOOTH",
"642 444 OFFCURVE",
"568 566 OFFCURVE",
"345 566 CURVE SMOOTH",
"140 566 OFFCURVE",
"43 466 OFFCURVE",
"43 341 CURVE SMOOTH",
"43 268 OFFCURVE",
"76 192 OFFCURVE",
"182 192 CURVE SMOOTH",
"273 192 OFFCURVE",
"331 249 OFFCURVE",
"331 336 CURVE SMOOTH",
"331 418 OFFCURVE",
"281 474 OFFCURVE",
"192 474 CURVE SMOOTH",
"176 474 OFFCURVE",
"161 472 OFFCURVE",
"143 464 CURVE",
"182 498 OFFCURVE",
"260 503 OFFCURVE",
"297 503 CURVE SMOOTH",
"429 503 OFFCURVE",
"492 442 OFFCURVE",
"492 312 CURVE SMOOTH",
"492 204 OFFCURVE",
"449 99 OFFCURVE",
"286 99 CURVE SMOOTH",
"238 99 LINE SMOOTH",
"124 99 OFFCURVE",
"57 50 OFFCURVE",
"57 -52 CURVE SMOOTH",
"57 -151 OFFCURVE",
"120 -209 OFFCURVE",
"248 -209 CURVE"
);
},
{
closed = 1;
nodes = (
"112 240 OFFCURVE",
"96 285 OFFCURVE",
"96 333 CURVE SMOOTH",
"96 392 OFFCURVE",
"120 435 OFFCURVE",
"155 435 CURVE SMOOTH",
"192 435 OFFCURVE",
"200 385 OFFCURVE",
"200 329 CURVE SMOOTH",
"200 301 OFFCURVE",
"198 240 OFFCURVE",
"152 240 CURVE SMOOTH"
);
}
);
width = 695;
}
);
unicode = 0D09;
},
{
glyphname = "uu-malayalam";
lastChange = "2015-09-21 14:42:32 +0000";
layers = (
{
components = (
{
disableAlignment = 1;
name = "u-malayalam";
}
);
layerId = "60CFBDE8-BC08-4808-BF41-F011F3E03A54";
name = Light;
paths = (
{
closed = 1;
nodes = (
"1129 -12 OFFCURVE",
"1269 104 OFFCURVE",
"1269 326 CURVE SMOOTH",
"1269 476 OFFCURVE",
"1205 543 OFFCURVE",
"1099 543 CURVE SMOOTH",
"1008 543 OFFCURVE",
"957 493 OFFCURVE",
"938 433 CURVE",
"918 509 OFFCURVE",
"860 543 OFFCURVE",
"796 543 CURVE SMOOTH",
"698 543 OFFCURVE",
"639 462 OFFCURVE",
"639 348 CURVE SMOOTH",
"639 279 OFFCURVE",
"661 226 OFFCURVE",
"671 210 CURVE SMOOTH",
"676 202 OFFCURVE",
"682 197 OFFCURVE",
"693 197 CURVE SMOOTH",
"699 197 OFFCURVE",
"704 199 OFFCURVE",
"706 201 CURVE",
"685 243 OFFCURVE",
"669 281 OFFCURVE",
"669 344 CURVE SMOOTH",
"669 455 OFFCURVE",
"719 516 OFFCURVE",
"796 516 CURVE SMOOTH",
"863 516 OFFCURVE",
"921 470 OFFCURVE",
"921 372 CURVE SMOOTH",
"921 202 LINE",
"950 202 LINE",
"950 363 LINE SMOOTH",
"950 461 OFFCURVE",
"1011 516 OFFCURVE",
"1097 516 CURVE SMOOTH",
"1167 516 OFFCURVE",
"1238 479 OFFCURVE",
"1238 327 CURVE SMOOTH",
"1238 136 OFFCURVE",
"1126 17 OFFCURVE",
"974 17 CURVE SMOOTH",
"897 17 OFFCURVE",
"829 47 OFFCURVE",
"784 128 CURVE",
"773 122 OFFCURVE",
"773 114 OFFCURVE",
"773 106 CURVE SMOOTH",
"773 62 OFFCURVE",
"857 -12 OFFCURVE",
"978 -12 CURVE SMOOTH"
);
}
);
width = 1314;
},
{
background = {
paths = (
{
closed = 1;
nodes = (
"1252 -15 OFFCURVE",
"1465 71 OFFCURVE",
"1465 337 CURVE SMOOTH",
"1465 471 OFFCURVE",
"1411 566 OFFCURVE",
"1262 566 CURVE SMOOTH",
"1155 566 OFFCURVE",
"1099 514 OFFCURVE",
"1074 409 CURVE",
"1055 527 OFFCURVE",
"967 566 OFFCURVE",
"891 566 CURVE SMOOTH",
"793 566 OFFCURVE",
"722 507 OFFCURVE",
"722 394 CURVE SMOOTH",
"722 336 OFFCURVE",
"741 245 OFFCURVE",
"769 207 CURVE SMOOTH",
"780 192 OFFCURVE",
"792 190 OFFCURVE",
"801 190 CURVE SMOOTH",
"816 190 OFFCURVE",
"827 203 OFFCURVE",
"828 207 CURVE",
"797 272 OFFCURVE",
"787 332 OFFCURVE",
"787 379 CURVE SMOOTH",
"787 464 OFFCURVE",
"820 504 OFFCURVE",
"874 504 CURVE SMOOTH",
"946 504 OFFCURVE",
"967 424 OFFCURVE",
"967 324 CURVE SMOOTH",
"967 207 LINE",
"1117 207 LINE",
"1117 330 LINE SMOOTH",
"1117 403 OFFCURVE",
"1136 499 OFFCURVE",
"1225 499 CURVE SMOOTH",
"1282 499 OFFCURVE",
"1310 459 OFFCURVE",
"1310 360 CURVE SMOOTH",
"1310 155 OFFCURVE",
"1189 50 OFFCURVE",
"1047 50 CURVE SMOOTH",
"969 50 OFFCURVE",
"907 82 OFFCURVE",
"892 139 CURVE",
"870 143 OFFCURVE",
"863 119 OFFCURVE",
"863 100 CURVE SMOOTH",
"863 54 OFFCURVE",
"906 -15 OFFCURVE",
"1069 -15 CURVE SMOOTH"
);
}
);
};
components = (
{
disableAlignment = 1;
name = "u-malayalam";
}
);
layerId = "EBFFFCD3-BAE4-48A5-9442-B72A90AD34A8";
name = Bold;
paths = (
{
closed = 1;
nodes = (
"1247 -15 OFFCURVE",
"1458 79 OFFCURVE",
"1458 343 CURVE SMOOTH",
"1458 476 OFFCURVE",
"1405 566 OFFCURVE",
"1265 566 CURVE SMOOTH",
"1160 566 OFFCURVE",
"1098 515 OFFCURVE",
"1072 409 CURVE",
"1053 526 OFFCURVE",
"967 566 OFFCURVE",
"888 566 CURVE SMOOTH",
"792 566 OFFCURVE",
"720 507 OFFCURVE",
"720 394 CURVE SMOOTH",
"720 333 OFFCURVE",
"741 240 OFFCURVE",
"767 207 CURVE SMOOTH",
"778 193 OFFCURVE",
"788 190 OFFCURVE",
"797 190 CURVE SMOOTH",
"815 190 OFFCURVE",
"824 202 OFFCURVE",
"826 207 CURVE",
"795 272 OFFCURVE",
"785 332 OFFCURVE",
"785 379 CURVE SMOOTH",
"785 465 OFFCURVE",
"819 504 OFFCURVE",
"871 504 CURVE SMOOTH",
"944 504 OFFCURVE",
"965 425 OFFCURVE",
"965 324 CURVE SMOOTH",
"965 207 LINE",
"1115 207 LINE",
"1115 330 LINE SMOOTH",
"1115 403 OFFCURVE",
"1136 499 OFFCURVE",
"1219 499 CURVE SMOOTH",
"1272 499 OFFCURVE",
"1308 460 OFFCURVE",
"1308 341 CURVE SMOOTH",
"1308 125 OFFCURVE",
"1188 50 OFFCURVE",
"1053 50 CURVE SMOOTH",
"966 50 OFFCURVE",
"905 82 OFFCURVE",
"890 139 CURVE",
"868 143 OFFCURVE",
"861 119 OFFCURVE",
"861 100 CURVE SMOOTH",
"861 54 OFFCURVE",
"906 -15 OFFCURVE",
"1063 -15 CURVE SMOOTH"
);
}
);
width = 1505;
},
{
associatedMasterId = "EBFFFCD3-BAE4-48A5-9442-B72A90AD34A8";
components = (
{
disableAlignment = 1;
name = "u-malayalam";
}
);
layerId = "8B36F8FD-383A-4C2E-B649-8F0C7C055768";
name = "Bold Sep 17 15, 15:11";
paths = (
{
closed = 1;
nodes = (
"1252 -15 OFFCURVE",
"1465 71 OFFCURVE",
"1465 337 CURVE SMOOTH",
"1465 471 OFFCURVE",
"1411 566 OFFCURVE",
"1262 566 CURVE SMOOTH",
"1155 566 OFFCURVE",
"1099 514 OFFCURVE",
"1074 409 CURVE",
"1055 527 OFFCURVE",
"967 566 OFFCURVE",
"891 566 CURVE SMOOTH",
"793 566 OFFCURVE",
"722 507 OFFCURVE",
"722 394 CURVE SMOOTH",
"722 336 OFFCURVE",
"741 245 OFFCURVE",
"769 207 CURVE SMOOTH",
"780 192 OFFCURVE",
"792 190 OFFCURVE",
"801 190 CURVE SMOOTH",
"816 190 OFFCURVE",
"827 203 OFFCURVE",
"828 207 CURVE",
"797 272 OFFCURVE",
"787 332 OFFCURVE",
"787 379 CURVE SMOOTH",
"787 464 OFFCURVE",
"820 504 OFFCURVE",
"874 504 CURVE SMOOTH",
"946 504 OFFCURVE",
"967 424 OFFCURVE",
"967 324 CURVE SMOOTH",
"967 207 LINE",
"1117 207 LINE",
"1117 330 LINE SMOOTH",
"1117 403 OFFCURVE",
"1136 499 OFFCURVE",
"1225 499 CURVE SMOOTH",
"1282 499 OFFCURVE",
"1310 459 OFFCURVE",
"1310 360 CURVE SMOOTH",
"1310 155 OFFCURVE",
"1189 50 OFFCURVE",
"1047 50 CURVE SMOOTH",
"969 50 OFFCURVE",
"907 82 OFFCURVE",
"892 139 CURVE",
"870 143 OFFCURVE",
"863 119 OFFCURVE",
"863 100 CURVE SMOOTH",
"863 54 OFFCURVE",
"906 -15 OFFCURVE",
"1069 -15 CURVE SMOOTH"
);
}
);
width = 1505;
}
);
unicode = 0D0A;
},
{
glyphname = "rVocalic-malayalam";
lastChange = "2015-09-16 15:57:19 +0000";
layers = (
{
layerId = "60CFBDE8-BC08-4808-BF41-F011F3E03A54";
name = Light;
paths = (
{
closed = 1;
nodes = (
"566 123 OFFCURVE",
"689 210 OFFCURVE",
"689 389 CURVE SMOOTH",
"689 481 OFFCURVE",
"656 546 OFFCURVE",
"573 546 CURVE SMOOTH",
"500 546 OFFCURVE",
"448 496 OFFCURVE",
"448 418 CURVE SMOOTH",
"448 342 OFFCURVE",
"496 290 OFFCURVE",
"566 290 CURVE SMOOTH",
"619 290 OFFCURVE",
"646 321 OFFCURVE",
"658 345 CURVE",
"641 206 OFFCURVE",
"517 150 OFFCURVE",
"367 150 CURVE SMOOTH",
"217 150 OFFCURVE",
"93 206 OFFCURVE",
"76 345 CURVE",
"89 320 OFFCURVE",
"115 290 OFFCURVE",
"168 290 CURVE SMOOTH",
"238 290 OFFCURVE",
"286 342 OFFCURVE",
"286 418 CURVE SMOOTH",
"286 496 OFFCURVE",
"234 546 OFFCURVE",
"161 546 CURVE SMOOTH",
"78 546 OFFCURVE",
"45 481 OFFCURVE",
"45 389 CURVE SMOOTH",
"45 210 OFFCURVE",
"168 123 OFFCURVE",
"367 123 CURVE SMOOTH"
);
},
{
closed = 1;
nodes = (
"561 -145 OFFCURVE",
"667 -93 OFFCURVE",
"667 3 CURVE SMOOTH",
"667 99 OFFCURVE",
"563 149 OFFCURVE",
"367 149 CURVE SMOOTH",
"171 149 OFFCURVE",
"67 99 OFFCURVE",
"67 3 CURVE SMOOTH",
"67 -93 OFFCURVE",
"173 -145 OFFCURVE",
"367 -145 CURVE SMOOTH"
);
},
{
closed = 1;
nodes = (
"194 -118 OFFCURVE",
"98 -75 OFFCURVE",
"98 3 CURVE SMOOTH",
"98 81 OFFCURVE",
"192 123 OFFCURVE",
"367 123 CURVE SMOOTH",
"542 123 OFFCURVE",
"636 81 OFFCURVE",
"636 3 CURVE SMOOTH",
"636 -75 OFFCURVE",
"540 -118 OFFCURVE",
"367 -118 CURVE SMOOTH"
);
},
{
closed = 1;
nodes = (
"108 317 OFFCURVE",
"75 362 OFFCURVE",
"75 420 CURVE SMOOTH",
"75 485 OFFCURVE",
"115 519 OFFCURVE",
"165 519 CURVE SMOOTH",
"218 519 OFFCURVE",
"256 480 OFFCURVE",
"256 417 CURVE SMOOTH",
"256 356 OFFCURVE",
"220 317 OFFCURVE",
"166 317 CURVE SMOOTH"
);
},
{
closed = 1;
nodes = (
"514 317 OFFCURVE",
"478 356 OFFCURVE",
"478 417 CURVE SMOOTH",
"478 480 OFFCURVE",
"516 519 OFFCURVE",
"569 519 CURVE SMOOTH",
"619 519 OFFCURVE",
"659 485 OFFCURVE",
"659 420 CURVE SMOOTH",
"659 362 OFFCURVE",
"626 317 OFFCURVE",
"568 317 CURVE SMOOTH"
);
}
);
width = 734;
},
{
layerId = "EBFFFCD3-BAE4-48A5-9442-B72A90AD34A8";
name = Bold;
paths = (
{
closed = 1;
nodes = (
"645 114 OFFCURVE",
"767 222 OFFCURVE",
"767 405 CURVE SMOOTH",
"767 494 OFFCURVE",
"730 566 OFFCURVE",
"610 566 CURVE SMOOTH",
"516 566 OFFCURVE",
"459 509 OFFCURVE",
"459 422 CURVE SMOOTH",
"459 340 OFFCURVE",
"513 284 OFFCURVE",
"610 284 CURVE SMOOTH",
"631 284 OFFCURVE",
"649 286 OFFCURVE",
"675 294 CURVE",
"651 247 OFFCURVE",
"591 164 OFFCURVE",
"423 164 CURVE SMOOTH",
"262 164 OFFCURVE",
"194 240 OFFCURVE",
"165 294 CURVE",
"191 286 OFFCURVE",
"209 284 OFFCURVE",
"230 284 CURVE SMOOTH",
"327 284 OFFCURVE",
"381 340 OFFCURVE",
"381 422 CURVE SMOOTH",
"381 509 OFFCURVE",
"324 566 OFFCURVE",
"230 566 CURVE SMOOTH",
"110 566 OFFCURVE",
"73 494 OFFCURVE",
"73 405 CURVE SMOOTH",
"73 222 OFFCURVE",
"195 114 OFFCURVE",
"421 114 CURVE SMOOTH"
);
},
{
closed = 1;
nodes = (
"634 -146 OFFCURVE",
"759 -89 OFFCURVE",
"759 8 CURVE SMOOTH",
"759 105 OFFCURVE",
"634 162 OFFCURVE",
"421 162 CURVE SMOOTH",
"208 162 OFFCURVE",
"83 105 OFFCURVE",
"83 8 CURVE SMOOTH",
"83 -89 OFFCURVE",
"208 -146 OFFCURVE",
"421 -146 CURVE SMOOTH"
);
},
{
closed = 1;
nodes = (
"302 -98 OFFCURVE",
"223 -56 OFFCURVE",
"223 8 CURVE SMOOTH",
"223 72 OFFCURVE",
"302 114 OFFCURVE",
"421 114 CURVE SMOOTH",
"540 114 OFFCURVE",
"619 72 OFFCURVE",
"619 8 CURVE SMOOTH",
"619 -56 OFFCURVE",
"540 -98 OFFCURVE",
"421 -98 CURVE SMOOTH"
);
},
{
closed = 1;
nodes = (
"158 328 OFFCURVE",
"141 364 OFFCURVE",
"141 418 CURVE SMOOTH",
"141 461 OFFCURVE",
"152 503 OFFCURVE",
"191 503 CURVE SMOOTH",
"235 503 OFFCURVE",
"240 452 OFFCURVE",
"240 421 CURVE SMOOTH",
"240 376 OFFCURVE",
"230 328 OFFCURVE",
"191 328 CURVE SMOOTH"
);
},
{
closed = 1;
nodes = (
"610 328 OFFCURVE",
"600 376 OFFCURVE",
"600 421 CURVE SMOOTH",
"600 452 OFFCURVE",
"605 503 OFFCURVE",
"649 503 CURVE SMOOTH",
"688 503 OFFCURVE",
"699 461 OFFCURVE",
"699 418 CURVE SMOOTH",
"699 364 OFFCURVE",
"682 328 OFFCURVE",
"649 328 CURVE SMOOTH"
);
}
);
width = 850;
}
);
unicode = 0D0B;
},
{
glyphname = "lVocalic-malayalam";
lastChange = "2015-09-21 14:42:32 +0000";
layers = (
{
layerId = "60CFBDE8-BC08-4808-BF41-F011F3E03A54";
name = Light;
paths = (
{
closed = 1;
nodes = (
"335 -18 OFFCURVE",
"400 30 OFFCURVE",
"400 143 CURVE SMOOTH",
"400 243 OFFCURVE",
"349 298 OFFCURVE",
"277 298 CURVE SMOOTH",
"200 298 OFFCURVE",
"150 233 OFFCURVE",
"150 146 CURVE SMOOTH",
"150 101 OFFCURVE",
"163 38 OFFCURVE",
"216 11 CURVE",
"136 24 OFFCURVE",
"73 76 OFFCURVE",
"73 237 CURVE SMOOTH",
"73 456 OFFCURVE",
"190 519 OFFCURVE",
"288 519 CURVE SMOOTH",
"442 519 OFFCURVE",
"518 365 OFFCURVE",
"518 259 CURVE SMOOTH",
"518 12 LINE SMOOTH",
"518 4 OFFCURVE",
"519 -5 OFFCURVE",
"532 -5 CURVE SMOOTH",
"538 -5 OFFCURVE",
"542 -3 OFFCURVE",
"547 2 CURVE",
"545 10 OFFCURVE",
"545 22 OFFCURVE",
"545 33 CURVE SMOOTH",
"545 259 LINE SMOOTH",
"545 365 OFFCURVE",
"621 519 OFFCURVE",
"775 519 CURVE SMOOTH",
"872 519 OFFCURVE",
"990 458 OFFCURVE",
"990 235 CURVE SMOOTH",
"990 72 OFFCURVE",
"927 23 OFFCURVE",
"858 11 CURVE",
"902 38 OFFCURVE",
"913 102 OFFCURVE",
"913 144 CURVE SMOOTH",
"913 234 OFFCURVE",
"863 298 OFFCURVE",
"786 298 CURVE SMOOTH",
"714 298 OFFCURVE",
"663 243 OFFCURVE",
"663 143 CURVE SMOOTH",
"663 30 OFFCURVE",
"728 -18 OFFCURVE",
"822 -18 CURVE SMOOTH",
"927 -18 OFFCURVE",
"1018 42 OFFCURVE",
"1018 239 CURVE SMOOTH",
"1018 453 OFFCURVE",
"911 546 OFFCURVE",
"776 546 CURVE SMOOTH",
"634 546 OFFCURVE",
"569 442 OFFCURVE",
"531 336 CURVE",
"500 436 OFFCURVE",
"433 546 OFFCURVE",
"287 546 CURVE SMOOTH",
"152 546 OFFCURVE",
"45 453 OFFCURVE",
"45 239 CURVE SMOOTH",
"45 42 OFFCURVE",
"136 -18 OFFCURVE",
"241 -18 CURVE SMOOTH"
);
},
{
closed = 1;
nodes = (
"216 15 OFFCURVE",
"176 61 OFFCURVE",
"176 140 CURVE SMOOTH",
"176 212 OFFCURVE",
"209 269 OFFCURVE",
"275 269 CURVE SMOOTH",
"343 269 OFFCURVE",
"370 209 OFFCURVE",
"370 144 CURVE SMOOTH",
"370 66 OFFCURVE",
"330 15 OFFCURVE",
"272 15 CURVE SMOOTH"
);
},
{
closed = 1;
nodes = (
"729 15 OFFCURVE",
"689 66 OFFCURVE",
"689 144 CURVE SMOOTH",
"689 209 OFFCURVE",
"716 269 OFFCURVE",
"784 269 CURVE SMOOTH",
"850 269 OFFCURVE",
"883 212 OFFCURVE",
"883 140 CURVE SMOOTH",
"883 61 OFFCURVE",
"843 15 OFFCURVE",
"787 15 CURVE SMOOTH"
);
}
);
width = 1063;
},
{
associatedMasterId = "EBFFFCD3-BAE4-48A5-9442-B72A90AD34A8";
layerId = "09424544-6E7F-4891-A321-77C60A33A5E6";
name = "Bold Sep 7 15, 21:58";
paths = (
{
closed = 1;
nodes = (
"245 28 OFFCURVE",
"225 74 OFFCURVE",
"225 153 CURVE SMOOTH",
"225 233 OFFCURVE",
"246 287 OFFCURVE",
"287 287 CURVE SMOOTH",
"330 287 OFFCURVE",
"344 229 OFFCURVE",
"344 158 CURVE SMOOTH",
"344 66 OFFCURVE",
"321 28 OFFCURVE",
"285 28 CURVE SMOOTH"
);
},
{
closed = 1;
nodes = (
"1183 110 OFFCURVE",
"1133 41 OFFCURVE",
"1076 28 CURVE",
"1108 71 OFFCURVE",
"1115 126 OFFCURVE",
"1115 168 CURVE SMOOTH",
"1115 281 OFFCURVE",
"1064 344 OFFCURVE",
"963 344 CURVE SMOOTH",
"847 344 OFFCURVE",
"794 262 OFFCURVE",
"794 164 CURVE SMOOTH",
"794 29 OFFCURVE",
"895 -18 OFFCURVE",
"1001 -18 CURVE SMOOTH",
"1182 -18 OFFCURVE",
"1329 50 OFFCURVE",
"1329 245 CURVE SMOOTH",
"1329 512 OFFCURVE",
"1094 565 OFFCURVE",
"988 565 CURVE SMOOTH",
"837 565 OFFCURVE",
"736 516 OFFCURVE",
"668 383 CURVE",
"619 492 OFFCURVE",
"545 561 OFFCURVE",
"401 566 CURVE SMOOTH",
"198 572 OFFCURVE",
"10 492 OFFCURVE",
"10 256 CURVE SMOOTH",
"10 54 OFFCURVE",
"134 -18 OFFCURVE",
"287 -18 CURVE SMOOTH",
"393 -18 OFFCURVE",
"494 29 OFFCURVE",
"494 164 CURVE SMOOTH",
"494 262 OFFCURVE",
"441 344 OFFCURVE",
"325 344 CURVE SMOOTH",
"224 344 OFFCURVE",
"173 281 OFFCURVE",
"173 168 CURVE SMOOTH",
"173 126 OFFCURVE",
"180 71 OFFCURVE",
"212 28 CURVE",
"132 40 OFFCURVE",
"66 105 OFFCURVE",
"66 245 CURVE SMOOTH",
"66 472 OFFCURVE",
"262 518 OFFCURVE",
"357 518 CURVE SMOOTH",
"513 518 OFFCURVE",
"573 337 OFFCURVE",
"573 204 CURVE SMOOTH",
"573 95 LINE SMOOTH",
"573 0 OFFCURVE",
"604 -18 OFFCURVE",
"650 -18 CURVE SMOOTH",
"681 -18 OFFCURVE",
"710 -10 OFFCURVE",
"734 7 CURVE",
"723 37 OFFCURVE",
"717 65 OFFCURVE",
"715 159 CURVE SMOOTH",
"715 326 LINE SMOOTH",
"712 390 OFFCURVE",
"782 518 OFFCURVE",
"980 518 CURVE SMOOTH",
"1072 518 OFFCURVE",
"1183 439 OFFCURVE",
"1183 260 CURVE SMOOTH"
);
},
{
closed = 1;
nodes = (
"967 28 OFFCURVE",
"944 66 OFFCURVE",
"944 158 CURVE SMOOTH",
"944 229 OFFCURVE",
"958 287 OFFCURVE",
"1001 287 CURVE SMOOTH",
"1042 287 OFFCURVE",
"1063 233 OFFCURVE",
"1063 153 CURVE SMOOTH",
"1063 74 OFFCURVE",
"1043 28 OFFCURVE",
"1003 28 CURVE SMOOTH"
);
}
);
width = 1269;
},
{
associatedMasterId = "EBFFFCD3-BAE4-48A5-9442-B72A90AD34A8";
layerId = "F48F6BE7-899B-4670-8E6A-6461EB41091E";
name = "Bold Sep 7 15, 21:59";
paths = (
{
closed = 1;
nodes = (
"403 -18 OFFCURVE",
"464 67 OFFCURVE",
"464 164 CURVE SMOOTH",
"464 265 OFFCURVE",
"398 344 OFFCURVE",
"280 344 CURVE SMOOTH",
"219 344 OFFCURVE",
"162 323 OFFCURVE",
"136 269 CURVE",
"150 481 OFFCURVE",
"286 518 OFFCURVE",
"357 518 CURVE SMOOTH",
"513 518 OFFCURVE",
"573 337 OFFCURVE",
"573 204 CURVE SMOOTH",
"573 95 LINE SMOOTH",
"573 0 OFFCURVE",
"604 -18 OFFCURVE",
"650 -18 CURVE SMOOTH",
"681 -18 OFFCURVE",
"710 -10 OFFCURVE",
"734 7 CURVE",
"723 37 OFFCURVE",
"717 65 OFFCURVE",
"715 159 CURVE SMOOTH",
"715 326 LINE SMOOTH",
"713 390 OFFCURVE",
"762 518 OFFCURVE",
"900 518 CURVE SMOOTH",
"973 518 OFFCURVE",
"1073 448 OFFCURVE",
"1073 290 CURVE",
"1051 337 OFFCURVE",
"1010 344 OFFCURVE",
"981 344 CURVE SMOOTH",
"883 344 OFFCURVE",
"835 269 OFFCURVE",
"835 158 CURVE SMOOTH",
"835 28 OFFCURVE",
"891 -18 OFFCURVE",
"990 -18 CURVE SMOOTH",
"1116 -18 OFFCURVE",
"1219 53 OFFCURVE",
"1219 245 CURVE SMOOTH",
"1219 511 OFFCURVE",
"1025 565 OFFCURVE",
"908 565 CURVE SMOOTH",
"794 565 OFFCURVE",
"719 516 OFFCURVE",
"668 383 CURVE",
"619 492 OFFCURVE",
"545 561 OFFCURVE",
"401 566 CURVE SMOOTH",
"236 572 OFFCURVE",
"82 488 OFFCURVE",
"82 238 CURVE SMOOTH",
"82 53 OFFCURVE",
"166 -18 OFFCURVE",
"279 -18 CURVE SMOOTH"
);
},
{
closed = 1;
nodes = (
"209 26 OFFCURVE",
"161 72 OFFCURVE",
"161 163 CURVE SMOOTH",
"161 237 OFFCURVE",
"194 287 OFFCURVE",
"248 287 CURVE SMOOTH",
"300 287 OFFCURVE",
"330 238 OFFCURVE",
"330 154 CURVE SMOOTH",
"330 74 OFFCURVE",
"302 26 OFFCURVE",
"255 26 CURVE SMOOTH"
);
},
{
closed = 1;
nodes = (
"929 26 OFFCURVE",
"894 73 OFFCURVE",
"894 155 CURVE SMOOTH",
"894 240 OFFCURVE",
"930 291 OFFCURVE",
"986 291 CURVE SMOOTH",
"1042 291 OFFCURVE",
"1073 239 OFFCURVE",
"1073 164 CURVE SMOOTH",
"1073 72 OFFCURVE",
"1028 26 OFFCURVE",
"982 26 CURVE SMOOTH"
);
}
);
width = 1269;
},
{
associatedMasterId = "EBFFFCD3-BAE4-48A5-9442-B72A90AD34A8";
layerId = "9F127573-D9EB-4FDC-AB84-A342C7D15255";
name = "Bold Sep 17 15, 15:12";
paths = (
{
closed = 1;
nodes = (
"799 565 OFFCURVE",
"699 485 OFFCURVE",
"668 383 CURVE",
"619 492 OFFCURVE",
"545 566 OFFCURVE",
"388 566 CURVE SMOOTH",
"227 566 OFFCURVE",
"82 487 OFFCURVE",
"82 240 CURVE SMOOTH",
"82 52 OFFCURVE",
"166 -18 OFFCURVE",
"279 -18 CURVE SMOOTH",
"403 -18 OFFCURVE",
"464 67 OFFCURVE",
"464 165 CURVE SMOOTH",
"464 274 OFFCURVE",
"388 344 OFFCURVE",
"282 344 CURVE SMOOTH",
"181 344 OFFCURVE",
"134 282 OFFCURVE",
"123 217 CURVE",
"129 451 OFFCURVE",
"239 515 OFFCURVE",
"351 518 CURVE SMOOTH",
"520 523 OFFCURVE",
"573 386 OFFCURVE",
"573 204 CURVE SMOOTH",
"573 95 LINE SMOOTH",
"573 0 OFFCURVE",
"604 -18 OFFCURVE",
"650 -18 CURVE SMOOTH",
"681 -18 OFFCURVE",
"710 -10 OFFCURVE",
"734 7 CURVE",
"724 32 OFFCURVE",
"715 84 OFFCURVE",
"715 159 CURVE SMOOTH",
"715 287 LINE SMOOTH",
"715 406 OFFCURVE",
"795 518 OFFCURVE",
"925 518 CURVE SMOOTH",
"1059 518 OFFCURVE",
"1118 400 OFFCURVE",
"1118 292 CURVE",
"1086 332 OFFCURVE",
"1041 344 OFFCURVE",
"1000 344 CURVE SMOOTH",
"905 344 OFFCURVE",
"835 282 OFFCURVE",
"835 156 CURVE SMOOTH",
"835 49 OFFCURVE",
"885 -18 OFFCURVE",
"1005 -18 CURVE SMOOTH",
"1127 -18 OFFCURVE",
"1243 51 OFFCURVE",
"1243 256 CURVE SMOOTH",
"1243 505 OFFCURVE",
"1071 565 OFFCURVE",
"945 565 CURVE SMOOTH"
);
},
{
closed = 1;
nodes = (
"933 26 OFFCURVE",
"894 73 OFFCURVE",
"894 161 CURVE SMOOTH",
"894 247 OFFCURVE",
"932 291 OFFCURVE",
"989 291 CURVE SMOOTH",
"1051 291 OFFCURVE",
"1083 240 OFFCURVE",
"1083 161 CURVE SMOOTH",
"1083 72 OFFCURVE",
"1043 26 OFFCURVE",
"988 26 CURVE SMOOTH"
);
},
{
closed = 1;
nodes = (
"325 287 OFFCURVE",
"330 211 OFFCURVE",
"330 170 CURVE SMOOTH",
"330 67 OFFCURVE",
"299 26 OFFCURVE",
"253 26 CURVE SMOOTH",
"204 26 OFFCURVE",
"161 73 OFFCURVE",
"161 162 CURVE SMOOTH",
"161 238 OFFCURVE",
"192 287 OFFCURVE",
"251 287 CURVE SMOOTH"
);
}
);
width = 1269;
},
{
layerId = "EBFFFCD3-BAE4-48A5-9442-B72A90AD34A8";
name = Bold;
paths = (
{
closed = 1;
nodes = (
"403 -18 OFFCURVE",
"464 67 OFFCURVE",
"464 165 CURVE SMOOTH",
"464 274 OFFCURVE",
"388 344 OFFCURVE",
"282 344 CURVE",
"167 344 OFFCURVE",
"121 263 OFFCURVE",
"121 189 CURVE SMOOTH",
"121 131 OFFCURVE",
"122 94 OFFCURVE",
"146 44 CURVE",
"128 111 OFFCURVE",
"123 131 OFFCURVE",
"123 184 CURVE SMOOTH",
"123 453 OFFCURVE",
"251 518 OFFCURVE",
"351 518 CURVE SMOOTH",
"518 518 OFFCURVE",
"573 336 OFFCURVE",
"573 204 CURVE SMOOTH",
"573 95 LINE SMOOTH",
"573 0 OFFCURVE",
"604 -18 OFFCURVE",
"650 -18 CURVE SMOOTH",
"681 -18 OFFCURVE",
"710 -10 OFFCURVE",
"734 7 CURVE",
"724 32 OFFCURVE",
"715 84 OFFCURVE",
"715 159 CURVE SMOOTH",
"715 292 LINE SMOOTH",
"715 406 OFFCURVE",
"793 518 OFFCURVE",
"922 518 CURVE SMOOTH",
"1108 518 OFFCURVE",
"1129 326 OFFCURVE",
"1129 203 CURVE SMOOTH",
"1129 110 OFFCURVE",
"1117 72 OFFCURVE",
"1047 5 CURVE",
"1131 26 OFFCURVE",
"1157 104 OFFCURVE",
"1157 174 CURVE SMOOTH",
"1157 292 OFFCURVE",
"1082 344 OFFCURVE",
"998 344 CURVE SMOOTH",
"905 344 OFFCURVE",
"835 280 OFFCURVE",
"835 158 CURVE SMOOTH",
"835 57 OFFCURVE",
"883 -18 OFFCURVE",
"1006 -18 CURVE SMOOTH",
"1130 -18 OFFCURVE",
"1249 59 OFFCURVE",
"1249 255 CURVE SMOOTH",
"1249 506 OFFCURVE",
"1055 565 OFFCURVE",
"931 565 CURVE SMOOTH",
"804 565 OFFCURVE",
"711 503 OFFCURVE",
"668 383 CURVE",
"621 492 OFFCURVE",
"536 566 OFFCURVE",
"384 566 CURVE SMOOTH",
"228 566 OFFCURVE",
"82 488 OFFCURVE",
"82 240 CURVE SMOOTH",
"82 52 OFFCURVE",
"166 -18 OFFCURVE",
"279 -18 CURVE SMOOTH"
);
},
{
closed = 1;
nodes = (
"204 26 OFFCURVE",
"161 73 OFFCURVE",
"161 162 CURVE SMOOTH",
"161 238 OFFCURVE",
"192 287 OFFCURVE",
"251 287 CURVE SMOOTH",
"325 287 OFFCURVE",
"330 211 OFFCURVE",
"330 170 CURVE SMOOTH",
"330 67 OFFCURVE",
"299 26 OFFCURVE",
"253 26 CURVE SMOOTH"
);
},
{
closed = 1;
nodes = (
"936 26 OFFCURVE",
"894 74 OFFCURVE",
"894 162 CURVE SMOOTH",
"894 246 OFFCURVE",
"932 291 OFFCURVE",
"990 291 CURVE SMOOTH",
"1051 291 OFFCURVE",
"1083 240 OFFCURVE",
"1083 162 CURVE SMOOTH",
"1083 73 OFFCURVE",
"1042 26 OFFCURVE",
"989 26 CURVE SMOOTH"
);
}
);
width = 1269;
}
);
unicode = 0D0C;
},
{
glyphname = "e-malayalam";
lastChange = "2015-09-17 15:21:37 +0000";
layers = (
{
annotations = (
{
position = "{251, 76}";
type = Circle;
width = 139.031;
}
);
layerId = "60CFBDE8-BC08-4808-BF41-F011F3E03A54";
name = Light;
paths = (
{
closed = 1;
nodes = (
"744 -177 OFFCURVE",
"795 -113 OFFCURVE",
"795 37 CURVE SMOOTH",
"795 515 LINE SMOOTH",
"795 527 OFFCURVE",
"787 537 OFFCURVE",
"775 537 CURVE SMOOTH",
"767 537 OFFCURVE",
"762 533 OFFCURVE",
"758 529 CURVE",
"767 515 OFFCURVE",
"765 483 OFFCURVE",
"765 476 CURVE SMOOTH",
"767 36 LINE SMOOTH",
"768 -96 OFFCURVE",
"727 -152 OFFCURVE",
"664 -152 CURVE SMOOTH",
"557 -152 OFFCURVE",
"520 10 OFFCURVE",
"520 196 CURVE SMOOTH",
"520 451 OFFCURVE",
"589 639 OFFCURVE",
"769 639 CURVE SMOOTH",
"965 639 OFFCURVE",
"1011 417 OFFCURVE",
"1011 253 CURVE SMOOTH",
"1011 62 OFFCURVE",
"948 -107 OFFCURVE",
"873 -148 CURVE",
"875 -157 OFFCURVE",
"883 -163 OFFCURVE",
"892 -163 CURVE SMOOTH",
"944 -163 OFFCURVE",
"1043 1 OFFCURVE",
"1043 253 CURVE SMOOTH",
"1043 477 OFFCURVE",
"965 667 OFFCURVE",
"770 667 CURVE SMOOTH",
"611 667 OFFCURVE",
"492 541 OFFCURVE",
"492 191 CURVE SMOOTH",
"492 -73 OFFCURVE",
"560 -177 OFFCURVE",
"663 -177 CURVE SMOOTH"
);
},
{
closed = 1;
nodes = (
"176 -3 OFFCURVE",
"179 2 OFFCURVE",
"179 17 CURVE",
"143 27 OFFCURVE",
"105 77 OFFCURVE",
"105 159 CURVE SMOOTH",
"105 247 OFFCURVE",
"149 310 OFFCURVE",
"227 310 CURVE SMOOTH",
"298 310 OFFCURVE",
"353 257 OFFCURVE",
"353 159 CURVE SMOOTH",
"353 78 OFFCURVE",
"315 25 OFFCURVE",
"256 25 CURVE",
"259 11 LINE",
"333 7 OFFCURVE",
"384 68 OFFCURVE",
"384 163 CURVE SMOOTH",
"384 270 OFFCURVE",
"319 338 OFFCURVE",
"228 338 CURVE SMOOTH",
"132 338 OFFCURVE",
"74 263 OFFCURVE",
"74 164 CURVE SMOOTH",
"74 75 OFFCURVE",
"121 -3 OFFCURVE",
"165 -3 CURVE SMOOTH"
);
},
{
closed = 1;
nodes = (
"784 0 LINE",
"784 25 LINE",
"255 25 LINE",
"255 0 LINE"
);
}
);
width = 1117;
},
{
layerId = "EBFFFCD3-BAE4-48A5-9442-B72A90AD34A8";
name = Bold;
paths = (
{
closed = 1;
nodes = (
"853 -197 OFFCURVE",
"943 -114 OFFCURVE",
"943 79 CURVE SMOOTH",
"943 500 LINE SMOOTH",
"943 542 OFFCURVE",
"922 566 OFFCURVE",
"868 566 CURVE SMOOTH",
"849 566 OFFCURVE",
"811 563 OFFCURVE",
"790 557 CURVE",
"797 539 OFFCURVE",
"797 511 OFFCURVE",
"797 491 CURVE SMOOTH",
"797 48 LINE SMOOTH",
"797 -93 OFFCURVE",
"757 -134 OFFCURVE",
"712 -134 CURVE SMOOTH",
"621 -134 OFFCURVE",
"588 36 OFFCURVE",
"588 193 CURVE SMOOTH",
"588 433 OFFCURVE",
"665 645 OFFCURVE",
"870 645 CURVE SMOOTH",
"1041 645 OFFCURVE",
"1123 499 OFFCURVE",
"1123 260 CURVE SMOOTH",
"1123 67 OFFCURVE",
"1070 -82 OFFCURVE",
"977 -131 CURVE",
"974 -160 OFFCURVE",
"987 -168 OFFCURVE",
"1006 -168 CURVE SMOOTH",
"1084 -168 OFFCURVE",
"1273 -41 OFFCURVE",
"1273 277 CURVE SMOOTH",
"1273 544 OFFCURVE",
"1140 706 OFFCURVE",
"908 706 CURVE SMOOTH",
"683 706 OFFCURVE",
"531 553 OFFCURVE",
"531 179 CURVE SMOOTH",
"531 -87 OFFCURVE",
"608 -197 OFFCURVE",
"739 -197 CURVE SMOOTH"
);
},
{
closed = 1;
nodes = (
"173 -3 OFFCURVE",
"176 12 OFFCURVE",
"176 31 CURVE",
"136 47 OFFCURVE",
"107 86 OFFCURVE",
"107 157 CURVE SMOOTH",
"107 236 OFFCURVE",
"143 285 OFFCURVE",
"202 285 CURVE SMOOTH",
"259 285 OFFCURVE",
"295 239 OFFCURVE",
"295 162 CURVE SMOOTH",
"295 94 OFFCURVE",
"267 48 OFFCURVE",
"227 48 CURVE",
"285 10 LINE",
"394 17 OFFCURVE",
"445 96 OFFCURVE",
"445 179 CURVE SMOOTH",
"445 277 OFFCURVE",
"373 338 OFFCURVE",
"252 338 CURVE SMOOTH",
"118 338 OFFCURVE",
"54 263 OFFCURVE",
"54 161 CURVE SMOOTH",
"54 78 OFFCURVE",
"96 -3 OFFCURVE",
"150 -3 CURVE SMOOTH"
);
},
{
closed = 1;
nodes = (
"844 0 LINE",
"844 48 LINE",
"226 48 LINE",
"226 0 LINE"
);
}
);
width = 1355;
},
{
associatedMasterId = "EBFFFCD3-BAE4-48A5-9442-B72A90AD34A8";
layerId = "BDDB908E-F503-4F42-B436-CE192E631E45";
name = "Bold Sep 17 15, 15:14";
paths = (
{
closed = 1;
nodes = (
"852 -197 OFFCURVE",
"943 -114 OFFCURVE",
"943 79 CURVE SMOOTH",
"943 500 LINE SMOOTH",
"943 542 OFFCURVE",
"922 566 OFFCURVE",
"867 566 CURVE SMOOTH",
"849 566 OFFCURVE",
"811 563 OFFCURVE",
"790 557 CURVE",
"797 539 OFFCURVE",
"797 511 OFFCURVE",
"797 491 CURVE SMOOTH",
"797 48 LINE SMOOTH",
"797 -99 OFFCURVE",
"757 -134 OFFCURVE",
"705 -134 CURVE SMOOTH",
"621 -134 OFFCURVE",
"591 27 OFFCURVE",
"588 212 CURVE SMOOTH",
"584 430 OFFCURVE",
"665 645 OFFCURVE",
"886 645 CURVE SMOOTH",
"1101 645 OFFCURVE",
"1123 411 OFFCURVE",
"1123 253 CURVE SMOOTH",
"1123 78 OFFCURVE",
"1073 -81 OFFCURVE",
"977 -131 CURVE",
"974 -155 OFFCURVE",
"985 -168 OFFCURVE",
"1002 -168 CURVE SMOOTH",
"1085 -168 OFFCURVE",
"1277 -39 OFFCURVE",
"1277 270 CURVE SMOOTH",
"1277 481 OFFCURVE",
"1190 706 OFFCURVE",
"914 706 CURVE SMOOTH",
"683 706 OFFCURVE",
"531 546 OFFCURVE",
"531 199 CURVE SMOOTH",
"531 -87 OFFCURVE",
"601 -197 OFFCURVE",
"741 -197 CURVE SMOOTH"
);
},
{
closed = 1;
nodes = (
"173 -3 OFFCURVE",
"176 12 OFFCURVE",
"176 31 CURVE",
"136 47 OFFCURVE",
"107 86 OFFCURVE",
"107 156 CURVE SMOOTH",
"107 235 OFFCURVE",
"143 285 OFFCURVE",
"201 285 CURVE SMOOTH",
"259 285 OFFCURVE",
"295 236 OFFCURVE",
"295 161 CURVE SMOOTH",
"295 94 OFFCURVE",
"267 48 OFFCURVE",
"227 48 CURVE",
"285 10 LINE",
"393 16 OFFCURVE",
"445 99 OFFCURVE",
"445 173 CURVE SMOOTH",
"445 280 OFFCURVE",
"350 338 OFFCURVE",
"252 338 CURVE SMOOTH",
"116 338 OFFCURVE",
"54 263 OFFCURVE",
"54 163 CURVE SMOOTH",
"54 76 OFFCURVE",
"96 -3 OFFCURVE",
"150 -3 CURVE SMOOTH"
);
},
{
closed = 1;
nodes = (
"844 0 LINE",
"844 48 LINE",
"226 48 LINE",
"226 0 LINE"
);
}
);
width = 1355;
},
{
associatedMasterId = "EBFFFCD3-BAE4-48A5-9442-B72A90AD34A8";
layerId = "52C24C7E-37B9-4F28-AF5F-65C654C17BF8";
name = "Bold Sep 17 15, 15:15";
paths = (
{
closed = 1;
nodes = (
"852 -197 OFFCURVE",
"943 -114 OFFCURVE",
"943 79 CURVE SMOOTH",
"943 500 LINE SMOOTH",
"943 542 OFFCURVE",
"922 566 OFFCURVE",
"867 566 CURVE SMOOTH",
"849 566 OFFCURVE",
"811 563 OFFCURVE",
"790 557 CURVE",
"797 539 OFFCURVE",
"797 511 OFFCURVE",
"797 491 CURVE SMOOTH",
"797 48 LINE SMOOTH",
"797 -99 OFFCURVE",
"757 -134 OFFCURVE",
"705 -134 CURVE SMOOTH",
"621 -134 OFFCURVE",
"591 27 OFFCURVE",
"588 212 CURVE SMOOTH",
"584 430 OFFCURVE",
"665 645 OFFCURVE",
"886 645 CURVE SMOOTH",
"1101 645 OFFCURVE",
"1123 411 OFFCURVE",
"1123 253 CURVE SMOOTH",
"1123 78 OFFCURVE",
"1073 -81 OFFCURVE",
"977 -131 CURVE",
"974 -155 OFFCURVE",
"985 -168 OFFCURVE",
"1002 -168 CURVE SMOOTH",
"1085 -168 OFFCURVE",
"1277 -39 OFFCURVE",
"1277 270 CURVE SMOOTH",
"1277 481 OFFCURVE",
"1190 706 OFFCURVE",
"914 706 CURVE SMOOTH",
"683 706 OFFCURVE",
"531 546 OFFCURVE",
"531 199 CURVE SMOOTH",
"531 -87 OFFCURVE",
"601 -197 OFFCURVE",
"741 -197 CURVE SMOOTH"
);
},
{
closed = 1;
nodes = (
"173 -3 OFFCURVE",
"176 12 OFFCURVE",
"176 31 CURVE",
"136 47 OFFCURVE",
"107 86 OFFCURVE",
"107 156 CURVE SMOOTH",
"107 235 OFFCURVE",
"143 285 OFFCURVE",
"201 285 CURVE SMOOTH",
"259 285 OFFCURVE",
"295 236 OFFCURVE",
"295 161 CURVE SMOOTH",
"295 94 OFFCURVE",
"267 48 OFFCURVE",
"227 48 CURVE",
"285 10 LINE",
"393 16 OFFCURVE",
"445 99 OFFCURVE",
"445 173 CURVE SMOOTH",
"445 280 OFFCURVE",
"350 338 OFFCURVE",
"252 338 CURVE SMOOTH",
"116 338 OFFCURVE",
"54 263 OFFCURVE",
"54 163 CURVE SMOOTH",
"54 76 OFFCURVE",
"96 -3 OFFCURVE",
"150 -3 CURVE SMOOTH"
);
},
{
closed = 1;
nodes = (
"844 0 LINE",
"844 48 LINE",
"226 48 LINE",
"226 0 LINE"
);
}
);
width = 1355;
},
{
associatedMasterId = "EBFFFCD3-BAE4-48A5-9442-B72A90AD34A8";
layerId = "175970A3-F90E-4DDB-90AD-3E86A4F63FB9";
name = "Bold Sep 17 15, 15:18";
paths = (
{
closed = 1;
nodes = (
"852 -197 OFFCURVE",
"943 -114 OFFCURVE",
"943 79 CURVE SMOOTH",
"943 500 LINE SMOOTH",
"943 542 OFFCURVE",
"922 566 OFFCURVE",
"867 566 CURVE SMOOTH",
"849 566 OFFCURVE",
"811 563 OFFCURVE",
"790 557 CURVE",
"797 539 OFFCURVE",
"797 511 OFFCURVE",
"797 491 CURVE SMOOTH",
"797 48 LINE SMOOTH",
"797 -99 OFFCURVE",
"757 -134 OFFCURVE",
"705 -134 CURVE SMOOTH",
"621 -134 OFFCURVE",
"591 27 OFFCURVE",
"588 212 CURVE SMOOTH",
"584 430 OFFCURVE",
"665 645 OFFCURVE",
"886 645 CURVE SMOOTH",
"1101 645 OFFCURVE",
"1123 411 OFFCURVE",
"1123 253 CURVE SMOOTH",
"1123 78 OFFCURVE",
"1073 -81 OFFCURVE",
"977 -131 CURVE",
"974 -155 OFFCURVE",
"985 -168 OFFCURVE",
"1002 -168 CURVE SMOOTH",
"1084 -168 OFFCURVE",
"1273 -39 OFFCURVE",
"1273 270 CURVE SMOOTH",
"1273 481 OFFCURVE",
"1187 706 OFFCURVE",
"914 706 CURVE SMOOTH",
"683 706 OFFCURVE",
"531 546 OFFCURVE",
"531 199 CURVE SMOOTH",
"531 -87 OFFCURVE",
"601 -197 OFFCURVE",
"741 -197 CURVE SMOOTH"
);
},
{
closed = 1;
nodes = (
"173 -3 OFFCURVE",
"176 12 OFFCURVE",
"176 31 CURVE",
"136 47 OFFCURVE",
"107 86 OFFCURVE",
"107 156 CURVE SMOOTH",
"107 235 OFFCURVE",
"143 285 OFFCURVE",
"201 285 CURVE SMOOTH",
"259 285 OFFCURVE",
"295 236 OFFCURVE",
"295 161 CURVE SMOOTH",
"295 94 OFFCURVE",
"267 48 OFFCURVE",
"227 48 CURVE",
"285 10 LINE",
"393 16 OFFCURVE",
"445 99 OFFCURVE",
"445 173 CURVE SMOOTH",
"445 280 OFFCURVE",
"350 338 OFFCURVE",
"252 338 CURVE SMOOTH",
"116 338 OFFCURVE",
"54 263 OFFCURVE",
"54 163 CURVE SMOOTH",
"54 76 OFFCURVE",
"96 -3 OFFCURVE",
"150 -3 CURVE SMOOTH"
);
},
{
closed = 1;
nodes = (
"844 0 LINE",
"844 48 LINE",
"226 48 LINE",
"226 0 LINE"
);
}
);
width = 1355;
},
{
associatedMasterId = "60CFBDE8-BC08-4808-BF41-F011F3E03A54";
layerId = "BD07EAB1-201B-436D-9C0B-307411B9E9D9";
name = "Light Sep 17 15, 16:21";
paths = (
{
closed = 1;
nodes = (
"744 -177 OFFCURVE",
"795 -113 OFFCURVE",
"795 37 CURVE SMOOTH",
"795 515 LINE SMOOTH",
"795 527 OFFCURVE",
"787 537 OFFCURVE",
"775 537 CURVE SMOOTH",
"767 537 OFFCURVE",
"762 533 OFFCURVE",
"758 529 CURVE",
"767 515 OFFCURVE",
"765 483 OFFCURVE",
"765 476 CURVE SMOOTH",
"767 36 LINE SMOOTH",
"768 -96 OFFCURVE",
"727 -152 OFFCURVE",
"664 -152 CURVE SMOOTH",
"557 -152 OFFCURVE",
"520 10 OFFCURVE",
"520 196 CURVE SMOOTH",
"520 451 OFFCURVE",
"589 639 OFFCURVE",
"769 639 CURVE SMOOTH",
"965 639 OFFCURVE",
"1011 417 OFFCURVE",
"1011 253 CURVE SMOOTH",
"1011 62 OFFCURVE",
"948 -107 OFFCURVE",
"873 -148 CURVE",
"875 -157 OFFCURVE",
"883 -163 OFFCURVE",
"892 -163 CURVE SMOOTH",
"944 -163 OFFCURVE",
"1043 1 OFFCURVE",
"1043 253 CURVE SMOOTH",
"1043 477 OFFCURVE",
"965 667 OFFCURVE",
"770 667 CURVE SMOOTH",
"611 667 OFFCURVE",
"492 541 OFFCURVE",
"492 191 CURVE SMOOTH",
"492 -73 OFFCURVE",
"560 -177 OFFCURVE",
"663 -177 CURVE SMOOTH"
);
},
{
closed = 1;
nodes = (
"176 -3 OFFCURVE",
"179 2 OFFCURVE",
"179 17 CURVE",
"143 27 OFFCURVE",
"105 77 OFFCURVE",
"105 159 CURVE SMOOTH",
"105 247 OFFCURVE",
"149 310 OFFCURVE",
"227 310 CURVE SMOOTH",
"298 310 OFFCURVE",
"353 257 OFFCURVE",
"353 159 CURVE SMOOTH",
"353 78 OFFCURVE",
"315 25 OFFCURVE",
"256 25 CURVE",
"259 11 LINE",
"333 7 OFFCURVE",
"384 68 OFFCURVE",
"384 163 CURVE SMOOTH",
"384 270 OFFCURVE",
"319 338 OFFCURVE",
"228 338 CURVE SMOOTH",
"132 338 OFFCURVE",
"74 263 OFFCURVE",
"74 164 CURVE SMOOTH",
"74 75 OFFCURVE",
"121 -3 OFFCURVE",
"165 -3 CURVE SMOOTH"
);
},
{
closed = 1;
nodes = (
"784 0 LINE",
"784 25 LINE",
"255 25 LINE",
"255 0 LINE"
);
}
);
width = 1117;
}
);
unicode = 0D0E;
},
{
glyphname = "ee-malayalam";
lastChange = "2015-09-17 14:20:26 +0000";
layers = (
{
layerId = "60CFBDE8-BC08-4808-BF41-F011F3E03A54";
name = Light;
paths = (
{
closed = 1;
nodes = (
"745 -177 OFFCURVE",
"795 -111 OFFCURVE",
"795 37 CURVE SMOOTH",
"795 515 LINE SMOOTH",
"795 527 OFFCURVE",
"787 537 OFFCURVE",
"775 537 CURVE SMOOTH",
"767 537 OFFCURVE",
"762 533 OFFCURVE",
"758 529 CURVE",
"767 515 OFFCURVE",
"765 483 OFFCURVE",
"765 476 CURVE SMOOTH",
"767 36 LINE SMOOTH",
"768 -98 OFFCURVE",
"726 -152 OFFCURVE",
"664 -152 CURVE SMOOTH",
"556 -152 OFFCURVE",
"520 12 OFFCURVE",
"520 198 CURVE SMOOTH",
"520 449 OFFCURVE",
"585 639 OFFCURVE",
"790 639 CURVE SMOOTH",
"914 639 OFFCURVE",
"1013 570 OFFCURVE",
"1013 437 CURVE SMOOTH",
"1013 346 OFFCURVE",
"967 265 OFFCURVE",
"893 265 CURVE SMOOTH",
"856 265 LINE",
"856 239 LINE",
"885 239 LINE SMOOTH",
"987 239 OFFCURVE",
"1029 156 OFFCURVE",
"1029 67 CURVE SMOOTH",
"1029 -54 OFFCURVE",
"952 -128 OFFCURVE",
"881 -152 CURVE",
"883 -161 OFFCURVE",
"890 -167 OFFCURVE",
"903 -167 CURVE SMOOTH",
"952 -167 OFFCURVE",
"1063 -74 OFFCURVE",
"1063 65 CURVE SMOOTH",
"1063 152 OFFCURVE",
"1019 242 OFFCURVE",
"942 253 CURVE",
"1003 272 OFFCURVE",
"1046 339 OFFCURVE",
"1046 436 CURVE SMOOTH",
"1046 597 OFFCURVE",
"927 667 OFFCURVE",
"791 667 CURVE SMOOTH",
"611 667 OFFCURVE",
"492 543 OFFCURVE",
"492 192 CURVE SMOOTH",
"492 -73 OFFCURVE",
"560 -177 OFFCURVE",
"663 -177 CURVE SMOOTH"
);
},
{
closed = 1;
nodes = (
"176 -3 OFFCURVE",
"179 2 OFFCURVE",
"179 17 CURVE",
"143 27 OFFCURVE",
"105 77 OFFCURVE",
"105 159 CURVE SMOOTH",
"105 247 OFFCURVE",
"149 310 OFFCURVE",
"227 310 CURVE SMOOTH",
"298 310 OFFCURVE",
"353 257 OFFCURVE",
"353 159 CURVE SMOOTH",
"353 78 OFFCURVE",
"315 25 OFFCURVE",
"256 25 CURVE",
"259 11 LINE",
"333 7 OFFCURVE",
"384 68 OFFCURVE",
"384 163 CURVE SMOOTH",
"384 270 OFFCURVE",
"319 338 OFFCURVE",
"228 338 CURVE SMOOTH",
"132 338 OFFCURVE",
"74 263 OFFCURVE",
"74 164 CURVE SMOOTH",
"74 75 OFFCURVE",
"121 -3 OFFCURVE",
"165 -3 CURVE SMOOTH"
);
},
{
closed = 1;
nodes = (
"784 0 LINE",
"784 25 LINE",
"255 25 LINE",
"255 0 LINE"
);
}
);
width = 1143;
},
{
layerId = "EBFFFCD3-BAE4-48A5-9442-B72A90AD34A8";
name = Bold;
paths = (
{
closed = 1;
nodes = (
"855 -197 OFFCURVE",
"943 -115 OFFCURVE",
"943 79 CURVE SMOOTH",
"943 500 LINE SMOOTH",
"943 542 OFFCURVE",
"922 566 OFFCURVE",
"867 566 CURVE SMOOTH",
"847 566 OFFCURVE",
"811 563 OFFCURVE",
"790 557 CURVE",
"797 539 OFFCURVE",
"797 511 OFFCURVE",
"797 491 CURVE SMOOTH",
"797 48 LINE SMOOTH",
"797 -93 OFFCURVE",
"757 -134 OFFCURVE",
"712 -134 CURVE SMOOTH",
"621 -134 OFFCURVE",
"588 34 OFFCURVE",
"588 198 CURVE SMOOTH",
"588 443 OFFCURVE",
"661 645 OFFCURVE",
"891 645 CURVE SMOOTH",
"1028 645 OFFCURVE",
"1111 573 OFFCURVE",
"1111 455 CURVE SMOOTH",
"1111 387 OFFCURVE",
"1084 293 OFFCURVE",
"1017 293 CURVE SMOOTH",
"997 293 LINE",
"997 245 LINE",
"1012 245 LINE SMOOTH",
"1084 245 OFFCURVE",
"1113 166 OFFCURVE",
"1113 92 CURVE SMOOTH",
"1113 -16 OFFCURVE",
"1052 -96 OFFCURVE",
"977 -131 CURVE",
"968 -161 OFFCURVE",
"983 -168 OFFCURVE",
"1015 -168 CURVE SMOOTH",
"1136 -168 OFFCURVE",
"1263 -69 OFFCURVE",
"1263 80 CURVE SMOOTH",
"1263 167 OFFCURVE",
"1220 239 OFFCURVE",
"1132 270 CURVE",
"1200 290 OFFCURVE",
"1261 365 OFFCURVE",
"1261 465 CURVE SMOOTH",
"1261 615 OFFCURVE",
"1126 706 OFFCURVE",
"929 706 CURVE SMOOTH",
"681 706 OFFCURVE",
"531 562 OFFCURVE",
"531 182 CURVE SMOOTH",
"531 -88 OFFCURVE",
"607 -197 OFFCURVE",
"740 -197 CURVE SMOOTH"
);
},
{
closed = 1;
nodes = (
"173 -3 OFFCURVE",
"176 12 OFFCURVE",
"176 31 CURVE",
"136 47 OFFCURVE",
"107 86 OFFCURVE",
"107 156 CURVE SMOOTH",
"107 235 OFFCURVE",
"143 285 OFFCURVE",
"201 285 CURVE SMOOTH",
"259 285 OFFCURVE",
"295 236 OFFCURVE",
"295 161 CURVE SMOOTH",
"295 94 OFFCURVE",
"267 48 OFFCURVE",
"227 48 CURVE",
"285 10 LINE",
"393 16 OFFCURVE",
"445 98 OFFCURVE",
"445 175 CURVE SMOOTH",
"445 275 OFFCURVE",
"359 338 OFFCURVE",
"244 338 CURVE SMOOTH",
"119 338 OFFCURVE",
"54 263 OFFCURVE",
"54 160 CURVE SMOOTH",
"54 78 OFFCURVE",
"96 -3 OFFCURVE",
"150 -3 CURVE SMOOTH"
);
},
{
closed = 1;
nodes = (
"850 0 LINE",
"850 48 LINE",
"226 48 LINE",
"226 0 LINE"
);
}
);
width = 1323;
},
{
associatedMasterId = "EBFFFCD3-BAE4-48A5-9442-B72A90AD34A8";
layerId = "8C6004D1-69FF-4F4B-A9B4-A957A6538CA4";
name = "Bold Sep 17 15, 15:19";
paths = (
{
closed = 1;
nodes = (
"855 -197 OFFCURVE",
"943 -115 OFFCURVE",
"943 79 CURVE SMOOTH",
"943 500 LINE SMOOTH",
"943 542 OFFCURVE",
"922 566 OFFCURVE",
"867 566 CURVE SMOOTH",
"847 566 OFFCURVE",
"811 563 OFFCURVE",
"790 557 CURVE",
"797 539 OFFCURVE",
"797 511 OFFCURVE",
"797 491 CURVE SMOOTH",
"797 48 LINE SMOOTH",
"797 -93 OFFCURVE",
"757 -134 OFFCURVE",
"712 -134 CURVE SMOOTH",
"621 -134 OFFCURVE",
"588 34 OFFCURVE",
"588 198 CURVE SMOOTH",
"588 443 OFFCURVE",
"662 645 OFFCURVE",
"889 645 CURVE SMOOTH",
"1034 645 OFFCURVE",
"1111 563 OFFCURVE",
"1111 453 CURVE SMOOTH",
"1111 388 OFFCURVE",
"1084 293 OFFCURVE",
"1017 293 CURVE SMOOTH",
"997 293 LINE",
"997 245 LINE",
"1012 245 LINE SMOOTH",
"1084 245 OFFCURVE",
"1113 166 OFFCURVE",
"1113 92 CURVE SMOOTH",
"1113 -16 OFFCURVE",
"1052 -96 OFFCURVE",
"977 -131 CURVE",
"970 -151 OFFCURVE",
"977 -168 OFFCURVE",
"1007 -168 CURVE SMOOTH",
"1068 -168 OFFCURVE",
"1268 -102 OFFCURVE",
"1268 76 CURVE SMOOTH",
"1268 176 OFFCURVE",
"1205 259 OFFCURVE",
"1132 270 CURVE",
"1198 289 OFFCURVE",
"1257 369 OFFCURVE",
"1257 461 CURVE SMOOTH",
"1257 598 OFFCURVE",
"1124 706 OFFCURVE",
"920 706 CURVE SMOOTH",
"681 706 OFFCURVE",
"531 557 OFFCURVE",
"531 181 CURVE SMOOTH",
"531 -87 OFFCURVE",
"607 -197 OFFCURVE",
"740 -197 CURVE SMOOTH"
);
},
{
closed = 1;
nodes = (
"173 -3 OFFCURVE",
"176 12 OFFCURVE",
"176 31 CURVE",
"136 47 OFFCURVE",
"107 86 OFFCURVE",
"107 156 CURVE SMOOTH",
"107 235 OFFCURVE",
"143 285 OFFCURVE",
"201 285 CURVE SMOOTH",
"259 285 OFFCURVE",
"295 236 OFFCURVE",
"295 161 CURVE SMOOTH",
"295 94 OFFCURVE",
"267 48 OFFCURVE",
"227 48 CURVE",
"285 10 LINE",
"393 16 OFFCURVE",
"445 98 OFFCURVE",
"445 175 CURVE SMOOTH",
"445 275 OFFCURVE",
"359 338 OFFCURVE",
"244 338 CURVE SMOOTH",
"119 338 OFFCURVE",
"54 263 OFFCURVE",
"54 160 CURVE SMOOTH",
"54 78 OFFCURVE",
"96 -3 OFFCURVE",
"150 -3 CURVE SMOOTH"
);
},
{
closed = 1;
nodes = (
"850 0 LINE",
"850 48 LINE",
"226 48 LINE",
"226 0 LINE"
);
}
);
width = 1323;
}
);
unicode = 0D0F;
},
{
glyphname = "ai-malayalam";
lastChange = "2015-09-21 14:42:32 +0000";
layers = (
{
components = (
{
name = "e-malayalam";
transform = "{1, 0, 0, 1, 650, 0}";
}
);
layerId = "60CFBDE8-BC08-4808-BF41-F011F3E03A54";
name = Light;
paths = (
{
closed = 1;
nodes = (
"370 -18 OFFCURVE",
"435 30 OFFCURVE",
"435 143 CURVE SMOOTH",
"435 243 OFFCURVE",
"384 298 OFFCURVE",
"312 298 CURVE SMOOTH",
"235 298 OFFCURVE",
"185 234 OFFCURVE",
"185 145 CURVE SMOOTH",
"185 100 OFFCURVE",
"198 36 OFFCURVE",
"251 9 CURVE",
"166 21 OFFCURVE",
"88 83 OFFCURVE",
"88 241 CURVE SMOOTH",
"88 459 OFFCURVE",
"238 519 OFFCURVE",
"359 519 CURVE SMOOTH",
"549 519 OFFCURVE",
"613 373 OFFCURVE",
"613 250 CURVE SMOOTH",
"613 181 OFFCURVE",
"593 51 OFFCURVE",
"479 2 CURVE",
"479 -9 OFFCURVE",
"491 -12 OFFCURVE",
"498 -12 CURVE SMOOTH",
"536 -12 OFFCURVE",
"644 73 OFFCURVE",
"644 250 CURVE SMOOTH",
"644 423 OFFCURVE",
"541 546 OFFCURVE",
"354 546 CURVE SMOOTH",
"193 546 OFFCURVE",
"60 455 OFFCURVE",
"60 241 CURVE SMOOTH",
"60 57 OFFCURVE",
"159 -18 OFFCURVE",
"276 -18 CURVE SMOOTH"
);
},
{
closed = 1;
nodes = (
"251 15 OFFCURVE",
"211 61 OFFCURVE",
"211 140 CURVE SMOOTH",
"211 212 OFFCURVE",
"244 269 OFFCURVE",
"310 269 CURVE SMOOTH",
"378 269 OFFCURVE",
"405 209 OFFCURVE",
"405 144 CURVE SMOOTH",
"405 66 OFFCURVE",
"365 15 OFFCURVE",
"307 15 CURVE SMOOTH"
);
}
);
width = 1753;
},
{
components = (
{
name = "e-malayalam";
transform = "{1, 0, 0, 1, 800, 0}";
}
);
layerId = "EBFFFCD3-BAE4-48A5-9442-B72A90AD34A8";
name = Bold;
paths = (
{
closed = 1;
nodes = (
"403 -18 OFFCURVE",
"464 67 OFFCURVE",
"464 165 CURVE SMOOTH",
"464 274 OFFCURVE",
"388 344 OFFCURVE",
"282 344 CURVE SMOOTH",
"167 344 OFFCURVE",
"121 263 OFFCURVE",
"121 189 CURVE SMOOTH",
"121 131 OFFCURVE",
"122 94 OFFCURVE",
"146 44 CURVE",
"124 112 OFFCURVE",
"123 173 OFFCURVE",
"123 193 CURVE SMOOTH",
"123 450 OFFCURVE",
"287 511 OFFCURVE",
"400 511 CURVE SMOOTH",
"515 511 OFFCURVE",
"630 448 OFFCURVE",
"630 254 CURVE SMOOTH",
"630 158 OFFCURVE",
"602 76 OFFCURVE",
"511 16 CURVE",
"511 -2 OFFCURVE",
"522 -8 OFFCURVE",
"552 -8 CURVE SMOOTH",
"707 -8 OFFCURVE",
"781 150 OFFCURVE",
"781 277 CURVE SMOOTH",
"781 446 OFFCURVE",
"652 566 OFFCURVE",
"432 566 CURVE SMOOTH",
"254 566 OFFCURVE",
"82 488 OFFCURVE",
"82 233 CURVE SMOOTH",
"82 55 OFFCURVE",
"166 -18 OFFCURVE",
"280 -18 CURVE SMOOTH"
);
},
{
closed = 1;
nodes = (
"205 26 OFFCURVE",
"161 73 OFFCURVE",
"161 161 CURVE SMOOTH",
"161 238 OFFCURVE",
"194 287 OFFCURVE",
"247 287 CURVE SMOOTH",
"300 287 OFFCURVE",
"330 237 OFFCURVE",
"330 156 CURVE SMOOTH",
"330 73 OFFCURVE",
"299 26 OFFCURVE",
"252 26 CURVE SMOOTH"
);
}
);
width = 2153;
},
{
associatedMasterId = "EBFFFCD3-BAE4-48A5-9442-B72A90AD34A8";
components = (
{
name = "e-malayalam";
transform = "{1, 0, 0, 1, 800, 0}";
}
);
layerId = "99F36B77-940A-48F6-B9CB-F309BAEF9AA1";
name = "Bold Sep 17 15, 15:20";
paths = (
{
closed = 1;
nodes = (
"403 -18 OFFCURVE",
"464 67 OFFCURVE",
"464 165 CURVE SMOOTH",
"464 274 OFFCURVE",
"388 344 OFFCURVE",
"282 344 CURVE SMOOTH",
"167 344 OFFCURVE",
"121 263 OFFCURVE",
"121 189 CURVE SMOOTH",
"121 131 OFFCURVE",
"122 94 OFFCURVE",
"146 44 CURVE",
"124 112 OFFCURVE",
"123 170 OFFCURVE",
"123 199 CURVE SMOOTH",
"123 447 OFFCURVE",
"287 511 OFFCURVE",
"403 511 CURVE SMOOTH",
"515 511 OFFCURVE",
"630 443 OFFCURVE",
"630 259 CURVE SMOOTH",
"630 166 OFFCURVE",
"609 81 OFFCURVE",
"511 16 CURVE",
"511 -2 OFFCURVE",
"522 -8 OFFCURVE",
"552 -8 CURVE SMOOTH",
"709 -8 OFFCURVE",
"784 150 OFFCURVE",
"784 277 CURVE SMOOTH",
"784 446 OFFCURVE",
"648 566 OFFCURVE",
"443 566 CURVE SMOOTH",
"252 566 OFFCURVE",
"82 488 OFFCURVE",
"82 238 CURVE SMOOTH",
"82 53 OFFCURVE",
"166 -18 OFFCURVE",
"279 -18 CURVE SMOOTH"
);
},
{
closed = 1;
nodes = (
"205 26 OFFCURVE",
"161 73 OFFCURVE",
"161 161 CURVE SMOOTH",
"161 238 OFFCURVE",
"194 287 OFFCURVE",
"247 287 CURVE SMOOTH",
"300 287 OFFCURVE",
"330 237 OFFCURVE",
"330 156 CURVE SMOOTH",
"330 73 OFFCURVE",
"299 26 OFFCURVE",
"252 26 CURVE SMOOTH"
);
}
);
width = 2153;
}
);
unicode = 0D10;
},
{
glyphname = "o-malayalam";
lastChange = "2015-09-21 14:42:32 +0000";
layers = (
{
layerId = "60CFBDE8-BC08-4808-BF41-F011F3E03A54";
name = Light;
paths = (
{
closed = 1;
nodes = (
"334 -18 OFFCURVE",
"400 30 OFFCURVE",
"400 143 CURVE SMOOTH",
"400 243 OFFCURVE",
"349 298 OFFCURVE",
"277 298 CURVE SMOOTH",
"200 298 OFFCURVE",
"150 233 OFFCURVE",
"150 146 CURVE SMOOTH",
"150 101 OFFCURVE",
"163 38 OFFCURVE",
"216 11 CURVE",
"142 22 OFFCURVE",
"73 74 OFFCURVE",
"73 231 CURVE SMOOTH",
"73 466 OFFCURVE",
"228 519 OFFCURVE",
"382 519 CURVE SMOOTH",
"502 519 OFFCURVE",
"648 487 OFFCURVE",
"648 379 CURVE SMOOTH",
"648 304 OFFCURVE",
"578 265 OFFCURVE",
"507 265 CURVE SMOOTH",
"480 265 LINE",
"480 239 LINE",
"507 239 LINE SMOOTH",
"617 239 OFFCURVE",
"663 189 OFFCURVE",
"663 120 CURVE SMOOTH",
"663 45 OFFCURVE",
"608 11 OFFCURVE",
"543 11 CURVE SMOOTH",
"506 11 OFFCURVE",
"483 22 OFFCURVE",
"466 38 CURVE",
"456 37 OFFCURVE",
"447 24 OFFCURVE",
"458 10 CURVE SMOOTH",
"474 -10 OFFCURVE",
"517 -17 OFFCURVE",
"548 -17 CURVE SMOOTH",
"639 -17 OFFCURVE",
"697 44 OFFCURVE",
"697 124 CURVE SMOOTH",
"697 206 OFFCURVE",
"635 249 OFFCURVE",
"556 253 CURVE",
"630 268 OFFCURVE",
"680 310 OFFCURVE",
"680 380 CURVE SMOOTH",
"680 505 OFFCURVE",
"520 546 OFFCURVE",
"380 546 CURVE SMOOTH",
"168 546 OFFCURVE",
"45 453 OFFCURVE",
"45 233 CURVE SMOOTH",
"45 45 OFFCURVE",
"135 -18 OFFCURVE",
"241 -18 CURVE SMOOTH"
);
},
{
closed = 1;
nodes = (
"216 15 OFFCURVE",
"176 61 OFFCURVE",
"176 140 CURVE SMOOTH",
"176 212 OFFCURVE",
"209 269 OFFCURVE",
"275 269 CURVE SMOOTH",
"343 269 OFFCURVE",
"370 209 OFFCURVE",
"370 144 CURVE SMOOTH",
"370 66 OFFCURVE",
"330 15 OFFCURVE",
"272 15 CURVE SMOOTH"
);
}
);
width = 722;
},
{
layerId = "EBFFFCD3-BAE4-48A5-9442-B72A90AD34A8";
name = Bold;
paths = (
{
closed = 1;
nodes = (
"402 -18 OFFCURVE",
"464 66 OFFCURVE",
"464 165 CURVE SMOOTH",
"464 274 OFFCURVE",
"388 344 OFFCURVE",
"282 344 CURVE",
"167 344 OFFCURVE",
"121 263 OFFCURVE",
"121 189 CURVE SMOOTH",
"121 131 OFFCURVE",
"122 94 OFFCURVE",
"146 44 CURVE",
"124 112 OFFCURVE",
"123 173 OFFCURVE",
"123 192 CURVE SMOOTH",
"123 458 OFFCURVE",
"314 516 OFFCURVE",
"452 516 CURVE SMOOTH",
"564 516 OFFCURVE",
"663 478 OFFCURVE",
"663 376 CURVE SMOOTH",
"663 312 OFFCURVE",
"624 283 OFFCURVE",
"580 283 CURVE SMOOTH",
"536 283 LINE",
"536 235 LINE",
"580 235 LINE SMOOTH",
"647 235 OFFCURVE",
"666 186 OFFCURVE",
"666 134 CURVE SMOOTH",
"666 68 OFFCURVE",
"635 31 OFFCURVE",
"583 31 CURVE SMOOTH",
"562 31 OFFCURVE",
"540 37 OFFCURVE",
"523 47 CURVE",
"511 36 OFFCURVE",
"506 13 OFFCURVE",
"523 -1 CURVE SMOOTH",
"545 -19 OFFCURVE",
"592 -17 OFFCURVE",
"611 -17 CURVE SMOOTH",
"719 -15 OFFCURVE",
"816 28 OFFCURVE",
"816 126 CURVE SMOOTH",
"816 202 OFFCURVE",
"758 255 OFFCURVE",
"669 260 CURVE",
"734 272 OFFCURVE",
"806 310 OFFCURVE",
"806 392 CURVE SMOOTH",
"806 520 OFFCURVE",
"628 566 OFFCURVE",
"468 566 CURVE SMOOTH",
"264 566 OFFCURVE",
"82 492 OFFCURVE",
"82 232 CURVE SMOOTH",
"82 56 OFFCURVE",
"166 -18 OFFCURVE",
"280 -18 CURVE SMOOTH"
);
},
{
closed = 1;
nodes = (
"205 26 OFFCURVE",
"161 73 OFFCURVE",
"161 161 CURVE SMOOTH",
"161 238 OFFCURVE",
"194 287 OFFCURVE",
"247 287 CURVE SMOOTH",
"300 287 OFFCURVE",
"330 237 OFFCURVE",
"330 156 CURVE SMOOTH",
"330 73 OFFCURVE",
"299 26 OFFCURVE",
"252 26 CURVE SMOOTH"
);
}
);
width = 866;
},
{
associatedMasterId = "EBFFFCD3-BAE4-48A5-9442-B72A90AD34A8";
layerId = "F5CAA2A4-7CDE-43A0-A7AE-42A9AB1B5E5C";
name = "Bold Sep 17 15, 15:21";
paths = (
{
closed = 1;
nodes = (
"403 -18 OFFCURVE",
"464 67 OFFCURVE",
"464 165 CURVE SMOOTH",
"464 274 OFFCURVE",
"388 344 OFFCURVE",
"282 344 CURVE",
"167 344 OFFCURVE",
"121 263 OFFCURVE",
"121 189 CURVE SMOOTH",
"121 131 OFFCURVE",
"122 94 OFFCURVE",
"146 44 CURVE",
"124 112 OFFCURVE",
"123 170 OFFCURVE",
"123 199 CURVE SMOOTH",
"123 452 OFFCURVE",
"314 516 OFFCURVE",
"449 516 CURVE SMOOTH",
"564 516 OFFCURVE",
"663 469 OFFCURVE",
"663 378 CURVE SMOOTH",
"663 320 OFFCURVE",
"624 283 OFFCURVE",
"580 283 CURVE SMOOTH",
"536 283 LINE",
"536 235 LINE",
"580 235 LINE SMOOTH",
"641 235 OFFCURVE",
"666 185 OFFCURVE",
"666 139 CURVE SMOOTH",
"666 76 OFFCURVE",
"635 31 OFFCURVE",
"582 31 CURVE SMOOTH",
"562 31 OFFCURVE",
"540 37 OFFCURVE",
"523 47 CURVE",
"511 36 OFFCURVE",
"506 14 OFFCURVE",
"523 -1 CURVE SMOOTH",
"545 -19 OFFCURVE",
"589 -17 OFFCURVE",
"611 -17 CURVE SMOOTH",
"714 -17 OFFCURVE",
"816 18 OFFCURVE",
"816 120 CURVE SMOOTH",
"816 190 OFFCURVE",
"756 256 OFFCURVE",
"669 260 CURVE",
"735 273 OFFCURVE",
"806 308 OFFCURVE",
"806 386 CURVE SMOOTH",
"806 509 OFFCURVE",
"627 566 OFFCURVE",
"459 566 CURVE SMOOTH",
"264 566 OFFCURVE",
"82 486 OFFCURVE",
"82 238 CURVE SMOOTH",
"82 53 OFFCURVE",
"166 -18 OFFCURVE",
"279 -18 CURVE SMOOTH"
);
},
{
closed = 1;
nodes = (
"205 26 OFFCURVE",
"161 73 OFFCURVE",
"161 161 CURVE SMOOTH",
"161 238 OFFCURVE",
"194 287 OFFCURVE",
"247 287 CURVE SMOOTH",
"300 287 OFFCURVE",
"330 237 OFFCURVE",
"330 156 CURVE SMOOTH",
"330 73 OFFCURVE",
"299 26 OFFCURVE",
"252 26 CURVE SMOOTH"
);
}
);
width = 866;
},
{
associatedMasterId = "60CFBDE8-BC08-4808-BF41-F011F3E03A54";
layerId = "6CA48DD0-4061-4178-BBBA-4572BB9C271A";
name = "Light Sep 17 15, 16:21";
paths = (
{
closed = 1;
nodes = (
"334 -18 OFFCURVE",
"400 30 OFFCURVE",
"400 143 CURVE SMOOTH",
"400 243 OFFCURVE",
"349 298 OFFCURVE",
"277 298 CURVE SMOOTH",
"200 298 OFFCURVE",
"150 233 OFFCURVE",
"150 146 CURVE SMOOTH",
"150 101 OFFCURVE",
"163 38 OFFCURVE",
"216 11 CURVE",
"142 22 OFFCURVE",
"73 74 OFFCURVE",
"73 231 CURVE SMOOTH",
"73 466 OFFCURVE",
"228 519 OFFCURVE",
"382 519 CURVE SMOOTH",
"502 519 OFFCURVE",
"648 487 OFFCURVE",
"648 379 CURVE SMOOTH",
"648 304 OFFCURVE",
"578 265 OFFCURVE",
"507 265 CURVE SMOOTH",
"480 265 LINE",
"480 239 LINE",
"507 239 LINE SMOOTH",
"617 239 OFFCURVE",
"663 189 OFFCURVE",
"663 126 CURVE SMOOTH",
"663 54 OFFCURVE",
"602 11 OFFCURVE",
"536 11 CURVE SMOOTH",
"509 11 OFFCURVE",
"488 18 OFFCURVE",
"466 38 CURVE",
"456 37 OFFCURVE",
"447 24 OFFCURVE",
"458 10 CURVE SMOOTH",
"474 -9 OFFCURVE",
"514 -17 OFFCURVE",
"545 -17 CURVE SMOOTH",
"639 -17 OFFCURVE",
"697 58 OFFCURVE",
"697 125 CURVE SMOOTH",
"697 192 OFFCURVE",
"640 249 OFFCURVE",
"556 253 CURVE",
"630 268 OFFCURVE",
"680 310 OFFCURVE",
"680 380 CURVE SMOOTH",
"680 505 OFFCURVE",
"520 546 OFFCURVE",
"380 546 CURVE SMOOTH",
"168 546 OFFCURVE",
"45 453 OFFCURVE",
"45 233 CURVE SMOOTH",
"45 45 OFFCURVE",
"135 -18 OFFCURVE",
"241 -18 CURVE SMOOTH"
);
},
{
closed = 1;
nodes = (
"216 15 OFFCURVE",
"176 61 OFFCURVE",
"176 140 CURVE SMOOTH",
"176 212 OFFCURVE",
"209 269 OFFCURVE",
"275 269 CURVE SMOOTH",
"343 269 OFFCURVE",
"370 209 OFFCURVE",
"370 144 CURVE SMOOTH",
"370 66 OFFCURVE",
"330 15 OFFCURVE",
"272 15 CURVE SMOOTH"
);
}
);
width = 722;
}
);
unicode = 0D12;
},
{
glyphname = "oo-malayalam";
lastChange = "2015-09-21 14:42:32 +0000";
layers = (
{
components = (
{
name = "o-malayalam";
}
);
layerId = "60CFBDE8-BC08-4808-BF41-F011F3E03A54";
name = Light;
paths = (
{
closed = 1;
nodes = (
"836 453 OFFCURVE",
"909 519 OFFCURVE",
"1022 519 CURVE SMOOTH",
"1152 519 OFFCURVE",
"1221 433 OFFCURVE",
"1221 269 CURVE SMOOTH",
"1221 104 OFFCURVE",
"1152 11 OFFCURVE",
"1023 11 CURVE SMOOTH",
"907 11 OFFCURVE",
"834 85 OFFCURVE",
"835 190 CURVE",
"806 189 LINE",
"806 65 OFFCURVE",
"891 -18 OFFCURVE",
"1023 -18 CURVE SMOOTH",
"1173 -18 OFFCURVE",
"1254 88 OFFCURVE",
"1254 268 CURVE SMOOTH",
"1254 450 OFFCURVE",
"1172 546 OFFCURVE",
"1026 546 CURVE SMOOTH",
"821 546 OFFCURVE",
"779 358 OFFCURVE",
"824 344 CURVE SMOOTH",
"835 340 LINE"
);
}
);
width = 1299;
},
{
components = (
{
name = "o-malayalam";
}
);
layerId = "EBFFFCD3-BAE4-48A5-9442-B72A90AD34A8";
name = Bold;
paths = (
{
closed = 1;
nodes = (
"957 456 OFFCURVE",
"1015 519 OFFCURVE",
"1101 519 CURVE SMOOTH",
"1210 519 OFFCURVE",
"1268 432 OFFCURVE",
"1268 271 CURVE SMOOTH",
"1268 116 OFFCURVE",
"1210 33 OFFCURVE",
"1101 33 CURVE SMOOTH",
"1012 33 OFFCURVE",
"955 88 OFFCURVE",
"956 190 CURVE",
"906 189 LINE",
"906 56 OFFCURVE",
"988 -15 OFFCURVE",
"1141 -15 CURVE SMOOTH",
"1324 -15 OFFCURVE",
"1423 86 OFFCURVE",
"1423 273 CURVE SMOOTH",
"1423 463 OFFCURVE",
"1324 566 OFFCURVE",
"1141 566 CURVE SMOOTH",
"987 566 OFFCURVE",
"905 487 OFFCURVE",
"906 339 CURVE SMOOTH",
"956 340 LINE"
);
}
);
width = 1438;
}
);
unicode = 0D13;
},
{
glyphname = "au-malayalam";
lastChange = "2015-09-21 14:42:32 +0000";
layers = (
{
components = (
{
name = "o-malayalam";
}
);
layerId = "60CFBDE8-BC08-4808-BF41-F011F3E03A54";
name = Light;
paths = (
{
closed = 1;
nodes = (
"1269 -12 OFFCURVE",
"1409 104 OFFCURVE",
"1409 326 CURVE SMOOTH",
"1409 476 OFFCURVE",
"1345 543 OFFCURVE",
"1239 543 CURVE SMOOTH",
"1148 543 OFFCURVE",
"1097 493 OFFCURVE",
"1078 433 CURVE",
"1058 509 OFFCURVE",
"1000 543 OFFCURVE",
"936 543 CURVE SMOOTH",
"838 543 OFFCURVE",
"779 462 OFFCURVE",
"779 348 CURVE SMOOTH",
"779 279 OFFCURVE",
"801 226 OFFCURVE",
"811 210 CURVE SMOOTH",
"816 202 OFFCURVE",
"822 197 OFFCURVE",
"833 197 CURVE SMOOTH",
"839 197 OFFCURVE",
"844 199 OFFCURVE",
"846 201 CURVE",
"825 243 OFFCURVE",
"809 281 OFFCURVE",
"809 344 CURVE SMOOTH",
"809 455 OFFCURVE",
"859 516 OFFCURVE",
"936 516 CURVE SMOOTH",
"1003 516 OFFCURVE",
"1061 470 OFFCURVE",
"1061 372 CURVE SMOOTH",
"1061 202 LINE",
"1090 202 LINE",
"1090 363 LINE SMOOTH",
"1090 461 OFFCURVE",
"1151 516 OFFCURVE",
"1237 516 CURVE SMOOTH",
"1307 516 OFFCURVE",
"1378 479 OFFCURVE",
"1378 327 CURVE SMOOTH",
"1378 136 OFFCURVE",
"1266 17 OFFCURVE",
"1114 17 CURVE SMOOTH",
"1037 17 OFFCURVE",
"969 47 OFFCURVE",
"924 128 CURVE",
"913 122 OFFCURVE",
"913 114 OFFCURVE",
"913 106 CURVE SMOOTH",
"913 62 OFFCURVE",
"997 -12 OFFCURVE",
"1118 -12 CURVE SMOOTH"
);
}
);
width = 1454;
},
{
components = (
{
name = "o-malayalam";
}
);
layerId = "EBFFFCD3-BAE4-48A5-9442-B72A90AD34A8";
name = Bold;
paths = (
{
closed = 1;
nodes = (
"1431 -15 OFFCURVE",
"1642 79 OFFCURVE",
"1642 343 CURVE SMOOTH",
"1642 476 OFFCURVE",
"1589 566 OFFCURVE",
"1449 566 CURVE SMOOTH",
"1344 566 OFFCURVE",
"1282 515 OFFCURVE",
"1256 409 CURVE",
"1237 526 OFFCURVE",
"1151 566 OFFCURVE",
"1072 566 CURVE SMOOTH",
"976 566 OFFCURVE",
"904 507 OFFCURVE",
"904 394 CURVE SMOOTH",
"904 333 OFFCURVE",
"925 240 OFFCURVE",
"951 207 CURVE SMOOTH",
"962 193 OFFCURVE",
"972 190 OFFCURVE",
"981 190 CURVE SMOOTH",
"999 190 OFFCURVE",
"1008 202 OFFCURVE",
"1010 207 CURVE",
"979 272 OFFCURVE",
"969 332 OFFCURVE",
"969 379 CURVE SMOOTH",
"969 465 OFFCURVE",
"1003 504 OFFCURVE",
"1055 504 CURVE SMOOTH",
"1128 504 OFFCURVE",
"1149 425 OFFCURVE",
"1149 324 CURVE SMOOTH",
"1149 207 LINE",
"1299 207 LINE",
"1299 330 LINE SMOOTH",
"1299 403 OFFCURVE",
"1320 499 OFFCURVE",
"1403 499 CURVE SMOOTH",
"1456 499 OFFCURVE",
"1492 460 OFFCURVE",
"1492 341 CURVE SMOOTH",
"1492 125 OFFCURVE",
"1372 50 OFFCURVE",
"1237 50 CURVE SMOOTH",
"1150 50 OFFCURVE",
"1089 82 OFFCURVE",
"1074 139 CURVE",
"1052 143 OFFCURVE",
"1045 119 OFFCURVE",
"1045 100 CURVE SMOOTH",
"1045 54 OFFCURVE",
"1090 -15 OFFCURVE",
"1247 -15 CURVE SMOOTH"
);
}
);
width = 1692;
},
{
associatedMasterId = "EBFFFCD3-BAE4-48A5-9442-B72A90AD34A8";
components = (
{
name = "o-malayalam";
}
);
layerId = "F4D9EDEC-DE37-4BCF-BD18-B5910F65F96C";
name = "Bold Sep 17 15, 15:22";
paths = (
{
closed = 1;
nodes = (
"1420 -15 OFFCURVE",
"1630 71 OFFCURVE",
"1630 337 CURVE SMOOTH",
"1630 471 OFFCURVE",
"1577 566 OFFCURVE",
"1432 566 CURVE SMOOTH",
"1325 566 OFFCURVE",
"1269 514 OFFCURVE",
"1244 409 CURVE",
"1225 527 OFFCURVE",
"1137 566 OFFCURVE",
"1061 566 CURVE SMOOTH",
"963 566 OFFCURVE",
"892 507 OFFCURVE",
"892 394 CURVE SMOOTH",
"892 336 OFFCURVE",
"911 245 OFFCURVE",
"939 207 CURVE SMOOTH",
"950 192 OFFCURVE",
"962 190 OFFCURVE",
"971 190 CURVE SMOOTH",
"986 190 OFFCURVE",
"997 203 OFFCURVE",
"998 207 CURVE",
"967 272 OFFCURVE",
"957 332 OFFCURVE",
"957 379 CURVE SMOOTH",
"957 464 OFFCURVE",
"990 504 OFFCURVE",
"1044 504 CURVE SMOOTH",
"1116 504 OFFCURVE",
"1137 424 OFFCURVE",
"1137 324 CURVE SMOOTH",
"1137 207 LINE",
"1287 207 LINE",
"1287 330 LINE SMOOTH",
"1287 403 OFFCURVE",
"1306 499 OFFCURVE",
"1395 499 CURVE SMOOTH",
"1452 499 OFFCURVE",
"1480 459 OFFCURVE",
"1480 360 CURVE SMOOTH",
"1480 155 OFFCURVE",
"1359 50 OFFCURVE",
"1217 50 CURVE SMOOTH",
"1139 50 OFFCURVE",
"1077 82 OFFCURVE",
"1062 139 CURVE",
"1040 143 OFFCURVE",
"1033 119 OFFCURVE",
"1033 100 CURVE SMOOTH",
"1033 54 OFFCURVE",
"1076 -15 OFFCURVE",
"1239 -15 CURVE SMOOTH"
);
}
);
width = 1710;
}
);
unicode = 0D14;
},
{
glyphname = "ka-malayalam";
lastChange = "2015-09-21 14:42:32 +0000";
layers = (
{
layerId = "60CFBDE8-BC08-4808-BF41-F011F3E03A54";
name = Light;
paths = (
{
closed = 1;
nodes = (
"627 -12 OFFCURVE",
"689 85 OFFCURVE",
"689 266 CURVE SMOOTH",
"689 448 OFFCURVE",
"627 546 OFFCURVE",
"511 546 CURVE SMOOTH",
"395 546 OFFCURVE",
"333 448 OFFCURVE",
"333 266 CURVE SMOOTH",
"333 85 OFFCURVE",
"395 -12 OFFCURVE",
"511 -12 CURVE SMOOTH"
);
},
{
closed = 1;
nodes = (
"414 15 OFFCURVE",
"361 103 OFFCURVE",
"361 266 CURVE SMOOTH",
"361 430 OFFCURVE",
"414 519 OFFCURVE",
"511 519 CURVE SMOOTH",
"607 519 OFFCURVE",
"659 430 OFFCURVE",
"659 266 CURVE SMOOTH",
"659 103 OFFCURVE",
"607 15 OFFCURVE",
"511 15 CURVE SMOOTH"
);
},
{
closed = 1;
nodes = (
"709 82 OFFCURVE",
"695 70 OFFCURVE",
"708 44 CURVE SMOOTH",
"723 14 OFFCURVE",
"762 -12 OFFCURVE",
"817 -12 CURVE SMOOTH",
"903 -12 OFFCURVE",
"963 51 OFFCURVE",
"963 145 CURVE SMOOTH",
"963 243 OFFCURVE",
"899 297 OFFCURVE",
"780 297 CURVE SMOOTH",
"233 297 LINE SMOOTH",
"117 297 OFFCURVE",
"50 242 OFFCURVE",
"50 146 CURVE SMOOTH",
"50 61 OFFCURVE",
"102 -12 OFFCURVE",
"208 -12 CURVE SMOOTH",
"285 -12 OFFCURVE",
"364 27 OFFCURVE",
"364 184 CURVE",
"339 184 LINE",
"339 47 OFFCURVE",
"273 16 OFFCURVE",
"209 16 CURVE SMOOTH",
"118 16 OFFCURVE",
"80 78 OFFCURVE",
"80 146 CURVE SMOOTH",
"80 227 OFFCURVE",
"133 269 OFFCURVE",
"233 269 CURVE SMOOTH",
"780 269 LINE SMOOTH",
"883 269 OFFCURVE",
"933 225 OFFCURVE",
"933 144 CURVE SMOOTH",
"933 67 OFFCURVE",
"887 16 OFFCURVE",
"816 16 CURVE SMOOTH",
"765 16 OFFCURVE",
"743 42 OFFCURVE",
"725 79 CURVE"
);
}
);
width = 1013;
},
{
associatedMasterId = "EBFFFCD3-BAE4-48A5-9442-B72A90AD34A8";
guideLines = (
{
position = "{290, 344}";
}
);
layerId = "F8C52D9A-6056-4618-9656-26302334716D";
name = "Bold Sep 10 15, 18:04";
paths = (
{
closed = 1;
nodes = (
"683 -12 OFFCURVE",
"766 85 OFFCURVE",
"766 266 CURVE SMOOTH",
"766 449 OFFCURVE",
"682 546 OFFCURVE",
"550 546 CURVE SMOOTH",
"421 546 OFFCURVE",
"363 448 OFFCURVE",
"363 266 CURVE SMOOTH",
"363 78 OFFCURVE",
"425 -12 OFFCURVE",
"550 -12 CURVE SMOOTH"
);
},
{
closed = 1;
nodes = (
"458 32 OFFCURVE",
"417 113 OFFCURVE",
"417 266 CURVE SMOOTH",
"417 420 OFFCURVE",
"458 502 OFFCURVE",
"523 502 CURVE SMOOTH",
"586 502 OFFCURVE",
"616 418 OFFCURVE",
"616 266 CURVE SMOOTH",
"616 115 OFFCURVE",
"586 32 OFFCURVE",
"523 32 CURVE SMOOTH"
);
},
{
closed = 1;
nodes = (
"767 115 OFFCURVE",
"748 78 OFFCURVE",
"767 41 CURVE SMOOTH",
"783 9 OFFCURVE",
"822 -12 OFFCURVE",
"884 -12 CURVE SMOOTH",
"996 -12 OFFCURVE",
"1091 55 OFFCURVE",
"1091 166 CURVE SMOOTH",
"1091 285 OFFCURVE",
"982 327 OFFCURVE",
"863 327 CURVE SMOOTH",
"303 327 LINE SMOOTH",
"147 327 OFFCURVE",
"50 265 OFFCURVE",
"50 156 CURVE SMOOTH",
"50 57 OFFCURVE",
"111 -12 OFFCURVE",
"249 -12 CURVE SMOOTH",
"334 -12 OFFCURVE",
"421 34 OFFCURVE",
"430 113 CURVE",
"363 300 LINE",
"363 184 OFFCURVE",
"309 55 OFFCURVE",
"210 55 CURVE SMOOTH",
"159 55 OFFCURVE",
"110 85 OFFCURVE",
"110 155 CURVE SMOOTH",
"110 253 OFFCURVE",
"185 283 OFFCURVE",
"313 283 CURVE SMOOTH",
"833 283 LINE SMOOTH",
"907 283 OFFCURVE",
"941 238 OFFCURVE",
"941 158 CURVE SMOOTH",
"941 98 OFFCURVE",
"922 32 OFFCURVE",
"868 32 CURVE SMOOTH",
"837 32 OFFCURVE",
"807 54 OFFCURVE",
"807 108 CURVE"
);
}
);
width = 1124;
},
{
guideLines = (
{
position = "{290, 344}";
}
);
layerId = "EBFFFCD3-BAE4-48A5-9442-B72A90AD34A8";
name = Bold;
paths = (
{
closed = 1;
nodes = (
"679 -12 OFFCURVE",
"759 85 OFFCURVE",
"759 266 CURVE SMOOTH",
"759 449 OFFCURVE",
"678 546 OFFCURVE",
"550 546 CURVE SMOOTH",
"421 546 OFFCURVE",
"363 448 OFFCURVE",
"363 266 CURVE SMOOTH",
"363 78 OFFCURVE",
"425 -12 OFFCURVE",
"550 -12 CURVE SMOOTH"
);
},
{
closed = 1;
nodes = (
"456 32 OFFCURVE",
"417 113 OFFCURVE",
"417 266 CURVE SMOOTH",
"417 420 OFFCURVE",
"456 502 OFFCURVE",
"518 502 CURVE SMOOTH",
"580 502 OFFCURVE",
"609 418 OFFCURVE",
"609 266 CURVE SMOOTH",
"609 115 OFFCURVE",
"580 32 OFFCURVE",
"518 32 CURVE SMOOTH"
);
},
{
closed = 1;
nodes = (
"760 115 OFFCURVE",
"741 78 OFFCURVE",
"760 41 CURVE SMOOTH",
"778 6 OFFCURVE",
"820 -12 OFFCURVE",
"876 -12 CURVE SMOOTH",
"990 -12 OFFCURVE",
"1084 63 OFFCURVE",
"1084 174 CURVE SMOOTH",
"1084 294 OFFCURVE",
"974 327 OFFCURVE",
"841 327 CURVE SMOOTH",
"263 327 LINE SMOOTH",
"122 327 OFFCURVE",
"40 267 OFFCURVE",
"40 161 CURVE SMOOTH",
"40 66 OFFCURVE",
"105 -12 OFFCURVE",
"241 -12 CURVE SMOOTH",
"344 -12 OFFCURVE",
"408 32 OFFCURVE",
"408 202 CURVE",
"363 266 LINE",
"363 89 OFFCURVE",
"330 32 OFFCURVE",
"268 32 CURVE SMOOTH",
"203 32 OFFCURVE",
"190 94 OFFCURVE",
"190 153 CURVE SMOOTH",
"190 243 OFFCURVE",
"221 283 OFFCURVE",
"313 283 CURVE SMOOTH",
"805 283 LINE SMOOTH",
"900 283 OFFCURVE",
"934 238 OFFCURVE",
"934 158 CURVE SMOOTH",
"934 98 OFFCURVE",
"915 32 OFFCURVE",
"861 32 CURVE SMOOTH",
"830 32 OFFCURVE",
"800 54 OFFCURVE",
"800 108 CURVE"
);
}
);
width = 1124;
},
{
associatedMasterId = "EBFFFCD3-BAE4-48A5-9442-B72A90AD34A8";
guideLines = (
{
position = "{290, 344}";
}
);
layerId = "AFDE7CF4-B450-4AF0-8C98-FFDDBECC2826";
name = "Bold Sep 17 15, 15:23";
paths = (
{
closed = 1;
nodes = (
"679 -12 OFFCURVE",
"759 85 OFFCURVE",
"759 266 CURVE SMOOTH",
"759 449 OFFCURVE",
"678 546 OFFCURVE",
"550 546 CURVE SMOOTH",
"421 546 OFFCURVE",
"363 448 OFFCURVE",
"363 266 CURVE SMOOTH",
"363 78 OFFCURVE",
"425 -12 OFFCURVE",
"550 -12 CURVE SMOOTH"
);
},
{
closed = 1;
nodes = (
"456 32 OFFCURVE",
"417 113 OFFCURVE",
"417 266 CURVE SMOOTH",
"417 420 OFFCURVE",
"456 502 OFFCURVE",
"518 502 CURVE SMOOTH",
"580 502 OFFCURVE",
"609 418 OFFCURVE",
"609 266 CURVE SMOOTH",
"609 115 OFFCURVE",
"580 32 OFFCURVE",
"518 32 CURVE SMOOTH"
);
},
{
closed = 1;
nodes = (
"760 115 OFFCURVE",
"741 77 OFFCURVE",
"760 41 CURVE SMOOTH",
"776 9 OFFCURVE",
"816 -12 OFFCURVE",
"875 -12 CURVE SMOOTH",
"989 -12 OFFCURVE",
"1084 56 OFFCURVE",
"1084 162 CURVE SMOOTH",
"1084 287 OFFCURVE",
"975 327 OFFCURVE",
"856 327 CURVE SMOOTH",
"263 327 LINE SMOOTH",
"122 327 OFFCURVE",
"40 267 OFFCURVE",
"40 161 CURVE SMOOTH",
"40 66 OFFCURVE",
"105 -12 OFFCURVE",
"241 -12 CURVE SMOOTH",
"344 -12 OFFCURVE",
"408 32 OFFCURVE",
"408 202 CURVE",
"363 266 LINE",
"363 88 OFFCURVE",
"330 32 OFFCURVE",
"267 32 CURVE SMOOTH",
"204 32 OFFCURVE",
"190 94 OFFCURVE",
"190 151 CURVE SMOOTH",
"190 243 OFFCURVE",
"230 283 OFFCURVE",
"313 283 CURVE SMOOTH",
"826 283 LINE SMOOTH",
"900 283 OFFCURVE",
"934 240 OFFCURVE",
"934 155 CURVE SMOOTH",
"934 99 OFFCURVE",
"913 32 OFFCURVE",
"864 32 CURVE SMOOTH",
"829 32 OFFCURVE",
"800 54 OFFCURVE",
"800 108 CURVE"
);
}
);
width = 1124;
},
{
associatedMasterId = "EBFFFCD3-BAE4-48A5-9442-B72A90AD34A8";
guideLines = (
{
position = "{290, 344}";
}
);
layerId = "CD8F5523-0452-4C54-A54D-81FDD6190821";
name = "Bold Sep 17 15, 15:23";
paths = (
{
closed = 1;
nodes = (
"679 -12 OFFCURVE",
"759 85 OFFCURVE",
"759 266 CURVE SMOOTH",
"759 449 OFFCURVE",
"678 546 OFFCURVE",
"550 546 CURVE SMOOTH",
"421 546 OFFCURVE",
"363 448 OFFCURVE",
"363 266 CURVE SMOOTH",
"363 78 OFFCURVE",
"425 -12 OFFCURVE",
"550 -12 CURVE SMOOTH"
);
},
{
closed = 1;
nodes = (
"456 32 OFFCURVE",
"417 113 OFFCURVE",
"417 266 CURVE SMOOTH",
"417 420 OFFCURVE",
"456 502 OFFCURVE",
"518 502 CURVE SMOOTH",
"580 502 OFFCURVE",
"609 418 OFFCURVE",
"609 266 CURVE SMOOTH",
"609 115 OFFCURVE",
"580 32 OFFCURVE",
"518 32 CURVE SMOOTH"
);
},
{
closed = 1;
nodes = (
"760 115 OFFCURVE",
"741 78 OFFCURVE",
"760 41 CURVE SMOOTH",
"776 9 OFFCURVE",
"815 -12 OFFCURVE",
"877 -12 CURVE SMOOTH",
"989 -12 OFFCURVE",
"1084 55 OFFCURVE",
"1084 166 CURVE SMOOTH",
"1084 285 OFFCURVE",
"975 327 OFFCURVE",
"856 327 CURVE SMOOTH",
"263 327 LINE SMOOTH",
"122 327 OFFCURVE",
"40 267 OFFCURVE",
"40 161 CURVE SMOOTH",
"40 66 OFFCURVE",
"105 -12 OFFCURVE",
"241 -12 CURVE SMOOTH",
"344 -12 OFFCURVE",
"408 32 OFFCURVE",
"408 202 CURVE",
"363 266 LINE",
"363 89 OFFCURVE",
"330 32 OFFCURVE",
"268 32 CURVE SMOOTH",
"204 32 OFFCURVE",
"190 93 OFFCURVE",
"190 149 CURVE SMOOTH",
"190 243 OFFCURVE",
"229 283 OFFCURVE",
"313 283 CURVE SMOOTH",
"826 283 LINE SMOOTH",
"900 283 OFFCURVE",
"934 238 OFFCURVE",
"934 158 CURVE SMOOTH",
"934 98 OFFCURVE",
"915 32 OFFCURVE",
"861 32 CURVE SMOOTH",
"830 32 OFFCURVE",
"800 54 OFFCURVE",
"800 108 CURVE"
);
}
);
width = 1124;
}
);
unicode = 0D15;
},
{
glyphname = "kha-malayalam";
lastChange = "2015-09-17 15:23:03 +0000";
layers = (
{
layerId = "60CFBDE8-BC08-4808-BF41-F011F3E03A54";
name = Light;
paths = (
{
closed = 1;
nodes = (
"336 -18 OFFCURVE",
"401 30 OFFCURVE",
"401 143 CURVE SMOOTH",
"401 243 OFFCURVE",
"351 298 OFFCURVE",
"280 298 CURVE SMOOTH",
"204 298 OFFCURVE",
"155 233 OFFCURVE",
"155 144 CURVE SMOOTH",
"155 102 OFFCURVE",
"166 38 OFFCURVE",
"210 11 CURVE",
"137 20 OFFCURVE",
"78 92 OFFCURVE",
"78 240 CURVE SMOOTH",
"78 456 OFFCURVE",
"203 519 OFFCURVE",
"329 519 CURVE SMOOTH",
"487 519 OFFCURVE",
"563 420 OFFCURVE",
"563 279 CURVE SMOOTH",
"563 139 OFFCURVE",
"489 56 OFFCURVE",
"449 14 CURVE",
"449 0 LINE",
"810 0 LINE",
"810 515 LINE SMOOTH",
"810 527 OFFCURVE",
"802 537 OFFCURVE",
"790 537 CURVE SMOOTH",
"782 537 OFFCURVE",
"777 533 OFFCURVE",
"773 529 CURVE",
"782 515 OFFCURVE",
"780 483 OFFCURVE",
"780 476 CURVE SMOOTH",
"780 26 LINE",
"500 26 LINE",
"551 91 OFFCURVE",
"594 173 OFFCURVE",
"594 282 CURVE SMOOTH",
"594 431 OFFCURVE",
"513 546 OFFCURVE",
"331 546 CURVE SMOOTH",
"161 546 OFFCURVE",
"50 446 OFFCURVE",
"50 239 CURVE SMOOTH",
"50 55 OFFCURVE",
"137 -18 OFFCURVE",
"247 -18 CURVE SMOOTH"
);
},
{
closed = 1;
nodes = (
"220 15 OFFCURVE",
"181 61 OFFCURVE",
"181 140 CURVE SMOOTH",
"181 212 OFFCURVE",
"213 269 OFFCURVE",
"278 269 CURVE SMOOTH",
"344 269 OFFCURVE",
"371 209 OFFCURVE",
"371 144 CURVE SMOOTH",
"371 66 OFFCURVE",
"332 15 OFFCURVE",
"275 15 CURVE SMOOTH"
);
}
);
width = 880;
},
{
layerId = "EBFFFCD3-BAE4-48A5-9442-B72A90AD34A8";
name = Bold;
paths = (
{
closed = 1;
nodes = (
"393 -18 OFFCURVE",
"494 24 OFFCURVE",
"494 144 CURVE SMOOTH",
"494 231 OFFCURVE",
"441 304 OFFCURVE",
"325 304 CURVE SMOOTH",
"224 304 OFFCURVE",
"173 249 OFFCURVE",
"173 145 CURVE SMOOTH",
"173 107 OFFCURVE",
"180 65 OFFCURVE",
"212 28 CURVE",
"154 42 OFFCURVE",
"103 96 OFFCURVE",
"103 244 CURVE SMOOTH",
"103 440 OFFCURVE",
"213 517 OFFCURVE",
"389 517 CURVE SMOOTH",
"548 517 OFFCURVE",
"607 413 OFFCURVE",
"607 276 CURVE SMOOTH",
"607 167 OFFCURVE",
"570 77 OFFCURVE",
"497 37 CURVE",
"497 0 LINE",
"1042 0 LINE",
"1042 500 LINE SMOOTH",
"1042 542 OFFCURVE",
"1021 566 OFFCURVE",
"966 566 CURVE SMOOTH",
"946 566 OFFCURVE",
"910 563 OFFCURVE",
"889 557 CURVE",
"896 539 OFFCURVE",
"896 511 OFFCURVE",
"896 491 CURVE SMOOTH",
"896 48 LINE",
"674 48 LINE",
"724 92 OFFCURVE",
"757 165 OFFCURVE",
"757 269 CURVE SMOOTH",
"757 476 OFFCURVE",
"626 566 OFFCURVE",
"406 566 CURVE SMOOTH",
"178 566 OFFCURVE",
"39 456 OFFCURVE",
"39 254 CURVE SMOOTH",
"39 40 OFFCURVE",
"152 -18 OFFCURVE",
"282 -18 CURVE SMOOTH"
);
},
{
closed = 1;
nodes = (
"245 28 OFFCURVE",
"225 67 OFFCURVE",
"225 133 CURVE SMOOTH",
"225 201 OFFCURVE",
"246 247 OFFCURVE",
"287 247 CURVE SMOOTH",
"330 247 OFFCURVE",
"344 198 OFFCURVE",
"344 138 CURVE SMOOTH",
"344 60 OFFCURVE",
"321 28 OFFCURVE",
"285 28 CURVE SMOOTH"
);
}
);
width = 1082;
},
{
associatedMasterId = "EBFFFCD3-BAE4-48A5-9442-B72A90AD34A8";
layerId = "B97E1E36-A636-4517-AEE8-1616EBD72F7A";
name = "Bold Sep 17 15, 15:26";
paths = (
{
closed = 1;
nodes = (
"393 -18 OFFCURVE",
"494 24 OFFCURVE",
"494 144 CURVE SMOOTH",
"494 231 OFFCURVE",
"441 304 OFFCURVE",
"325 304 CURVE SMOOTH",
"224 304 OFFCURVE",
"173 249 OFFCURVE",
"173 145 CURVE SMOOTH",
"173 107 OFFCURVE",
"180 65 OFFCURVE",
"212 28 CURVE",
"154 42 OFFCURVE",
"103 96 OFFCURVE",
"103 235 CURVE SMOOTH",
"103 440 OFFCURVE",
"213 517 OFFCURVE",
"368 517 CURVE SMOOTH",
"548 517 OFFCURVE",
"607 413 OFFCURVE",
"607 276 CURVE SMOOTH",
"607 167 OFFCURVE",
"570 77 OFFCURVE",
"497 37 CURVE",
"497 0 LINE",
"1042 0 LINE",
"1042 500 LINE SMOOTH",
"1042 542 OFFCURVE",
"1021 566 OFFCURVE",
"966 566 CURVE SMOOTH",
"946 566 OFFCURVE",
"910 563 OFFCURVE",
"889 557 CURVE",
"896 539 OFFCURVE",
"896 511 OFFCURVE",
"896 491 CURVE SMOOTH",
"896 48 LINE",
"674 48 LINE",
"724 92 OFFCURVE",
"757 165 OFFCURVE",
"757 269 CURVE SMOOTH",
"757 476 OFFCURVE",
"626 566 OFFCURVE",
"393 566 CURVE SMOOTH",
"178 566 OFFCURVE",
"39 470 OFFCURVE",
"39 244 CURVE SMOOTH",
"39 40 OFFCURVE",
"152 -18 OFFCURVE",
"282 -18 CURVE SMOOTH"
);
},
{
closed = 1;
nodes = (
"245 28 OFFCURVE",
"225 67 OFFCURVE",
"225 133 CURVE SMOOTH",
"225 201 OFFCURVE",
"246 247 OFFCURVE",
"287 247 CURVE SMOOTH",
"330 247 OFFCURVE",
"344 198 OFFCURVE",
"344 138 CURVE SMOOTH",
"344 60 OFFCURVE",
"321 28 OFFCURVE",
"285 28 CURVE SMOOTH"
);
}
);
width = 1082;
},
{
associatedMasterId = "60CFBDE8-BC08-4808-BF41-F011F3E03A54";
layerId = "BE2A56EA-A62F-4057-B228-C85AC642834D";
name = "Light Sep 17 15, 16:23";
paths = (
{
closed = 1;
nodes = (
"336 -18 OFFCURVE",
"401 30 OFFCURVE",
"401 143 CURVE SMOOTH",
"401 243 OFFCURVE",
"351 298 OFFCURVE",
"280 298 CURVE SMOOTH",
"204 298 OFFCURVE",
"155 233 OFFCURVE",
"155 144 CURVE SMOOTH",
"155 102 OFFCURVE",
"166 38 OFFCURVE",
"210 11 CURVE",
"137 20 OFFCURVE",
"78 92 OFFCURVE",
"78 240 CURVE SMOOTH",
"78 456 OFFCURVE",
"203 519 OFFCURVE",
"329 519 CURVE SMOOTH",
"487 519 OFFCURVE",
"563 420 OFFCURVE",
"563 279 CURVE SMOOTH",
"563 139 OFFCURVE",
"489 56 OFFCURVE",
"449 14 CURVE",
"449 0 LINE",
"810 0 LINE",
"810 515 LINE SMOOTH",
"810 527 OFFCURVE",
"802 537 OFFCURVE",
"790 537 CURVE SMOOTH",
"782 537 OFFCURVE",
"777 533 OFFCURVE",
"773 529 CURVE",
"782 515 OFFCURVE",
"780 483 OFFCURVE",
"780 476 CURVE SMOOTH",
"780 26 LINE",
"500 26 LINE",
"552 91 OFFCURVE",
"595 173 OFFCURVE",
"595 282 CURVE SMOOTH",
"595 431 OFFCURVE",
"514 546 OFFCURVE",
"331 546 CURVE SMOOTH",
"161 546 OFFCURVE",
"50 446 OFFCURVE",
"50 239 CURVE SMOOTH",
"50 55 OFFCURVE",
"137 -18 OFFCURVE",
"247 -18 CURVE SMOOTH"
);
},
{
closed = 1;
nodes = (
"220 15 OFFCURVE",
"181 61 OFFCURVE",
"181 140 CURVE SMOOTH",
"181 212 OFFCURVE",
"213 269 OFFCURVE",
"278 269 CURVE SMOOTH",
"344 269 OFFCURVE",
"371 209 OFFCURVE",
"371 144 CURVE SMOOTH",
"371 66 OFFCURVE",
"332 15 OFFCURVE",
"275 15 CURVE SMOOTH"
);
}
);
width = 880;
}
);
unicode = 0D16;
},
{
glyphname = "ga-malayalam";
lastChange = "2015-09-17 14:27:33 +0000";
layers = (
{
layerId = "60CFBDE8-BC08-4808-BF41-F011F3E03A54";
name = Light;
paths = (
{
closed = 1;
nodes = (
"426 398 OFFCURVE",
"442 517 OFFCURVE",
"559 517 CURVE SMOOTH",
"668 517 OFFCURVE",
"712 415 OFFCURVE",
"712 282 CURVE SMOOTH",
"712 147 OFFCURVE",
"666 42 OFFCURVE",
"532 19 CURVE",
"526 10 OFFCURVE",
"522 -7 OFFCURVE",
"550 -7 CURVE SMOOTH",
"606 -7 OFFCURVE",
"742 58 OFFCURVE",
"742 285 CURVE SMOOTH",
"742 429 OFFCURVE",
"687 545 OFFCURVE",
"559 545 CURVE SMOOTH",
"421 545 OFFCURVE",
"398 412 OFFCURVE",
"374 264 CURVE SMOOTH",
"352 128 OFFCURVE",
"333 16 OFFCURVE",
"220 16 CURVE SMOOTH",
"113 16 OFFCURVE",
"70 115 OFFCURVE",
"70 247 CURVE SMOOTH",
"70 375 OFFCURVE",
"111 491 OFFCURVE",
"250 515 CURVE",
"260 527 OFFCURVE",
"260 539 OFFCURVE",
"235 539 CURVE SMOOTH",
"176 539 OFFCURVE",
"40 473 OFFCURVE",
"40 244 CURVE SMOOTH",
"40 99 OFFCURVE",
"94 -12 OFFCURVE",
"220 -12 CURVE SMOOTH",
"356 -12 OFFCURVE",
"380 116 OFFCURVE",
"404 264 CURVE SMOOTH"
);
}
);
width = 782;
},
{
layerId = "EBFFFCD3-BAE4-48A5-9442-B72A90AD34A8";
name = Bold;
paths = (
{
closed = 1;
nodes = (
"538 452 OFFCURVE",
"560 518 OFFCURVE",
"632 518 CURVE SMOOTH",
"721 518 OFFCURVE",
"756 421 OFFCURVE",
"756 301 CURVE SMOOTH",
"756 176 OFFCURVE",
"721 73 OFFCURVE",
"596 50 CURVE",
"579 39 OFFCURVE",
"567 -12 OFFCURVE",
"616 -12 CURVE SMOOTH",
"674 -12 OFFCURVE",
"820 57 OFFCURVE",
"820 302 CURVE SMOOTH",
"820 449 OFFCURVE",
"764 566 OFFCURVE",
"599 566 CURVE SMOOTH",
"411 566 OFFCURVE",
"380 417 OFFCURVE",
"355 279 CURVE SMOOTH",
"330 149 OFFCURVE",
"331 33 OFFCURVE",
"237 33 CURVE SMOOTH",
"148 33 OFFCURVE",
"114 132 OFFCURVE",
"114 252 CURVE SMOOTH",
"114 380 OFFCURVE",
"149 480 OFFCURVE",
"282 504 CURVE",
"307 533 OFFCURVE",
"304 566 OFFCURVE",
"259 566 CURVE SMOOTH",
"195 566 OFFCURVE",
"50 500 OFFCURVE",
"50 251 CURVE SMOOTH",
"50 105 OFFCURVE",
"102 -15 OFFCURVE",
"273 -15 CURVE SMOOTH",
"469 -15 OFFCURVE",
"490 140 OFFCURVE",
"511 279 CURVE SMOOTH"
);
}
);
width = 870;
},
{
associatedMasterId = "EBFFFCD3-BAE4-48A5-9442-B72A90AD34A8";
layerId = "61AF04A7-922A-4BD3-8D3D-7E27706B2409";
name = "Bold Sep 17 15, 15:27";
paths = (
{
closed = 1;
nodes = (
"538 452 OFFCURVE",
"560 518 OFFCURVE",
"632 518 CURVE SMOOTH",
"721 518 OFFCURVE",
"756 421 OFFCURVE",
"756 301 CURVE SMOOTH",
"756 176 OFFCURVE",
"721 73 OFFCURVE",
"596 50 CURVE",
"579 39 OFFCURVE",
"567 -12 OFFCURVE",
"616 -12 CURVE SMOOTH",
"674 -12 OFFCURVE",
"820 57 OFFCURVE",
"820 302 CURVE SMOOTH",
"820 449 OFFCURVE",
"764 566 OFFCURVE",
"599 566 CURVE SMOOTH",
"411 566 OFFCURVE",
"380 417 OFFCURVE",
"355 279 CURVE SMOOTH",
"330 149 OFFCURVE",
"331 33 OFFCURVE",
"237 33 CURVE SMOOTH",
"148 33 OFFCURVE",
"114 132 OFFCURVE",
"114 252 CURVE SMOOTH",
"114 380 OFFCURVE",
"149 480 OFFCURVE",
"282 504 CURVE",
"307 533 OFFCURVE",
"304 566 OFFCURVE",
"259 566 CURVE SMOOTH",
"195 566 OFFCURVE",
"50 500 OFFCURVE",
"50 251 CURVE SMOOTH",
"50 105 OFFCURVE",
"102 -15 OFFCURVE",
"273 -15 CURVE SMOOTH",
"469 -15 OFFCURVE",
"490 140 OFFCURVE",
"511 279 CURVE SMOOTH"
);
}
);
width = 870;
}
);
unicode = 0D17;
},
{
glyphname = "gha-malayalam";
lastChange = "2015-09-17 15:23:31 +0000";
layers = (
{
annotations = (
{
position = "{235, 267}";
type = Circle;
width = 78.2617;
}
);
layerId = "60CFBDE8-BC08-4808-BF41-F011F3E03A54";
name = Light;
paths = (
{
closed = 1;
nodes = (
"1058 0 LINE",
"1058 515 LINE SMOOTH",
"1057 527 OFFCURVE",
"1049 537 OFFCURVE",
"1037 537 CURVE SMOOTH",
"1029 537 OFFCURVE",
"1024 533 OFFCURVE",
"1020 529 CURVE",
"1029 515 OFFCURVE",
"1027 483 OFFCURVE",
"1027 476 CURVE SMOOTH",
"1029 28 LINE",
"544 28 LINE",
"544 223 LINE SMOOTH",
"544 332 OFFCURVE",
"519 518 OFFCURVE",
"695 518 CURVE SMOOTH",
"864 518 OFFCURVE",
"849 347 OFFCURVE",
"849 226 CURVE",
"879 233 LINE",
"879 343 OFFCURVE",
"897 546 OFFCURVE",
"697 546 CURVE SMOOTH",
"484 546 OFFCURVE",
"517 316 OFFCURVE",
"517 223 CURVE SMOOTH",
"517 0 LINE"
);
},
{
closed = 1;
nodes = (
"176 205 OFFCURVE",
"179 210 OFFCURVE",
"179 225 CURVE",
"143 235 OFFCURVE",
"105 285 OFFCURVE",
"105 367 CURVE SMOOTH",
"105 455 OFFCURVE",
"149 518 OFFCURVE",
"227 518 CURVE SMOOTH",
"298 518 OFFCURVE",
"353 465 OFFCURVE",
"353 367 CURVE SMOOTH",
"353 286 OFFCURVE",
"315 233 OFFCURVE",
"256 233 CURVE",
"259 219 LINE",
"333 215 OFFCURVE",
"384 276 OFFCURVE",
"384 371 CURVE SMOOTH",
"384 478 OFFCURVE",
"319 546 OFFCURVE",
"228 546 CURVE SMOOTH",
"132 546 OFFCURVE",
"74 471 OFFCURVE",
"74 372 CURVE SMOOTH",
"74 283 OFFCURVE",
"121 205 OFFCURVE",
"165 205 CURVE SMOOTH"
);
},
{
closed = 1;
nodes = (
"879 208 LINE",
"879 233 LINE",
"255 233 LINE",
"255 208 LINE"
);
}
);
width = 1150;
},
{
layerId = "EBFFFCD3-BAE4-48A5-9442-B72A90AD34A8";
name = Bold;
paths = (
{
closed = 1;
nodes = (
"1264 0 LINE",
"1264 500 LINE SMOOTH",
"1264 542 OFFCURVE",
"1243 566 OFFCURVE",
"1188 566 CURVE SMOOTH",
"1168 566 OFFCURVE",
"1132 563 OFFCURVE",
"1111 557 CURVE",
"1118 539 OFFCURVE",
"1118 511 OFFCURVE",
"1118 491 CURVE SMOOTH",
"1118 48 LINE",
"694 48 LINE",
"694 320 LINE SMOOTH",
"694 449 OFFCURVE",
"726 507 OFFCURVE",
"824 507 CURVE SMOOTH",
"947 507 OFFCURVE",
"955 415 OFFCURVE",
"955 274 CURVE",
"1005 274 LINE",
"1005 386 OFFCURVE",
"1023 566 OFFCURVE",
"795 566 CURVE SMOOTH",
"576 566 OFFCURVE",
"548 400 OFFCURVE",
"548 333 CURVE SMOOTH",
"548 0 LINE"
);
},
{
closed = 1;
nodes = (
"173 226 OFFCURVE",
"176 241 OFFCURVE",
"176 260 CURVE",
"134 277 OFFCURVE",
"107 317 OFFCURVE",
"107 386 CURVE SMOOTH",
"107 464 OFFCURVE",
"142 514 OFFCURVE",
"203 514 CURVE SMOOTH",
"263 514 OFFCURVE",
"295 466 OFFCURVE",
"295 392 CURVE SMOOTH",
"295 322 OFFCURVE",
"267 277 OFFCURVE",
"227 274 CURVE",
"285 239 LINE",
"395 246 OFFCURVE",
"445 326 OFFCURVE",
"445 408 CURVE SMOOTH",
"445 509 OFFCURVE",
"370 566 OFFCURVE",
"253 567 CURVE SMOOTH",
"119 568 OFFCURVE",
"54 492 OFFCURVE",
"54 389 CURVE SMOOTH",
"54 307 OFFCURVE",
"96 226 OFFCURVE",
"150 226 CURVE SMOOTH"
);
},
{
closed = 1;
nodes = (
"1005 227 LINE",
"1005 274 LINE",
"226 274 LINE",
"226 227 LINE"
);
}
);
width = 1320;
},
{
associatedMasterId = "EBFFFCD3-BAE4-48A5-9442-B72A90AD34A8";
layerId = "E9207BAC-2D1D-4FB7-AF45-CBC6EC5532E5";
name = "Bold Sep 17 15, 15:27";
paths = (
{
closed = 1;
nodes = (
"1264 0 LINE",
"1264 500 LINE SMOOTH",
"1264 542 OFFCURVE",
"1243 566 OFFCURVE",
"1188 566 CURVE SMOOTH",
"1168 566 OFFCURVE",
"1132 563 OFFCURVE",
"1111 557 CURVE",
"1118 539 OFFCURVE",
"1118 511 OFFCURVE",
"1118 491 CURVE SMOOTH",
"1118 48 LINE",
"694 48 LINE",
"694 320 LINE SMOOTH",
"694 450 OFFCURVE",
"726 507 OFFCURVE",
"825 507 CURVE SMOOTH",
"947 507 OFFCURVE",
"955 414 OFFCURVE",
"955 274 CURVE",
"1005 274 LINE",
"1005 390 OFFCURVE",
"1022 566 OFFCURVE",
"794 566 CURVE SMOOTH",
"577 566 OFFCURVE",
"548 400 OFFCURVE",
"548 333 CURVE SMOOTH",
"548 0 LINE"
);
},
{
closed = 1;
nodes = (
"173 226 OFFCURVE",
"176 241 OFFCURVE",
"176 260 CURVE",
"136 276 OFFCURVE",
"107 315 OFFCURVE",
"107 385 CURVE SMOOTH",
"107 464 OFFCURVE",
"143 514 OFFCURVE",
"201 514 CURVE SMOOTH",
"259 514 OFFCURVE",
"295 465 OFFCURVE",
"295 390 CURVE SMOOTH",
"295 323 OFFCURVE",
"267 277 OFFCURVE",
"227 274 CURVE",
"285 239 LINE",
"393 245 OFFCURVE",
"445 327 OFFCURVE",
"445 404 CURVE SMOOTH",
"445 504 OFFCURVE",
"359 567 OFFCURVE",
"244 567 CURVE SMOOTH",
"119 567 OFFCURVE",
"54 492 OFFCURVE",
"54 389 CURVE SMOOTH",
"54 307 OFFCURVE",
"96 226 OFFCURVE",
"150 226 CURVE SMOOTH"
);
},
{
closed = 1;
nodes = (
"1005 227 LINE",
"1005 274 LINE",
"226 274 LINE",
"226 227 LINE"
);
}
);
width = 1320;
},
{
associatedMasterId = "EBFFFCD3-BAE4-48A5-9442-B72A90AD34A8";
layerId = "9D974969-73A2-4AB0-8246-A9CAC7CA3FB3";
name = "Bold Sep 17 15, 15:27";
paths = (
{
closed = 1;
nodes = (
"1264 0 LINE",
"1264 500 LINE SMOOTH",
"1264 542 OFFCURVE",
"1243 566 OFFCURVE",
"1188 566 CURVE SMOOTH",
"1168 566 OFFCURVE",
"1132 563 OFFCURVE",
"1111 557 CURVE",
"1118 539 OFFCURVE",
"1118 511 OFFCURVE",
"1118 491 CURVE SMOOTH",
"1118 48 LINE",
"694 48 LINE",
"694 320 LINE SMOOTH",
"694 450 OFFCURVE",
"726 507 OFFCURVE",
"825 507 CURVE SMOOTH",
"947 507 OFFCURVE",
"955 414 OFFCURVE",
"955 274 CURVE",
"1005 274 LINE",
"1005 390 OFFCURVE",
"1022 566 OFFCURVE",
"794 566 CURVE SMOOTH",
"577 566 OFFCURVE",
"548 400 OFFCURVE",
"548 333 CURVE SMOOTH",
"548 0 LINE"
);
},
{
closed = 1;
nodes = (
"173 226 OFFCURVE",
"176 241 OFFCURVE",
"176 260 CURVE",
"136 276 OFFCURVE",
"107 315 OFFCURVE",
"107 385 CURVE SMOOTH",
"107 464 OFFCURVE",
"143 514 OFFCURVE",
"201 514 CURVE SMOOTH",
"259 514 OFFCURVE",
"295 465 OFFCURVE",
"295 390 CURVE SMOOTH",
"295 323 OFFCURVE",
"267 277 OFFCURVE",
"227 274 CURVE",
"285 239 LINE",
"393 245 OFFCURVE",
"445 327 OFFCURVE",
"445 404 CURVE SMOOTH",
"445 511 OFFCURVE",
"370 566 OFFCURVE",
"253 567 CURVE SMOOTH",
"119 568 OFFCURVE",
"54 492 OFFCURVE",
"54 389 CURVE SMOOTH",
"54 307 OFFCURVE",
"96 226 OFFCURVE",
"150 226 CURVE SMOOTH"
);
},
{
closed = 1;
nodes = (
"1005 227 LINE",
"1005 274 LINE",
"226 274 LINE",
"226 227 LINE"
);
}
);
width = 1320;
}
);
unicode = 0D18;
},
{
glyphname = "nga-malayalam";
lastChange = "2015-09-17 15:24:38 +0000";
layers = (
{
layerId = "60CFBDE8-BC08-4808-BF41-F011F3E03A54";
name = Light;
paths = (
{
closed = 1;
nodes = (
"374 -18 OFFCURVE",
"439 30 OFFCURVE",
"439 143 CURVE SMOOTH",
"439 243 OFFCURVE",
"388 298 OFFCURVE",
"316 298 CURVE SMOOTH",
"239 298 OFFCURVE",
"189 233 OFFCURVE",
"189 146 CURVE SMOOTH",
"189 101 OFFCURVE",
"202 38 OFFCURVE",
"255 11 CURVE",
"175 24 OFFCURVE",
"112 76 OFFCURVE",
"112 237 CURVE SMOOTH",
"112 456 OFFCURVE",
"229 519 OFFCURVE",
"327 519 CURVE SMOOTH",
"481 519 OFFCURVE",
"557 365 OFFCURVE",
"557 259 CURVE SMOOTH",
"557 12 LINE SMOOTH",
"557 4 OFFCURVE",
"558 -5 OFFCURVE",
"571 -5 CURVE SMOOTH",
"580 -5 OFFCURVE",
"584 -3 OFFCURVE",
"589 2 CURVE",
"587 10 OFFCURVE",
"587 22 OFFCURVE",
"587 33 CURVE SMOOTH",
"587 267 LINE SMOOTH",
"587 371 OFFCURVE",
"648 519 OFFCURVE",
"792 519 CURVE SMOOTH",
"856 519 OFFCURVE",
"931 490 OFFCURVE",
"931 403 CURVE SMOOTH",
"931 318 OFFCURVE",
"860 278 OFFCURVE",
"790 278 CURVE SMOOTH",
"743 278 LINE",
"743 252 LINE",
"790 252 LINE SMOOTH",
"899 252 OFFCURVE",
"946 196 OFFCURVE",
"946 128 CURVE SMOOTH",
"946 53 OFFCURVE",
"897 9 OFFCURVE",
"814 9 CURVE SMOOTH",
"784 9 OFFCURVE",
"751 15 OFFCURVE",
"719 36 CURVE",
"705 34 OFFCURVE",
"702 20 OFFCURVE",
"711 10 CURVE SMOOTH",
"725 -5 OFFCURVE",
"774 -17 OFFCURVE",
"814 -17 CURVE SMOOTH",
"920 -17 OFFCURVE",
"978 36 OFFCURVE",
"978 127 CURVE SMOOTH",
"978 198 OFFCURVE",
"922 262 OFFCURVE",
"839 266 CURVE",
"910 282 OFFCURVE",
"961 323 OFFCURVE",
"961 403 CURVE SMOOTH",
"961 507 OFFCURVE",
"873 546 OFFCURVE",
"793 546 CURVE SMOOTH",
"655 546 OFFCURVE",
"590 432 OFFCURVE",
"570 336 CURVE",
"539 436 OFFCURVE",
"472 546 OFFCURVE",
"326 546 CURVE SMOOTH",
"191 546 OFFCURVE",
"84 453 OFFCURVE",
"84 239 CURVE SMOOTH",
"84 42 OFFCURVE",
"175 -18 OFFCURVE",
"280 -18 CURVE SMOOTH"
);
},
{
closed = 1;
nodes = (
"255 15 OFFCURVE",
"215 61 OFFCURVE",
"215 140 CURVE SMOOTH",
"215 212 OFFCURVE",
"248 269 OFFCURVE",
"314 269 CURVE SMOOTH",
"382 269 OFFCURVE",
"409 209 OFFCURVE",
"409 144 CURVE SMOOTH",
"409 66 OFFCURVE",
"369 15 OFFCURVE",
"311 15 CURVE SMOOTH"
);
}
);
width = 1061;
},
{
layerId = "EBFFFCD3-BAE4-48A5-9442-B72A90AD34A8";
name = Bold;
paths = (
{
closed = 1;
nodes = (
"403 -18 OFFCURVE",
"464 67 OFFCURVE",
"464 165 CURVE SMOOTH",
"464 274 OFFCURVE",
"388 344 OFFCURVE",
"282 344 CURVE",
"167 344 OFFCURVE",
"121 263 OFFCURVE",
"121 189 CURVE SMOOTH",
"121 131 OFFCURVE",
"122 94 OFFCURVE",
"146 44 CURVE",
"128 111 OFFCURVE",
"123 132 OFFCURVE",
"123 186 CURVE SMOOTH",
"123 453 OFFCURVE",
"248 518 OFFCURVE",
"347 518 CURVE SMOOTH",
"513 518 OFFCURVE",
"573 337 OFFCURVE",
"573 204 CURVE SMOOTH",
"573 95 LINE SMOOTH",
"573 0 OFFCURVE",
"604 -18 OFFCURVE",
"650 -18 CURVE SMOOTH",
"681 -18 OFFCURVE",
"710 -10 OFFCURVE",
"734 7 CURVE",
"724 32 OFFCURVE",
"715 84 OFFCURVE",
"715 159 CURVE SMOOTH",
"715 316 LINE SMOOTH",
"715 445 OFFCURVE",
"771 519 OFFCURVE",
"865 519 CURVE SMOOTH",
"937 519 OFFCURVE",
"988 475 OFFCURVE",
"988 404 CURVE SMOOTH",
"988 333 OFFCURVE",
"938 303 OFFCURVE",
"889 303 CURVE SMOOTH",
"845 303 LINE",
"845 255 LINE",
"889 255 LINE SMOOTH",
"964 255 OFFCURVE",
"995 203 OFFCURVE",
"995 142 CURVE SMOOTH",
"995 83 OFFCURVE",
"966 31 OFFCURVE",
"900 31 CURVE SMOOTH",
"886 31 OFFCURVE",
"855 37 OFFCURVE",
"832 47 CURVE",
"819 34 OFFCURVE",
"815 14 OFFCURVE",
"832 0 CURVE SMOOTH",
"854 -18 OFFCURVE",
"906 -17 OFFCURVE",
"928 -17 CURVE SMOOTH",
"1042 -17 OFFCURVE",
"1145 22 OFFCURVE",
"1145 139 CURVE SMOOTH",
"1145 222 OFFCURVE",
"1079 272 OFFCURVE",
"998 280 CURVE",
"1056 280 OFFCURVE",
"1131 308 OFFCURVE",
"1131 403 CURVE SMOOTH",
"1131 522 OFFCURVE",
"1015 566 OFFCURVE",
"900 566 CURVE SMOOTH",
"772 566 OFFCURVE",
"692 511 OFFCURVE",
"668 383 CURVE",
"619 492 OFFCURVE",
"545 561 OFFCURVE",
"401 566 CURVE SMOOTH",
"236 572 OFFCURVE",
"82 488 OFFCURVE",
"82 238 CURVE SMOOTH",
"82 53 OFFCURVE",
"166 -18 OFFCURVE",
"279 -18 CURVE SMOOTH"
);
},
{
closed = 1;
nodes = (
"205 26 OFFCURVE",
"161 73 OFFCURVE",
"161 161 CURVE SMOOTH",
"161 238 OFFCURVE",
"194 287 OFFCURVE",
"247 287 CURVE SMOOTH",
"300 287 OFFCURVE",
"330 237 OFFCURVE",
"330 156 CURVE SMOOTH",
"330 73 OFFCURVE",
"299 26 OFFCURVE",
"252 26 CURVE SMOOTH"
);
}
);
width = 1195;
},
{
associatedMasterId = "EBFFFCD3-BAE4-48A5-9442-B72A90AD34A8";
layerId = "A553508E-39B5-421D-9373-9B65EB03534E";
name = "Bold Sep 17 15, 15:28";
paths = (
{
closed = 1;
nodes = (
"403 -18 OFFCURVE",
"464 67 OFFCURVE",
"464 165 CURVE SMOOTH",
"464 274 OFFCURVE",
"388 344 OFFCURVE",
"282 344 CURVE",
"167 344 OFFCURVE",
"121 263 OFFCURVE",
"121 189 CURVE SMOOTH",
"121 131 OFFCURVE",
"122 94 OFFCURVE",
"146 44 CURVE",
"128 111 OFFCURVE",
"123 132 OFFCURVE",
"123 186 CURVE SMOOTH",
"123 453 OFFCURVE",
"248 518 OFFCURVE",
"347 518 CURVE SMOOTH",
"513 518 OFFCURVE",
"573 337 OFFCURVE",
"573 204 CURVE SMOOTH",
"573 95 LINE SMOOTH",
"573 0 OFFCURVE",
"604 -18 OFFCURVE",
"650 -18 CURVE SMOOTH",
"681 -18 OFFCURVE",
"710 -10 OFFCURVE",
"734 7 CURVE",
"724 32 OFFCURVE",
"715 84 OFFCURVE",
"715 159 CURVE SMOOTH",
"715 316 LINE SMOOTH",
"715 444 OFFCURVE",
"770 519 OFFCURVE",
"866 519 CURVE SMOOTH",
"931 519 OFFCURVE",
"988 484 OFFCURVE",
"988 396 CURVE SMOOTH",
"988 346 OFFCURVE",
"948 303 OFFCURVE",
"889 303 CURVE SMOOTH",
"845 303 LINE",
"845 255 LINE",
"889 255 LINE SMOOTH",
"964 255 OFFCURVE",
"995 202 OFFCURVE",
"995 144 CURVE SMOOTH",
"995 82 OFFCURVE",
"966 31 OFFCURVE",
"906 31 CURVE SMOOTH",
"886 31 OFFCURVE",
"855 37 OFFCURVE",
"832 47 CURVE",
"819 34 OFFCURVE",
"815 14 OFFCURVE",
"832 0 CURVE SMOOTH",
"854 -18 OFFCURVE",
"905 -17 OFFCURVE",
"940 -17 CURVE SMOOTH",
"1042 -17 OFFCURVE",
"1145 22 OFFCURVE",
"1145 127 CURVE SMOOTH",
"1145 210 OFFCURVE",
"1082 276 OFFCURVE",
"998 280 CURVE",
"1056 269 OFFCURVE",
"1131 308 OFFCURVE",
"1131 403 CURVE SMOOTH",
"1131 522 OFFCURVE",
"1015 566 OFFCURVE",
"900 566 CURVE SMOOTH",
"772 566 OFFCURVE",
"692 511 OFFCURVE",
"668 383 CURVE",
"619 492 OFFCURVE",
"545 561 OFFCURVE",
"401 566 CURVE SMOOTH",
"236 572 OFFCURVE",
"82 488 OFFCURVE",
"82 238 CURVE SMOOTH",
"82 53 OFFCURVE",
"166 -18 OFFCURVE",
"279 -18 CURVE SMOOTH"
);
},
{
closed = 1;
nodes = (
"205 26 OFFCURVE",
"161 73 OFFCURVE",
"161 161 CURVE SMOOTH",
"161 238 OFFCURVE",
"194 287 OFFCURVE",
"247 287 CURVE SMOOTH",
"300 287 OFFCURVE",
"330 237 OFFCURVE",
"330 156 CURVE SMOOTH",
"330 73 OFFCURVE",
"299 26 OFFCURVE",
"252 26 CURVE SMOOTH"
);
}
);
width = 1195;
},
{
associatedMasterId = "60CFBDE8-BC08-4808-BF41-F011F3E03A54";
layerId = "791B6BEA-8A40-41CB-ADF9-B48BCAEF4F4F";
name = "Light Sep 17 15, 16:23";
paths = (
{
closed = 1;
nodes = (
"374 -18 OFFCURVE",
"439 30 OFFCURVE",
"439 143 CURVE SMOOTH",
"439 243 OFFCURVE",
"388 298 OFFCURVE",
"316 298 CURVE SMOOTH",
"239 298 OFFCURVE",
"189 233 OFFCURVE",
"189 146 CURVE SMOOTH",
"189 101 OFFCURVE",
"202 38 OFFCURVE",
"255 11 CURVE",
"175 24 OFFCURVE",
"112 76 OFFCURVE",
"112 237 CURVE SMOOTH",
"112 456 OFFCURVE",
"229 519 OFFCURVE",
"327 519 CURVE SMOOTH",
"481 519 OFFCURVE",
"557 365 OFFCURVE",
"557 259 CURVE SMOOTH",
"557 12 LINE SMOOTH",
"557 4 OFFCURVE",
"558 -5 OFFCURVE",
"571 -5 CURVE SMOOTH",
"577 -5 OFFCURVE",
"581 -3 OFFCURVE",
"586 2 CURVE",
"584 10 OFFCURVE",
"584 22 OFFCURVE",
"584 33 CURVE SMOOTH",
"584 267 LINE SMOOTH",
"584 371 OFFCURVE",
"648 519 OFFCURVE",
"792 519 CURVE SMOOTH",
"856 519 OFFCURVE",
"931 490 OFFCURVE",
"931 403 CURVE SMOOTH",
"931 318 OFFCURVE",
"860 278 OFFCURVE",
"790 278 CURVE SMOOTH",
"743 278 LINE",
"743 252 LINE",
"790 252 LINE SMOOTH",
"899 252 OFFCURVE",
"946 196 OFFCURVE",
"946 128 CURVE SMOOTH",
"946 51 OFFCURVE",
"885 11 OFFCURVE",
"814 11 CURVE SMOOTH",
"784 11 OFFCURVE",
"751 18 OFFCURVE",
"719 38 CURVE",
"705 36 OFFCURVE",
"702 20 OFFCURVE",
"711 10 CURVE SMOOTH",
"725 -5 OFFCURVE",
"782 -17 OFFCURVE",
"823 -17 CURVE SMOOTH",
"927 -17 OFFCURVE",
"980 59 OFFCURVE",
"980 127 CURVE SMOOTH",
"980 198 OFFCURVE",
"923 262 OFFCURVE",
"839 266 CURVE",
"911 282 OFFCURVE",
"963 323 OFFCURVE",
"963 403 CURVE SMOOTH",
"963 507 OFFCURVE",
"874 546 OFFCURVE",
"793 546 CURVE SMOOTH",
"655 546 OFFCURVE",
"590 432 OFFCURVE",
"570 336 CURVE",
"539 436 OFFCURVE",
"472 546 OFFCURVE",
"326 546 CURVE SMOOTH",
"191 546 OFFCURVE",
"84 453 OFFCURVE",
"84 239 CURVE SMOOTH",
"84 42 OFFCURVE",
"175 -18 OFFCURVE",
"280 -18 CURVE SMOOTH"
);
},
{
closed = 1;
nodes = (
"255 15 OFFCURVE",
"215 61 OFFCURVE",
"215 140 CURVE SMOOTH",
"215 212 OFFCURVE",
"248 269 OFFCURVE",
"314 269 CURVE SMOOTH",
"382 269 OFFCURVE",
"409 209 OFFCURVE",
"409 144 CURVE SMOOTH",
"409 66 OFFCURVE",
"369 15 OFFCURVE",
"311 15 CURVE SMOOTH"
);
}
);
width = 1061;
},
{
associatedMasterId = "60CFBDE8-BC08-4808-BF41-F011F3E03A54";
layerId = "01E63B79-26E8-454E-8DAC-935442660FB7";
name = "Light Sep 17 15, 16:24";
paths = (
{
closed = 1;
nodes = (
"374 -18 OFFCURVE",
"439 30 OFFCURVE",
"439 143 CURVE SMOOTH",
"439 243 OFFCURVE",
"388 298 OFFCURVE",
"316 298 CURVE SMOOTH",
"239 298 OFFCURVE",
"189 233 OFFCURVE",
"189 146 CURVE SMOOTH",
"189 101 OFFCURVE",
"202 38 OFFCURVE",
"255 11 CURVE",
"175 24 OFFCURVE",
"112 76 OFFCURVE",
"112 237 CURVE SMOOTH",
"112 456 OFFCURVE",
"229 519 OFFCURVE",
"327 519 CURVE SMOOTH",
"481 519 OFFCURVE",
"557 365 OFFCURVE",
"557 259 CURVE SMOOTH",
"557 12 LINE SMOOTH",
"557 4 OFFCURVE",
"558 -5 OFFCURVE",
"571 -5 CURVE SMOOTH",
"580 -5 OFFCURVE",
"584 -3 OFFCURVE",
"589 2 CURVE",
"587 10 OFFCURVE",
"587 22 OFFCURVE",
"587 33 CURVE SMOOTH",
"587 267 LINE SMOOTH",
"587 371 OFFCURVE",
"648 519 OFFCURVE",
"792 519 CURVE SMOOTH",
"856 519 OFFCURVE",
"931 490 OFFCURVE",
"931 403 CURVE SMOOTH",
"931 318 OFFCURVE",
"860 278 OFFCURVE",
"790 278 CURVE SMOOTH",
"743 278 LINE",
"743 252 LINE",
"790 252 LINE SMOOTH",
"899 252 OFFCURVE",
"946 196 OFFCURVE",
"946 128 CURVE SMOOTH",
"946 51 OFFCURVE",
"885 11 OFFCURVE",
"814 11 CURVE SMOOTH",
"784 11 OFFCURVE",
"751 18 OFFCURVE",
"719 38 CURVE",
"705 36 OFFCURVE",
"702 20 OFFCURVE",
"711 10 CURVE SMOOTH",
"725 -5 OFFCURVE",
"782 -17 OFFCURVE",
"823 -17 CURVE SMOOTH",
"927 -17 OFFCURVE",
"980 59 OFFCURVE",
"980 127 CURVE SMOOTH",
"980 198 OFFCURVE",
"923 262 OFFCURVE",
"839 266 CURVE",
"911 282 OFFCURVE",
"963 323 OFFCURVE",
"963 403 CURVE SMOOTH",
"963 507 OFFCURVE",
"874 546 OFFCURVE",
"793 546 CURVE SMOOTH",
"655 546 OFFCURVE",
"590 432 OFFCURVE",
"570 336 CURVE",
"539 436 OFFCURVE",
"472 546 OFFCURVE",
"326 546 CURVE SMOOTH",
"191 546 OFFCURVE",
"84 453 OFFCURVE",
"84 239 CURVE SMOOTH",
"84 42 OFFCURVE",
"175 -18 OFFCURVE",
"280 -18 CURVE SMOOTH"
);
},
{
closed = 1;
nodes = (
"255 15 OFFCURVE",
"215 61 OFFCURVE",
"215 140 CURVE SMOOTH",
"215 212 OFFCURVE",
"248 269 OFFCURVE",
"314 269 CURVE SMOOTH",
"382 269 OFFCURVE",
"409 209 OFFCURVE",
"409 144 CURVE SMOOTH",
"409 66 OFFCURVE",
"369 15 OFFCURVE",
"311 15 CURVE SMOOTH"
);
}
);
width = 1061;
}
);
unicode = 0D19;
},
{
glyphname = "ca-malayalam";
lastChange = "2015-09-17 15:24:54 +0000";
layers = (
{
layerId = "60CFBDE8-BC08-4808-BF41-F011F3E03A54";
name = Light;
paths = (
{
closed = 1;
nodes = (
"660 0 LINE",
"660 515 LINE SMOOTH",
"660 527 OFFCURVE",
"652 537 OFFCURVE",
"640 537 CURVE SMOOTH",
"632 537 OFFCURVE",
"627 533 OFFCURVE",
"623 529 CURVE",
"632 515 OFFCURVE",
"630 483 OFFCURVE",
"630 476 CURVE SMOOTH",
"630 26 LINE",
"50 26 LINE",
"50 0 LINE"
);
},
{
closed = 1;
nodes = (
"212 116 OFFCURVE",
"219 123 OFFCURVE",
"214 135 CURVE",
"179 143 OFFCURVE",
"161 173 OFFCURVE",
"161 219 CURVE SMOOTH",
"161 292 OFFCURVE",
"205 341 OFFCURVE",
"276 341 CURVE SMOOTH",
"345 341 OFFCURVE",
"396 296 OFFCURVE",
"396 211 CURVE SMOOTH",
"396 105 OFFCURVE",
"316 26 OFFCURVE",
"193 26 CURVE",
"196 9 LINE",
"334 3 OFFCURVE",
"428 94 OFFCURVE",
"428 213 CURVE SMOOTH",
"428 310 OFFCURVE",
"366 369 OFFCURVE",
"279 369 CURVE SMOOTH",
"185 369 OFFCURVE",
"132 300 OFFCURVE",
"132 222 CURVE SMOOTH",
"132 159 OFFCURVE",
"167 116 OFFCURVE",
"199 116 CURVE SMOOTH"
);
}
);
width = 710;
},
{
layerId = "EBFFFCD3-BAE4-48A5-9442-B72A90AD34A8";
name = Bold;
paths = (
{
closed = 1;
nodes = (
"758 0 LINE",
"758 500 LINE SMOOTH",
"758 542 OFFCURVE",
"737 566 OFFCURVE",
"682 566 CURVE SMOOTH",
"662 566 OFFCURVE",
"626 563 OFFCURVE",
"605 557 CURVE",
"612 539 OFFCURVE",
"612 511 OFFCURVE",
"612 491 CURVE SMOOTH",
"612 48 LINE",
"50 48 LINE",
"50 0 LINE"
);
},
{
closed = 1;
nodes = (
"215 136 OFFCURVE",
"218 151 OFFCURVE",
"218 170 CURVE",
"189 174 OFFCURVE",
"169 200 OFFCURVE",
"169 241 CURVE SMOOTH",
"169 294 OFFCURVE",
"203 325 OFFCURVE",
"253 325 CURVE SMOOTH",
"309 325 OFFCURVE",
"340 287 OFFCURVE",
"340 227 CURVE SMOOTH",
"340 162 OFFCURVE",
"304 48 OFFCURVE",
"144 48 CURVE",
"292 35 LINE",
"404 35 OFFCURVE",
"490 127 OFFCURVE",
"490 225 CURVE SMOOTH",
"490 319 OFFCURVE",
"410 378 OFFCURVE",
"295 378 CURVE SMOOTH",
"178 378 OFFCURVE",
"116 316 OFFCURVE",
"116 239 CURVE SMOOTH",
"116 182 OFFCURVE",
"151 136 OFFCURVE",
"192 136 CURVE SMOOTH"
);
}
);
width = 808;
},
{
associatedMasterId = "EBFFFCD3-BAE4-48A5-9442-B72A90AD34A8";
layerId = "05FB3E59-C7AD-4BFA-BD63-CB237C0EF59B";
name = "Bold Sep 17 15, 15:32";
paths = (
{
closed = 1;
nodes = (
"758 0 LINE",
"758 500 LINE SMOOTH",
"758 542 OFFCURVE",
"737 566 OFFCURVE",
"682 566 CURVE SMOOTH",
"662 566 OFFCURVE",
"626 563 OFFCURVE",
"605 557 CURVE",
"612 539 OFFCURVE",
"612 511 OFFCURVE",
"612 491 CURVE SMOOTH",
"612 48 LINE",
"50 48 LINE",
"50 0 LINE"
);
},
{
closed = 1;
nodes = (
"215 136 OFFCURVE",
"218 151 OFFCURVE",
"218 170 CURVE",
"189 174 OFFCURVE",
"169 199 OFFCURVE",
"169 243 CURVE SMOOTH",
"169 293 OFFCURVE",
"203 325 OFFCURVE",
"254 325 CURVE SMOOTH",
"309 325 OFFCURVE",
"340 286 OFFCURVE",
"340 228 CURVE SMOOTH",
"340 162 OFFCURVE",
"304 48 OFFCURVE",
"144 48 CURVE",
"302 39 LINE",
"414 39 OFFCURVE",
"490 143 OFFCURVE",
"490 219 CURVE SMOOTH",
"490 312 OFFCURVE",
"410 378 OFFCURVE",
"294 378 CURVE SMOOTH",
"178 378 OFFCURVE",
"116 315 OFFCURVE",
"116 241 CURVE SMOOTH",
"116 181 OFFCURVE",
"151 136 OFFCURVE",
"192 136 CURVE SMOOTH"
);
}
);
width = 808;
}
);
unicode = 0D1A;
},
{
glyphname = "cha-malayalam";
lastChange = "2015-09-17 15:25:01 +0000";
layers = (
{
layerId = "60CFBDE8-BC08-4808-BF41-F011F3E03A54";
name = Light;
paths = (
{
closed = 1;
nodes = (
"970 -12 OFFCURVE",
"1037 42 OFFCURVE",
"1037 217 CURVE SMOOTH",
"1037 432 OFFCURVE",
"935 547 OFFCURVE",
"781 547 CURVE SMOOTH",
"624 547 OFFCURVE",
"532 429 OFFCURVE",
"532 277 CURVE SMOOTH",
"532 178 OFFCURVE",
"571 76 OFFCURVE",
"626 26 CURVE",
"50 26 LINE",
"50 0 LINE",
"659 0 LINE",
"659 26 LINE",
"619 68 OFFCURVE",
"564 143 OFFCURVE",
"564 270 CURVE SMOOTH",
"564 425 OFFCURVE",
"645 519 OFFCURVE",
"781 519 CURVE SMOOTH",
"907 519 OFFCURVE",
"992 439 OFFCURVE",
"1007 262 CURVE",
"984 312 OFFCURVE",
"945 344 OFFCURVE",
"885 344 CURVE SMOOTH",
"803 344 OFFCURVE",
"746 283 OFFCURVE",
"746 166 CURVE SMOOTH",
"746 43 OFFCURVE",
"808 -12 OFFCURVE",
"890 -12 CURVE SMOOTH"
);
},
{
closed = 1;
nodes = (
"334 3 OFFCURVE",
"428 94 OFFCURVE",
"428 213 CURVE SMOOTH",
"428 310 OFFCURVE",
"366 369 OFFCURVE",
"279 369 CURVE SMOOTH",
"185 369 OFFCURVE",
"132 300 OFFCURVE",
"132 222 CURVE SMOOTH",
"132 159 OFFCURVE",
"167 116 OFFCURVE",
"199 116 CURVE SMOOTH",
"212 116 OFFCURVE",
"219 123 OFFCURVE",
"214 135 CURVE",
"179 143 OFFCURVE",
"161 173 OFFCURVE",
"161 219 CURVE SMOOTH",
"161 292 OFFCURVE",
"205 341 OFFCURVE",
"276 341 CURVE SMOOTH",
"345 341 OFFCURVE",
"396 296 OFFCURVE",
"396 211 CURVE SMOOTH",
"396 105 OFFCURVE",
"316 26 OFFCURVE",
"193 26 CURVE",
"196 9 LINE"
);
},
{
closed = 1;
nodes = (
"815 16 OFFCURVE",
"775 69 OFFCURVE",
"775 165 CURVE SMOOTH",
"775 259 OFFCURVE",
"813 316 OFFCURVE",
"885 316 CURVE SMOOTH",
"956 316 OFFCURVE",
"1003 261 OFFCURVE",
"1003 167 CURVE SMOOTH",
"1003 76 OFFCURVE",
"958 16 OFFCURVE",
"884 16 CURVE SMOOTH"
);
}
);
width = 1097;
},
{
background = {
paths = (
{
closed = 1;
nodes = (
"414 39 OFFCURVE",
"490 140 OFFCURVE",
"490 224 CURVE SMOOTH",
"490 310 OFFCURVE",
"410 378 OFFCURVE",
"292 378 CURVE SMOOTH",
"178 378 OFFCURVE",
"116 315 OFFCURVE",
"116 239 CURVE SMOOTH",
"116 182 OFFCURVE",
"151 136 OFFCURVE",
"192 136 CURVE SMOOTH",
"215 136 OFFCURVE",
"218 151 OFFCURVE",
"218 170 CURVE",
"189 174 OFFCURVE",
"169 200 OFFCURVE",
"169 241 CURVE SMOOTH",
"169 294 OFFCURVE",
"203 325 OFFCURVE",
"253 325 CURVE SMOOTH",
"309 325 OFFCURVE",
"340 287 OFFCURVE",
"340 227 CURVE SMOOTH",
"340 162 OFFCURVE",
"304 48 OFFCURVE",
"144 48 CURVE",
"302 39 LINE"
);
}
);
};
layerId = "EBFFFCD3-BAE4-48A5-9442-B72A90AD34A8";
name = Bold;
paths = (
{
closed = 1;
nodes = (
"1053 -18 OFFCURVE",
"1178 63 OFFCURVE",
"1178 259 CURVE SMOOTH",
"1178 447 OFFCURVE",
"1064 567 OFFCURVE",
"869 567 CURVE SMOOTH",
"683 567 OFFCURVE",
"573 457 OFFCURVE",
"573 280 CURVE SMOOTH",
"573 194 OFFCURVE",
"599 92 OFFCURVE",
"649 48 CURVE",
"50 48 LINE",
"50 0 LINE",
"723 0 LINE",
"723 56 LINE",
"661 112 OFFCURVE",
"642 202 OFFCURVE",
"642 271 CURVE SMOOTH",
"642 413 OFFCURVE",
"722 498 OFFCURVE",
"849 498 CURVE SMOOTH",
"970 498 OFFCURVE",
"1043 421 OFFCURVE",
"1045 292 CURVE",
"1026 335 OFFCURVE",
"983 364 OFFCURVE",
"924 364 CURVE SMOOTH",
"843 364 OFFCURVE",
"773 309 OFFCURVE",
"773 175 CURVE SMOOTH",
"773 32 OFFCURVE",
"852 -18 OFFCURVE",
"940 -18 CURVE SMOOTH"
);
},
{
closed = 1;
nodes = (
"404 35 OFFCURVE",
"490 127 OFFCURVE",
"490 225 CURVE SMOOTH",
"490 319 OFFCURVE",
"410 378 OFFCURVE",
"295 378 CURVE SMOOTH",
"178 378 OFFCURVE",
"116 316 OFFCURVE",
"116 239 CURVE SMOOTH",
"116 182 OFFCURVE",
"151 136 OFFCURVE",
"192 136 CURVE SMOOTH",
"215 136 OFFCURVE",
"218 151 OFFCURVE",
"218 170 CURVE",
"189 174 OFFCURVE",
"169 200 OFFCURVE",
"169 241 CURVE SMOOTH",
"169 294 OFFCURVE",
"203 325 OFFCURVE",
"253 325 CURVE SMOOTH",
"309 325 OFFCURVE",
"340 287 OFFCURVE",
"340 227 CURVE SMOOTH",
"340 162 OFFCURVE",
"304 48 OFFCURVE",
"144 48 CURVE",
"292 35 LINE"
);
},
{
closed = 1;
nodes = (
"875 32 OFFCURVE",
"839 84 OFFCURVE",
"839 172 CURVE SMOOTH",
"839 257 OFFCURVE",
"873 307 OFFCURVE",
"931 307 CURVE SMOOTH",
"991 307 OFFCURVE",
"1027 255 OFFCURVE",
"1027 168 CURVE SMOOTH",
"1027 83 OFFCURVE",
"993 32 OFFCURVE",
"934 32 CURVE SMOOTH"
);
}
);
width = 1237;
},
{
associatedMasterId = "EBFFFCD3-BAE4-48A5-9442-B72A90AD34A8";
background = {
paths = (
{
closed = 1;
nodes = (
"414 39 OFFCURVE",
"490 140 OFFCURVE",
"490 224 CURVE SMOOTH",
"490 310 OFFCURVE",
"410 378 OFFCURVE",
"292 378 CURVE SMOOTH",
"178 378 OFFCURVE",
"116 315 OFFCURVE",
"116 239 CURVE SMOOTH",
"116 182 OFFCURVE",
"151 136 OFFCURVE",
"192 136 CURVE SMOOTH",
"215 136 OFFCURVE",
"218 151 OFFCURVE",
"218 170 CURVE",
"189 174 OFFCURVE",
"169 200 OFFCURVE",
"169 241 CURVE SMOOTH",
"169 294 OFFCURVE",
"203 325 OFFCURVE",
"253 325 CURVE SMOOTH",
"309 325 OFFCURVE",
"340 287 OFFCURVE",
"340 227 CURVE SMOOTH",
"340 162 OFFCURVE",
"304 48 OFFCURVE",
"144 48 CURVE",
"302 39 LINE"
);
}
);
};
layerId = "1A9D5203-3E28-4704-90D4-849DCF1876CB";
name = "Bold Sep 17 15, 15:33";
paths = (
{
closed = 1;
nodes = (
"1057 -18 OFFCURVE",
"1187 60 OFFCURVE",
"1187 253 CURVE SMOOTH",
"1187 450 OFFCURVE",
"1069 567 OFFCURVE",
"870 567 CURVE SMOOTH",
"683 567 OFFCURVE",
"573 459 OFFCURVE",
"573 276 CURVE SMOOTH",
"573 196 OFFCURVE",
"599 92 OFFCURVE",
"649 48 CURVE",
"50 48 LINE",
"50 0 LINE",
"723 0 LINE",
"723 56 LINE",
"661 112 OFFCURVE",
"642 203 OFFCURVE",
"642 270 CURVE SMOOTH",
"642 413 OFFCURVE",
"720 498 OFFCURVE",
"851 498 CURVE SMOOTH",
"969 498 OFFCURVE",
"1041 421 OFFCURVE",
"1043 292 CURVE",
"1024 335 OFFCURVE",
"983 364 OFFCURVE",
"924 364 CURVE SMOOTH",
"843 364 OFFCURVE",
"773 309 OFFCURVE",
"773 174 CURVE SMOOTH",
"773 32 OFFCURVE",
"851 -18 OFFCURVE",
"943 -18 CURVE SMOOTH"
);
},
{
closed = 1;
nodes = (
"404 35 OFFCURVE",
"490 127 OFFCURVE",
"490 225 CURVE SMOOTH",
"490 319 OFFCURVE",
"410 378 OFFCURVE",
"295 378 CURVE SMOOTH",
"178 378 OFFCURVE",
"116 316 OFFCURVE",
"116 239 CURVE SMOOTH",
"116 182 OFFCURVE",
"151 136 OFFCURVE",
"192 136 CURVE SMOOTH",
"215 136 OFFCURVE",
"218 151 OFFCURVE",
"218 170 CURVE",
"189 174 OFFCURVE",
"169 200 OFFCURVE",
"169 241 CURVE SMOOTH",
"169 294 OFFCURVE",
"203 325 OFFCURVE",
"253 325 CURVE SMOOTH",
"309 325 OFFCURVE",
"340 287 OFFCURVE",
"340 227 CURVE SMOOTH",
"340 162 OFFCURVE",
"304 48 OFFCURVE",
"144 48 CURVE",
"292 35 LINE"
);
},
{
closed = 1;
nodes = (
"875 32 OFFCURVE",
"839 84 OFFCURVE",
"839 172 CURVE SMOOTH",
"839 257 OFFCURVE",
"873 307 OFFCURVE",
"931 307 CURVE SMOOTH",
"991 307 OFFCURVE",
"1027 255 OFFCURVE",
"1027 168 CURVE SMOOTH",
"1027 83 OFFCURVE",
"993 32 OFFCURVE",
"934 32 CURVE SMOOTH"
);
}
);
width = 1237;
}
);
unicode = 0D1B;
},
{
glyphname = "ja-malayalam";
lastChange = "2015-09-21 14:42:32 +0000";
layers = (
{
layerId = "60CFBDE8-BC08-4808-BF41-F011F3E03A54";
name = Light;
paths = (
{
closed = 1;
nodes = (
"333 -12 OFFCURVE",
"388 195 OFFCURVE",
"575 195 CURVE SMOOTH",
"648 195 OFFCURVE",
"686 164 OFFCURVE",
"686 109 CURVE SMOOTH",
"686 51 OFFCURVE",
"645 17 OFFCURVE",
"580 17 CURVE SMOOTH",
"532 17 OFFCURVE",
"487 36 OFFCURVE",
"487 82 CURVE SMOOTH",
"487 92 OFFCURVE",
"489 102 OFFCURVE",
"492 113 CURVE",
"486 115 OFFCURVE",
"480 115 OFFCURVE",
"475 113 CURVE SMOOTH",
"462 108 OFFCURVE",
"455 94 OFFCURVE",
"455 76 CURVE SMOOTH",
"455 24 OFFCURVE",
"513 -11 OFFCURVE",
"580 -11 CURVE SMOOTH",
"639 -11 OFFCURVE",
"716 17 OFFCURVE",
"716 109 CURVE SMOOTH",
"716 173 OFFCURVE",
"678 223 OFFCURVE",
"579 223 CURVE SMOOTH",
"377 223 OFFCURVE",
"305 15 OFFCURVE",
"171 15 CURVE SMOOTH",
"124 15 OFFCURVE",
"80 41 OFFCURVE",
"80 99 CURVE SMOOTH",
"80 215 OFFCURVE",
"260 241 OFFCURVE",
"371 254 CURVE SMOOTH",
"488 267 OFFCURVE",
"712 292 OFFCURVE",
"712 442 CURVE SMOOTH",
"712 509 OFFCURVE",
"658 546 OFFCURVE",
"577 546 CURVE SMOOTH",
"463 546 OFFCURVE",
"414 483 OFFCURVE",
"394 410 CURVE",
"379 495 OFFCURVE",
"313 546 OFFCURVE",
"220 546 CURVE SMOOTH",
"120 546 OFFCURVE",
"43 488 OFFCURVE",
"43 403 CURVE SMOOTH",
"43 352 OFFCURVE",
"70 294 OFFCURVE",
"142 294 CURVE SMOOTH",
"200 294 OFFCURVE",
"244 332 OFFCURVE",
"244 388 CURVE SMOOTH",
"244 442 OFFCURVE",
"203 478 OFFCURVE",
"150 478 CURVE SMOOTH",
"124 478 OFFCURVE",
"90 469 OFFCURVE",
"71 436 CURVE",
"83 478 OFFCURVE",
"128 519 OFFCURVE",
"215 519 CURVE SMOOTH",
"326 519 OFFCURVE",
"375 452 OFFCURVE",
"378 332 CURVE",
"405 332 LINE",
"405 460 OFFCURVE",
"476 519 OFFCURVE",
"575 519 CURVE SMOOTH",
"625 519 OFFCURVE",
"682 502 OFFCURVE",
"682 442 CURVE SMOOTH",
"682 315 OFFCURVE",
"470 290 OFFCURVE",
"369 279 CURVE SMOOTH",
"243 265 OFFCURVE",
"49 240 OFFCURVE",
"49 99 CURVE SMOOTH",
"49 29 OFFCURVE",
"97 -12 OFFCURVE",
"169 -12 CURVE SMOOTH"
);
},
{
closed = 1;
nodes = (
"106 320 OFFCURVE",
"76 346 OFFCURVE",
"76 386 CURVE SMOOTH",
"76 424 OFFCURVE",
"103 453 OFFCURVE",
"146 453 CURVE SMOOTH",
"188 453 OFFCURVE",
"215 425 OFFCURVE",
"215 388 CURVE SMOOTH",
"215 350 OFFCURVE",
"186 320 OFFCURVE",
"145 320 CURVE SMOOTH"
);
}
);
width = 766;
},
{
layerId = "EBFFFCD3-BAE4-48A5-9442-B72A90AD34A8";
name = Bold;
paths = (
{
closed = 1;
nodes = (
"401 -15 OFFCURVE",
"472 172 OFFCURVE",
"627 172 CURVE SMOOTH",
"699 172 OFFCURVE",
"710 131 OFFCURVE",
"710 104 CURVE SMOOTH",
"710 62 OFFCURVE",
"684 40 OFFCURVE",
"645 40 CURVE SMOOTH",
"612 40 OFFCURVE",
"597 55 OFFCURVE",
"596 80 CURVE SMOOTH",
"596 87 OFFCURVE",
"595 98 OFFCURVE",
"615 108 CURVE",
"602 119 OFFCURVE",
"588 123 OFFCURVE",
"575 123 CURVE SMOOTH",
"544 123 OFFCURVE",
"520 97 OFFCURVE",
"521 59 CURVE SMOOTH",
"523 9 OFFCURVE",
"569 -14 OFFCURVE",
"648 -14 CURVE SMOOTH",
"771 -14 OFFCURVE",
"857 42 OFFCURVE",
"857 114 CURVE SMOOTH",
"857 177 OFFCURVE",
"791 226 OFFCURVE",
"662 226 CURVE SMOOTH",
"424 226 OFFCURVE",
"382 60 OFFCURVE",
"267 60 CURVE SMOOTH",
"222 60 OFFCURVE",
"205 86 OFFCURVE",
"205 116 CURVE SMOOTH",
"205 168 OFFCURVE",
"255 235 OFFCURVE",
"482 253 CURVE SMOOTH",
"657 267 OFFCURVE",
"842 288 OFFCURVE",
"842 440 CURVE SMOOTH",
"842 513 OFFCURVE",
"791 566 OFFCURVE",
"690 566 CURVE SMOOTH",
"592 566 OFFCURVE",
"525 525 OFFCURVE",
"492 444 CURVE",
"477 523 OFFCURVE",
"387 566 OFFCURVE",
"279 566 CURVE SMOOTH",
"133 566 OFFCURVE",
"63 486 OFFCURVE",
"63 405 CURVE SMOOTH",
"63 359 OFFCURVE",
"86 310 OFFCURVE",
"168 310 CURVE SMOOTH",
"241 310 OFFCURVE",
"296 348 OFFCURVE",
"296 407 CURVE SMOOTH",
"296 462 OFFCURVE",
"249 492 OFFCURVE",
"198 492 CURVE SMOOTH",
"196 492 OFFCURVE",
"194 492 OFFCURVE",
"192 492 CURVE",
"213 503 OFFCURVE",
"231 507 OFFCURVE",
"255 507 CURVE SMOOTH",
"360 507 OFFCURVE",
"388 429 OFFCURVE",
"384 358 CURVE",
"525 359 LINE",
"542 439 OFFCURVE",
"583 495 OFFCURVE",
"640 495 CURVE SMOOTH",
"675 495 OFFCURVE",
"694 473 OFFCURVE",
"694 438 CURVE SMOOTH",
"694 333 OFFCURVE",
"526 305 OFFCURVE",
"441 298 CURVE SMOOTH",
"322 288 OFFCURVE",
"57 265 OFFCURVE",
"57 108 CURVE SMOOTH",
"57 18 OFFCURVE",
"130 -15 OFFCURVE",
"219 -15 CURVE SMOOTH"
);
},
{
closed = 1;
nodes = (
"131 354 OFFCURVE",
"116 374 OFFCURVE",
"116 407 CURVE SMOOTH",
"116 438 OFFCURVE",
"130 457 OFFCURVE",
"154 457 CURVE SMOOTH",
"178 457 OFFCURVE",
"190 438 OFFCURVE",
"190 407 CURVE SMOOTH",
"190 374 OFFCURVE",
"177 354 OFFCURVE",
"154 354 CURVE SMOOTH"
);
}
);
width = 907;
},
{
associatedMasterId = "EBFFFCD3-BAE4-48A5-9442-B72A90AD34A8";
layerId = "1919E67F-5718-46C4-B243-1589746787E4";
name = "Bold Sep 17 15, 15:37";
paths = (
{
closed = 1;
nodes = (
"401 -15 OFFCURVE",
"472 172 OFFCURVE",
"627 172 CURVE SMOOTH",
"699 172 OFFCURVE",
"710 131 OFFCURVE",
"710 104 CURVE SMOOTH",
"710 62 OFFCURVE",
"684 40 OFFCURVE",
"645 40 CURVE SMOOTH",
"612 40 OFFCURVE",
"597 55 OFFCURVE",
"596 80 CURVE SMOOTH",
"596 87 OFFCURVE",
"595 98 OFFCURVE",
"615 108 CURVE",
"602 119 OFFCURVE",
"588 123 OFFCURVE",
"575 123 CURVE SMOOTH",
"544 123 OFFCURVE",
"520 97 OFFCURVE",
"521 59 CURVE SMOOTH",
"523 9 OFFCURVE",
"569 -14 OFFCURVE",
"648 -14 CURVE SMOOTH",
"771 -14 OFFCURVE",
"857 42 OFFCURVE",
"857 114 CURVE SMOOTH",
"857 177 OFFCURVE",
"791 226 OFFCURVE",
"662 226 CURVE SMOOTH",
"424 226 OFFCURVE",
"382 60 OFFCURVE",
"267 60 CURVE SMOOTH",
"222 60 OFFCURVE",
"205 86 OFFCURVE",
"205 116 CURVE SMOOTH",
"205 169 OFFCURVE",
"259 236 OFFCURVE",
"482 253 CURVE SMOOTH",
"654 266 OFFCURVE",
"842 282 OFFCURVE",
"842 440 CURVE SMOOTH",
"842 513 OFFCURVE",
"802 566 OFFCURVE",
"690 566 CURVE SMOOTH",
"592 566 OFFCURVE",
"525 525 OFFCURVE",
"492 444 CURVE",
"477 523 OFFCURVE",
"387 566 OFFCURVE",
"279 566 CURVE SMOOTH",
"133 566 OFFCURVE",
"63 486 OFFCURVE",
"63 405 CURVE SMOOTH",
"63 359 OFFCURVE",
"86 310 OFFCURVE",
"168 310 CURVE SMOOTH",
"241 310 OFFCURVE",
"296 348 OFFCURVE",
"296 407 CURVE SMOOTH",
"296 462 OFFCURVE",
"249 492 OFFCURVE",
"198 492 CURVE SMOOTH",
"196 492 OFFCURVE",
"194 492 OFFCURVE",
"192 492 CURVE",
"213 503 OFFCURVE",
"231 507 OFFCURVE",
"255 507 CURVE SMOOTH",
"360 507 OFFCURVE",
"388 429 OFFCURVE",
"384 358 CURVE",
"525 359 LINE",
"542 439 OFFCURVE",
"583 495 OFFCURVE",
"640 495 CURVE SMOOTH",
"675 495 OFFCURVE",
"694 473 OFFCURVE",
"694 438 CURVE SMOOTH",
"694 333 OFFCURVE",
"526 305 OFFCURVE",
"441 298 CURVE SMOOTH",
"322 288 OFFCURVE",
"57 265 OFFCURVE",
"57 108 CURVE SMOOTH",
"57 18 OFFCURVE",
"143 -15 OFFCURVE",
"219 -15 CURVE SMOOTH"
);
},
{
closed = 1;
nodes = (
"131 354 OFFCURVE",
"116 374 OFFCURVE",
"116 407 CURVE SMOOTH",
"116 438 OFFCURVE",
"130 457 OFFCURVE",
"154 457 CURVE SMOOTH",
"178 457 OFFCURVE",
"190 438 OFFCURVE",
"190 407 CURVE SMOOTH",
"190 374 OFFCURVE",
"177 354 OFFCURVE",
"154 354 CURVE SMOOTH"
);
}
);
width = 907;
},
{
associatedMasterId = "60CFBDE8-BC08-4808-BF41-F011F3E03A54";
layerId = "1747DB86-94DA-4A5C-BE94-C5183AD20678";
name = "Light Sep 17 15, 15:37";
paths = (
{
closed = 1;
nodes = (
"336 -12 OFFCURVE",
"381 195 OFFCURVE",
"581 195 CURVE SMOOTH",
"645 195 OFFCURVE",
"684 164 OFFCURVE",
"684 106 CURVE SMOOTH",
"684 51 OFFCURVE",
"641 17 OFFCURVE",
"584 17 CURVE SMOOTH",
"531 17 OFFCURVE",
"487 36 OFFCURVE",
"487 82 CURVE SMOOTH",
"487 92 OFFCURVE",
"489 102 OFFCURVE",
"492 113 CURVE",
"486 115 OFFCURVE",
"480 115 OFFCURVE",
"475 113 CURVE SMOOTH",
"464 109 OFFCURVE",
"455 96 OFFCURVE",
"455 77 CURVE SMOOTH",
"455 24 OFFCURVE",
"510 -11 OFFCURVE",
"583 -11 CURVE SMOOTH",
"640 -11 OFFCURVE",
"716 20 OFFCURVE",
"716 106 CURVE SMOOTH",
"716 173 OFFCURVE",
"677 223 OFFCURVE",
"584 223 CURVE SMOOTH",
"370 223 OFFCURVE",
"311 15 OFFCURVE",
"176 15 CURVE SMOOTH",
"128 15 OFFCURVE",
"80 38 OFFCURVE",
"80 101 CURVE SMOOTH",
"80 190 OFFCURVE",
"206 240 OFFCURVE",
"371 254 CURVE SMOOTH",
"587 272 OFFCURVE",
"712 333 OFFCURVE",
"712 441 CURVE SMOOTH",
"712 511 OFFCURVE",
"666 546 OFFCURVE",
"585 546 CURVE SMOOTH",
"491 546 OFFCURVE",
"415 487 OFFCURVE",
"394 410 CURVE",
"379 495 OFFCURVE",
"312 546 OFFCURVE",
"221 546 CURVE SMOOTH",
"119 546 OFFCURVE",
"43 489 OFFCURVE",
"43 401 CURVE SMOOTH",
"43 353 OFFCURVE",
"70 294 OFFCURVE",
"141 294 CURVE SMOOTH",
"200 294 OFFCURVE",
"244 332 OFFCURVE",
"244 388 CURVE SMOOTH",
"244 442 OFFCURVE",
"204 478 OFFCURVE",
"149 478 CURVE SMOOTH",
"124 478 OFFCURVE",
"90 469 OFFCURVE",
"71 436 CURVE",
"85 481 OFFCURVE",
"128 519 OFFCURVE",
"219 519 CURVE SMOOTH",
"329 519 OFFCURVE",
"376 444 OFFCURVE",
"378 332 CURVE",
"405 332 LINE",
"405 460 OFFCURVE",
"500 519 OFFCURVE",
"582 519 CURVE SMOOTH",
"635 519 OFFCURVE",
"681 504 OFFCURVE",
"681 440 CURVE SMOOTH",
"681 350 OFFCURVE",
"560 295 OFFCURVE",
"369 279 CURVE SMOOTH",
"186 264 OFFCURVE",
"49 214 OFFCURVE",
"49 99 CURVE SMOOTH",
"49 29 OFFCURVE",
"97 -12 OFFCURVE",
"175 -12 CURVE SMOOTH"
);
},
{
closed = 1;
nodes = (
"105 320 OFFCURVE",
"76 346 OFFCURVE",
"76 386 CURVE SMOOTH",
"76 424 OFFCURVE",
"102 453 OFFCURVE",
"147 453 CURVE SMOOTH",
"188 453 OFFCURVE",
"215 425 OFFCURVE",
"215 388 CURVE SMOOTH",
"215 350 OFFCURVE",
"185 320 OFFCURVE",
"146 320 CURVE SMOOTH"
);
}
);
width = 766;
},
{
associatedMasterId = "EBFFFCD3-BAE4-48A5-9442-B72A90AD34A8";
layerId = "83888E53-9B19-4303-A2B1-D658AE37869E";
name = "Bold Sep 17 15, 15:38";
paths = (
{
closed = 1;
nodes = (
"401 -15 OFFCURVE",
"472 172 OFFCURVE",
"627 172 CURVE SMOOTH",
"699 172 OFFCURVE",
"710 131 OFFCURVE",
"710 104 CURVE SMOOTH",
"710 62 OFFCURVE",
"684 40 OFFCURVE",
"645 40 CURVE SMOOTH",
"612 40 OFFCURVE",
"597 55 OFFCURVE",
"596 80 CURVE SMOOTH",
"596 87 OFFCURVE",
"595 98 OFFCURVE",
"615 108 CURVE",
"602 119 OFFCURVE",
"588 123 OFFCURVE",
"575 123 CURVE SMOOTH",
"544 123 OFFCURVE",
"520 97 OFFCURVE",
"521 59 CURVE SMOOTH",
"523 9 OFFCURVE",
"569 -14 OFFCURVE",
"648 -14 CURVE SMOOTH",
"771 -14 OFFCURVE",
"857 42 OFFCURVE",
"857 114 CURVE SMOOTH",
"857 177 OFFCURVE",
"791 226 OFFCURVE",
"662 226 CURVE SMOOTH",
"424 226 OFFCURVE",
"382 60 OFFCURVE",
"267 60 CURVE SMOOTH",
"222 60 OFFCURVE",
"205 86 OFFCURVE",
"205 116 CURVE SMOOTH",
"205 168 OFFCURVE",
"255 235 OFFCURVE",
"482 253 CURVE SMOOTH",
"657 267 OFFCURVE",
"842 288 OFFCURVE",
"842 440 CURVE SMOOTH",
"842 513 OFFCURVE",
"791 566 OFFCURVE",
"690 566 CURVE SMOOTH",
"592 566 OFFCURVE",
"525 525 OFFCURVE",
"492 444 CURVE",
"477 523 OFFCURVE",
"387 566 OFFCURVE",
"279 566 CURVE SMOOTH",
"133 566 OFFCURVE",
"63 486 OFFCURVE",
"63 405 CURVE SMOOTH",
"63 359 OFFCURVE",
"86 310 OFFCURVE",
"168 310 CURVE SMOOTH",
"241 310 OFFCURVE",
"296 348 OFFCURVE",
"296 407 CURVE SMOOTH",
"296 462 OFFCURVE",
"249 492 OFFCURVE",
"198 492 CURVE SMOOTH",
"196 492 OFFCURVE",
"194 492 OFFCURVE",
"192 492 CURVE",
"213 503 OFFCURVE",
"231 507 OFFCURVE",
"255 507 CURVE SMOOTH",
"360 507 OFFCURVE",
"388 429 OFFCURVE",
"384 358 CURVE",
"525 359 LINE",
"542 439 OFFCURVE",
"583 495 OFFCURVE",
"640 495 CURVE SMOOTH",
"675 495 OFFCURVE",
"694 473 OFFCURVE",
"694 438 CURVE SMOOTH",
"694 333 OFFCURVE",
"526 305 OFFCURVE",
"441 298 CURVE SMOOTH",
"322 288 OFFCURVE",
"57 265 OFFCURVE",
"57 108 CURVE SMOOTH",
"57 18 OFFCURVE",
"130 -15 OFFCURVE",
"219 -15 CURVE SMOOTH"
);
},
{
closed = 1;
nodes = (
"131 354 OFFCURVE",
"116 374 OFFCURVE",
"116 407 CURVE SMOOTH",
"116 438 OFFCURVE",
"130 457 OFFCURVE",
"154 457 CURVE SMOOTH",
"178 457 OFFCURVE",
"190 438 OFFCURVE",
"190 407 CURVE SMOOTH",
"190 374 OFFCURVE",
"177 354 OFFCURVE",
"154 354 CURVE SMOOTH"
);
}
);
width = 907;
},
{
associatedMasterId = "60CFBDE8-BC08-4808-BF41-F011F3E03A54";
layerId = "D30EFB89-947A-4B63-8E3C-2C0AEA0C4EC2";
name = "Light Sep 17 15, 16:25";
paths = (
{
closed = 1;
nodes = (
"333 -12 OFFCURVE",
"388 195 OFFCURVE",
"575 195 CURVE SMOOTH",
"648 195 OFFCURVE",
"686 164 OFFCURVE",
"686 109 CURVE SMOOTH",
"686 51 OFFCURVE",
"645 17 OFFCURVE",
"580 17 CURVE SMOOTH",
"532 17 OFFCURVE",
"487 36 OFFCURVE",
"487 82 CURVE SMOOTH",
"487 92 OFFCURVE",
"489 102 OFFCURVE",
"492 113 CURVE",
"486 115 OFFCURVE",
"480 115 OFFCURVE",
"475 113 CURVE SMOOTH",
"462 108 OFFCURVE",
"455 94 OFFCURVE",
"455 76 CURVE SMOOTH",
"455 24 OFFCURVE",
"513 -11 OFFCURVE",
"580 -11 CURVE SMOOTH",
"639 -11 OFFCURVE",
"716 17 OFFCURVE",
"716 109 CURVE SMOOTH",
"716 173 OFFCURVE",
"678 223 OFFCURVE",
"579 223 CURVE SMOOTH",
"377 223 OFFCURVE",
"305 15 OFFCURVE",
"171 15 CURVE SMOOTH",
"124 15 OFFCURVE",
"80 41 OFFCURVE",
"80 99 CURVE SMOOTH",
"80 215 OFFCURVE",
"260 241 OFFCURVE",
"371 254 CURVE SMOOTH",
"488 267 OFFCURVE",
"712 292 OFFCURVE",
"712 442 CURVE SMOOTH",
"712 511 OFFCURVE",
"664 546 OFFCURVE",
"588 546 CURVE SMOOTH",
"485 546 OFFCURVE",
"414 483 OFFCURVE",
"394 410 CURVE",
"379 495 OFFCURVE",
"313 546 OFFCURVE",
"220 546 CURVE SMOOTH",
"120 546 OFFCURVE",
"43 488 OFFCURVE",
"43 403 CURVE SMOOTH",
"43 352 OFFCURVE",
"70 294 OFFCURVE",
"142 294 CURVE SMOOTH",
"200 294 OFFCURVE",
"244 332 OFFCURVE",
"244 388 CURVE SMOOTH",
"244 442 OFFCURVE",
"203 478 OFFCURVE",
"150 478 CURVE SMOOTH",
"124 478 OFFCURVE",
"90 469 OFFCURVE",
"71 436 CURVE",
"83 478 OFFCURVE",
"128 519 OFFCURVE",
"215 519 CURVE SMOOTH",
"326 519 OFFCURVE",
"375 452 OFFCURVE",
"378 332 CURVE",
"405 332 LINE",
"405 460 OFFCURVE",
"498 519 OFFCURVE",
"586 519 CURVE SMOOTH",
"631 519 OFFCURVE",
"682 504 OFFCURVE",
"682 442 CURVE SMOOTH",
"682 315 OFFCURVE",
"470 290 OFFCURVE",
"369 279 CURVE SMOOTH",
"243 265 OFFCURVE",
"49 240 OFFCURVE",
"49 99 CURVE SMOOTH",
"49 29 OFFCURVE",
"97 -12 OFFCURVE",
"169 -12 CURVE SMOOTH"
);
},
{
closed = 1;
nodes = (
"106 320 OFFCURVE",
"76 346 OFFCURVE",
"76 386 CURVE SMOOTH",
"76 424 OFFCURVE",
"103 453 OFFCURVE",
"146 453 CURVE SMOOTH",
"188 453 OFFCURVE",
"215 425 OFFCURVE",
"215 388 CURVE SMOOTH",
"215 350 OFFCURVE",
"186 320 OFFCURVE",
"145 320 CURVE SMOOTH"
);
}
);
width = 766;
}
);
unicode = 0D1C;
},
{
glyphname = "jha-malayalam";
lastChange = "2015-09-17 15:25:56 +0000";
layers = (
{
layerId = "60CFBDE8-BC08-4808-BF41-F011F3E03A54";
name = Light;
paths = (
{
closed = 1;
nodes = (
"256 -16 OFFCURVE",
"259 -11 OFFCURVE",
"255 4 CURVE",
"178 4 OFFCURVE",
"108 75 OFFCURVE",
"108 241 CURVE SMOOTH",
"108 474 OFFCURVE",
"246 519 OFFCURVE",
"348 519 CURVE SMOOTH",
"497 519 OFFCURVE",
"605 401 OFFCURVE",
"605 206 CURVE SMOOTH",
"605 77 OFFCURVE",
"558 12 OFFCURVE",
"480 12 CURVE SMOOTH",
"398 12 OFFCURVE",
"355 80 OFFCURVE",
"355 198 CURVE SMOOTH",
"355 391 OFFCURVE",
"460 518 OFFCURVE",
"631 518 CURVE SMOOTH",
"740 518 OFFCURVE",
"807 466 OFFCURVE",
"807 277 CURVE SMOOTH",
"807 172 OFFCURVE",
"798 -16 OFFCURVE",
"946 -16 CURVE SMOOTH",
"1070 -16 OFFCURVE",
"1095 118 OFFCURVE",
"1095 177 CURVE",
"1081 263 LINE",
"1081 118 OFFCURVE",
"1045 12 OFFCURVE",
"945 12 CURVE SMOOTH",
"839 12 OFFCURVE",
"839 138 OFFCURVE",
"839 273 CURVE SMOOTH",
"839 500 OFFCURVE",
"748 546 OFFCURVE",
"632 545 CURVE SMOOTH",
"436 543 OFFCURVE",
"326 401 OFFCURVE",
"326 199 CURVE SMOOTH",
"326 80 OFFCURVE",
"365 -16 OFFCURVE",
"486 -16 CURVE SMOOTH",
"586 -16 OFFCURVE",
"636 70 OFFCURVE",
"636 209 CURVE SMOOTH",
"636 411 OFFCURVE",
"520 546 OFFCURVE",
"351 546 CURVE SMOOTH",
"205 546 OFFCURVE",
"80 462 OFFCURVE",
"80 241 CURVE SMOOTH",
"80 58 OFFCURVE",
"158 -16 OFFCURVE",
"235 -16 CURVE SMOOTH"
);
},
{
closed = 1;
nodes = (
"1339 -16 OFFCURVE",
"1402 84 OFFCURVE",
"1402 260 CURVE SMOOTH",
"1402 460 OFFCURVE",
"1321 546 OFFCURVE",
"1291 546 CURVE SMOOTH",
"1279 546 OFFCURVE",
"1274 533 OFFCURVE",
"1274 523 CURVE",
"1297 508 OFFCURVE",
"1374 446 OFFCURVE",
"1374 262 CURVE SMOOTH",
"1374 150 OFFCURVE",
"1345 11 OFFCURVE",
"1225 11 CURVE SMOOTH",
"1114 11 OFFCURVE",
"1111 128 OFFCURVE",
"1111 262 CURVE SMOOTH",
"1110 515 LINE SMOOTH",
"1110 525 OFFCURVE",
"1104 537 OFFCURVE",
"1091 537 CURVE SMOOTH",
"1083 537 OFFCURVE",
"1078 533 OFFCURVE",
"1074 529 CURVE",
"1083 516 OFFCURVE",
"1081 487 OFFCURVE",
"1081 481 CURVE SMOOTH",
"1081 263 LINE SMOOTH",
"1081 144 OFFCURVE",
"1077 -16 OFFCURVE",
"1223 -16 CURVE SMOOTH"
);
}
);
width = 1482;
},
{
layerId = "EBFFFCD3-BAE4-48A5-9442-B72A90AD34A8";
name = Bold;
paths = (
{
closed = 1;
nodes = (
"303 -15 OFFCURVE",
"313 -2 OFFCURVE",
"306 18 CURVE",
"199 40 OFFCURVE",
"141 116 OFFCURVE",
"141 259 CURVE SMOOTH",
"141 430 OFFCURVE",
"236 518 OFFCURVE",
"359 518 CURVE SMOOTH",
"478 518 OFFCURVE",
"575 456 OFFCURVE",
"575 203 CURVE SMOOTH",
"575 131 OFFCURVE",
"564 71 OFFCURVE",
"496 71 CURVE SMOOTH",
"452 71 OFFCURVE",
"409 97 OFFCURVE",
"409 213 CURVE SMOOTH",
"409 474 OFFCURVE",
"624 517 OFFCURVE",
"713 517 CURVE SMOOTH",
"850 517 OFFCURVE",
"850 358 OFFCURVE",
"850 247 CURVE SMOOTH",
"850 -8 OFFCURVE",
"985 -15 OFFCURVE",
"1042 -15 CURVE SMOOTH",
"1159 -15 OFFCURVE",
"1230 44 OFFCURVE",
"1236 196 CURVE",
"1170 269 LINE",
"1170 46 OFFCURVE",
"1110 34 OFFCURVE",
"1074 34 CURVE SMOOTH",
"1002 34 OFFCURVE",
"1000 134 OFFCURVE",
"1000 277 CURVE SMOOTH",
"1000 391 OFFCURVE",
"997 566 OFFCURVE",
"763 566 CURVE SMOOTH",
"521 566 OFFCURVE",
"354 450 OFFCURVE",
"354 208 CURVE SMOOTH",
"354 60 OFFCURVE",
"417 -18 OFFCURVE",
"531 -18 CURVE SMOOTH",
"655 -18 OFFCURVE",
"725 68 OFFCURVE",
"725 222 CURVE SMOOTH",
"725 441 OFFCURVE",
"564 566 OFFCURVE",
"386 566 CURVE SMOOTH",
"178 566 OFFCURVE",
"86 431 OFFCURVE",
"86 262 CURVE SMOOTH",
"86 70 OFFCURVE",
"189 -15 OFFCURVE",
"271 -15 CURVE SMOOTH"
);
},
{
closed = 1;
nodes = (
"1570 -18 OFFCURVE",
"1593 193 OFFCURVE",
"1593 302 CURVE SMOOTH",
"1593 488 OFFCURVE",
"1526 567 OFFCURVE",
"1462 567 CURVE SMOOTH",
"1413 567 OFFCURVE",
"1396 521 OFFCURVE",
"1402 509 CURVE",
"1449 488 OFFCURVE",
"1532 448 OFFCURVE",
"1532 287 CURVE SMOOTH",
"1532 169 OFFCURVE",
"1488 49 OFFCURVE",
"1397 49 CURVE SMOOTH",
"1297 49 OFFCURVE",
"1317 195 OFFCURVE",
"1317 297 CURVE SMOOTH",
"1316 500 LINE SMOOTH",
"1316 542 OFFCURVE",
"1295 566 OFFCURVE",
"1240 566 CURVE SMOOTH",
"1220 566 OFFCURVE",
"1184 563 OFFCURVE",
"1163 557 CURVE",
"1170 539 OFFCURVE",
"1170 511 OFFCURVE",
"1170 491 CURVE SMOOTH",
"1170 217 LINE",
"1170 110 OFFCURVE",
"1193 -18 OFFCURVE",
"1358 -18 CURVE SMOOTH"
);
}
);
width = 1650;
},
{
associatedMasterId = "EBFFFCD3-BAE4-48A5-9442-B72A90AD34A8";
layerId = "F7BF9F98-C0DE-4E0C-BE7C-BF860E51B989";
name = "Bold Sep 17 15, 15:38";
paths = (
{
closed = 1;
nodes = (
"303 -15 OFFCURVE",
"313 -2 OFFCURVE",
"306 18 CURVE",
"199 40 OFFCURVE",
"141 116 OFFCURVE",
"141 259 CURVE SMOOTH",
"141 430 OFFCURVE",
"236 518 OFFCURVE",
"359 518 CURVE SMOOTH",
"478 518 OFFCURVE",
"575 456 OFFCURVE",
"575 203 CURVE SMOOTH",
"575 131 OFFCURVE",
"564 71 OFFCURVE",
"496 71 CURVE SMOOTH",
"452 71 OFFCURVE",
"409 97 OFFCURVE",
"409 213 CURVE SMOOTH",
"409 474 OFFCURVE",
"624 517 OFFCURVE",
"713 517 CURVE SMOOTH",
"850 517 OFFCURVE",
"850 358 OFFCURVE",
"850 247 CURVE SMOOTH",
"850 -8 OFFCURVE",
"985 -15 OFFCURVE",
"1037 -15 CURVE SMOOTH",
"1159 -15 OFFCURVE",
"1226 29 OFFCURVE",
"1226 198 CURVE",
"1170 269 LINE",
"1170 46 OFFCURVE",
"1110 34 OFFCURVE",
"1080 34 CURVE SMOOTH",
"1000 34 OFFCURVE",
"998 134 OFFCURVE",
"998 277 CURVE SMOOTH",
"998 391 OFFCURVE",
"995 566 OFFCURVE",
"763 566 CURVE SMOOTH",
"521 566 OFFCURVE",
"354 450 OFFCURVE",
"354 208 CURVE SMOOTH",
"354 60 OFFCURVE",
"417 -18 OFFCURVE",
"531 -18 CURVE SMOOTH",
"655 -18 OFFCURVE",
"725 68 OFFCURVE",
"725 222 CURVE SMOOTH",
"725 441 OFFCURVE",
"564 566 OFFCURVE",
"386 566 CURVE SMOOTH",
"178 566 OFFCURVE",
"86 431 OFFCURVE",
"86 262 CURVE SMOOTH",
"86 70 OFFCURVE",
"189 -15 OFFCURVE",
"271 -15 CURVE SMOOTH"
);
},
{
closed = 1;
nodes = (
"1570 -18 OFFCURVE",
"1593 193 OFFCURVE",
"1593 302 CURVE SMOOTH",
"1593 488 OFFCURVE",
"1526 567 OFFCURVE",
"1462 567 CURVE SMOOTH",
"1413 567 OFFCURVE",
"1396 521 OFFCURVE",
"1402 509 CURVE",
"1449 488 OFFCURVE",
"1532 448 OFFCURVE",
"1532 287 CURVE SMOOTH",
"1532 169 OFFCURVE",
"1488 49 OFFCURVE",
"1397 49 CURVE SMOOTH",
"1297 49 OFFCURVE",
"1317 195 OFFCURVE",
"1317 297 CURVE SMOOTH",
"1316 500 LINE",
"1316 542 OFFCURVE",
"1295 566 OFFCURVE",
"1240 566 CURVE SMOOTH",
"1220 566 OFFCURVE",
"1184 563 OFFCURVE",
"1163 557 CURVE",
"1170 539 OFFCURVE",
"1170 511 OFFCURVE",
"1170 491 CURVE SMOOTH",
"1170 217 LINE",
"1170 110 OFFCURVE",
"1193 -18 OFFCURVE",
"1358 -18 CURVE SMOOTH"
);
}
);
width = 1650;
}
);
unicode = 0D1D;
},
{
glyphname = "nya-malayalam";
lastChange = "2015-09-17 15:26:16 +0000";
layers = (
{
background = {
paths = (
{
closed = 1;
nodes = (
"656 -16 OFFCURVE",
"659 -11 OFFCURVE",
"655 4 CURVE",
"578 4 OFFCURVE",
"508 75 OFFCURVE",
"508 241 CURVE SMOOTH",
"508 474 OFFCURVE",
"646 519 OFFCURVE",
"748 519 CURVE SMOOTH",
"891 519 OFFCURVE",
"995 401 OFFCURVE",
"995 206 CURVE SMOOTH",
"995 77 OFFCURVE",
"952 12 OFFCURVE",
"880 12 CURVE SMOOTH",
"805 12 OFFCURVE",
"765 80 OFFCURVE",
"765 198 CURVE SMOOTH",
"765 391 OFFCURVE",
"866 518 OFFCURVE",
"1031 518 CURVE SMOOTH",
"1140 518 OFFCURVE",
"1207 466 OFFCURVE",
"1207 277 CURVE SMOOTH",
"1207 172 OFFCURVE",
"1198 -16 OFFCURVE",
"1346 -16 CURVE SMOOTH",
"1470 -16 OFFCURVE",
"1495 118 OFFCURVE",
"1495 177 CURVE",
"1481 263 LINE",
"1481 118 OFFCURVE",
"1445 12 OFFCURVE",
"1345 12 CURVE SMOOTH",
"1239 12 OFFCURVE",
"1239 138 OFFCURVE",
"1239 273 CURVE SMOOTH",
"1239 491 OFFCURVE",
"1160 545 OFFCURVE",
"1032 545 CURVE SMOOTH",
"842 545 OFFCURVE",
"736 401 OFFCURVE",
"736 199 CURVE SMOOTH",
"736 80 OFFCURVE",
"773 -16 OFFCURVE",
"886 -16 CURVE SMOOTH",
"979 -16 OFFCURVE",
"1026 70 OFFCURVE",
"1026 209 CURVE SMOOTH",
"1026 411 OFFCURVE",
"914 546 OFFCURVE",
"751 546 CURVE SMOOTH",
"605 546 OFFCURVE",
"480 462 OFFCURVE",
"480 241 CURVE SMOOTH",
"480 58 OFFCURVE",
"558 -16 OFFCURVE",
"635 -16 CURVE SMOOTH"
);
},
{
closed = 1;
nodes = (
"1739 -16 OFFCURVE",
"1802 84 OFFCURVE",
"1802 260 CURVE SMOOTH",
"1802 460 OFFCURVE",
"1721 546 OFFCURVE",
"1691 546 CURVE SMOOTH",
"1679 546 OFFCURVE",
"1674 533 OFFCURVE",
"1674 523 CURVE",
"1697 508 OFFCURVE",
"1774 446 OFFCURVE",
"1774 262 CURVE SMOOTH",
"1774 150 OFFCURVE",
"1745 11 OFFCURVE",
"1625 11 CURVE SMOOTH",
"1514 11 OFFCURVE",
"1512 128 OFFCURVE",
"1512 262 CURVE SMOOTH",
"1511 515 LINE SMOOTH",
"1511 525 OFFCURVE",
"1505 537 OFFCURVE",
"1491 537 CURVE SMOOTH",
"1483 537 OFFCURVE",
"1478 533 OFFCURVE",
"1474 529 CURVE",
"1483 516 OFFCURVE",
"1481 487 OFFCURVE",
"1481 481 CURVE SMOOTH",
"1481 263 LINE SMOOTH",
"1481 144 OFFCURVE",
"1477 -16 OFFCURVE",
"1623 -16 CURVE SMOOTH"
);
}
);
};
layerId = "60CFBDE8-BC08-4808-BF41-F011F3E03A54";
name = Light;
paths = (
{
closed = 1;
nodes = (
"345 -18 OFFCURVE",
"410 30 OFFCURVE",
"410 143 CURVE SMOOTH",
"410 243 OFFCURVE",
"359 298 OFFCURVE",
"287 298 CURVE SMOOTH",
"210 298 OFFCURVE",
"160 233 OFFCURVE",
"160 146 CURVE SMOOTH",
"160 101 OFFCURVE",
"173 38 OFFCURVE",
"226 11 CURVE",
"146 24 OFFCURVE",
"83 76 OFFCURVE",
"83 237 CURVE SMOOTH",
"83 456 OFFCURVE",
"200 519 OFFCURVE",
"298 519 CURVE SMOOTH",
"452 519 OFFCURVE",
"528 365 OFFCURVE",
"528 259 CURVE SMOOTH",
"528 12 LINE SMOOTH",
"528 3 OFFCURVE",
"529 -5 OFFCURVE",
"543 -5 CURVE SMOOTH",
"550 -5 OFFCURVE",
"555 -3 OFFCURVE",
"560 2 CURVE",
"558 10 OFFCURVE",
"558 22 OFFCURVE",
"558 33 CURVE SMOOTH",
"558 256 LINE SMOOTH",
"558 361 OFFCURVE",
"622 520 OFFCURVE",
"784 520 CURVE SMOOTH",
"941 520 OFFCURVE",
"1025 369 OFFCURVE",
"1025 207 CURVE SMOOTH",
"1025 98 OFFCURVE",
"987 12 OFFCURVE",
"903 12 CURVE SMOOTH",
"823 12 OFFCURVE",
"774 89 OFFCURVE",
"774 218 CURVE SMOOTH",
"774 407 OFFCURVE",
"879 518 OFFCURVE",
"1037 518 CURVE SMOOTH",
"1216 518 OFFCURVE",
"1266 375 OFFCURVE",
"1266 245 CURVE SMOOTH",
"1266 126 OFFCURVE",
"1224 6 OFFCURVE",
"1141 11 CURVE",
"1138 8 OFFCURVE",
"1136 4 OFFCURVE",
"1136 0 CURVE SMOOTH",
"1136 -8 OFFCURVE",
"1142 -16 OFFCURVE",
"1162 -16 CURVE SMOOTH",
"1229 -16 OFFCURVE",
"1299 79 OFFCURVE",
"1299 242 CURVE SMOOTH",
"1299 419 OFFCURVE",
"1216 546 OFFCURVE",
"1039 546 CURVE SMOOTH",
"872 546 OFFCURVE",
"746 433 OFFCURVE",
"746 215 CURVE SMOOTH",
"746 45 OFFCURVE",
"822 -15 OFFCURVE",
"902 -15 CURVE SMOOTH",
"985 -15 OFFCURVE",
"1057 49 OFFCURVE",
"1057 207 CURVE SMOOTH",
"1057 406 OFFCURVE",
"942 546 OFFCURVE",
"779 546 CURVE SMOOTH",
"640 546 OFFCURVE",
"570 444 OFFCURVE",
"541 336 CURVE",
"510 436 OFFCURVE",
"443 546 OFFCURVE",
"297 546 CURVE SMOOTH",
"162 546 OFFCURVE",
"55 453 OFFCURVE",
"55 239 CURVE SMOOTH",
"55 42 OFFCURVE",
"146 -18 OFFCURVE",
"251 -18 CURVE SMOOTH"
);
},
{
closed = 1;
nodes = (
"226 15 OFFCURVE",
"186 61 OFFCURVE",
"186 140 CURVE SMOOTH",
"186 212 OFFCURVE",
"219 269 OFFCURVE",
"285 269 CURVE SMOOTH",
"353 269 OFFCURVE",
"380 209 OFFCURVE",
"380 144 CURVE SMOOTH",
"380 66 OFFCURVE",
"340 15 OFFCURVE",
"282 15 CURVE SMOOTH"
);
}
);
width = 1375;
},
{
layerId = "EBFFFCD3-BAE4-48A5-9442-B72A90AD34A8";
name = Bold;
paths = (
{
closed = 1;
nodes = (
"403 -18 OFFCURVE",
"464 67 OFFCURVE",
"464 165 CURVE SMOOTH",
"464 274 OFFCURVE",
"388 344 OFFCURVE",
"282 344 CURVE SMOOTH",
"168 344 OFFCURVE",
"121 263 OFFCURVE",
"121 189 CURVE SMOOTH",
"121 131 OFFCURVE",
"122 94 OFFCURVE",
"146 44 CURVE",
"128 111 OFFCURVE",
"123 132 OFFCURVE",
"123 186 CURVE SMOOTH",
"123 453 OFFCURVE",
"239 519 OFFCURVE",
"358 519 CURVE SMOOTH",
"511 519 OFFCURVE",
"573 359 OFFCURVE",
"573 229 CURVE SMOOTH",
"573 95 LINE SMOOTH",
"573 -1 OFFCURVE",
"604 -18 OFFCURVE",
"651 -18 CURVE SMOOTH",
"684 -18 OFFCURVE",
"714 -10 OFFCURVE",
"738 7 CURVE",
"728 32 OFFCURVE",
"719 84 OFFCURVE",
"719 159 CURVE SMOOTH",
"719 304 LINE SMOOTH",
"719 417 OFFCURVE",
"789 518 OFFCURVE",
"908 518 CURVE SMOOTH",
"1001 518 OFFCURVE",
"1074 457 OFFCURVE",
"1074 240 CURVE SMOOTH",
"1074 152 OFFCURVE",
"1062 71 OFFCURVE",
"989 71 CURVE SMOOTH",
"949 71 OFFCURVE",
"908 95 OFFCURVE",
"908 212 CURVE SMOOTH",
"908 463 OFFCURVE",
"1099 519 OFFCURVE",
"1213 519 CURVE SMOOTH",
"1343 519 OFFCURVE",
"1412 447 OFFCURVE",
"1412 282 CURVE SMOOTH",
"1412 166 OFFCURVE",
"1378 61 OFFCURVE",
"1282 45 CURVE",
"1277 37 OFFCURVE",
"1275 29 OFFCURVE",
"1275 21 CURVE SMOOTH",
"1275 2 OFFCURVE",
"1290 -15 OFFCURVE",
"1334 -15 CURVE SMOOTH",
"1451 -15 OFFCURVE",
"1562 107 OFFCURVE",
"1562 285 CURVE SMOOTH",
"1562 496 OFFCURVE",
"1405 566 OFFCURVE",
"1243 566 CURVE SMOOTH",
"1032 566 OFFCURVE",
"853 447 OFFCURVE",
"853 202 CURVE SMOOTH",
"853 56 OFFCURVE",
"917 -18 OFFCURVE",
"1027 -18 CURVE SMOOTH",
"1154 -18 OFFCURVE",
"1224 81 OFFCURVE",
"1224 233 CURVE SMOOTH",
"1224 451 OFFCURVE",
"1079 563 OFFCURVE",
"920 563 CURVE SMOOTH",
"781 563 OFFCURVE",
"694 477 OFFCURVE",
"668 383 CURVE",
"621 488 OFFCURVE",
"544 566 OFFCURVE",
"388 566 CURVE SMOOTH",
"211 566 OFFCURVE",
"82 480 OFFCURVE",
"82 238 CURVE SMOOTH",
"82 53 OFFCURVE",
"166 -18 OFFCURVE",
"279 -18 CURVE SMOOTH"
);
},
{
closed = 1;
nodes = (
"205 26 OFFCURVE",
"161 73 OFFCURVE",
"161 161 CURVE SMOOTH",
"161 238 OFFCURVE",
"194 287 OFFCURVE",
"247 287 CURVE SMOOTH",
"300 287 OFFCURVE",
"330 237 OFFCURVE",
"330 156 CURVE SMOOTH",
"330 73 OFFCURVE",
"299 26 OFFCURVE",
"252 26 CURVE SMOOTH"
);
}
);
width = 1642;
},
{
associatedMasterId = "EBFFFCD3-BAE4-48A5-9442-B72A90AD34A8";
layerId = "3D3DC529-29C0-4029-AB12-350B32DAD5F2";
name = "Bold Sep 17 15, 15:39";
paths = (
{
closed = 1;
nodes = (
"403 -18 OFFCURVE",
"464 67 OFFCURVE",
"464 165 CURVE SMOOTH",
"464 274 OFFCURVE",
"388 344 OFFCURVE",
"282 344 CURVE",
"167 344 OFFCURVE",
"121 263 OFFCURVE",
"121 189 CURVE SMOOTH",
"121 131 OFFCURVE",
"122 94 OFFCURVE",
"146 44 CURVE",
"128 111 OFFCURVE",
"123 132 OFFCURVE",
"123 186 CURVE SMOOTH",
"123 453 OFFCURVE",
"248 518 OFFCURVE",
"347 518 CURVE SMOOTH",
"513 518 OFFCURVE",
"573 337 OFFCURVE",
"573 204 CURVE SMOOTH",
"573 95 LINE SMOOTH",
"573 0 OFFCURVE",
"604 -18 OFFCURVE",
"650 -18 CURVE SMOOTH",
"681 -18 OFFCURVE",
"710 -10 OFFCURVE",
"734 7 CURVE",
"724 32 OFFCURVE",
"715 84 OFFCURVE",
"715 159 CURVE SMOOTH",
"715 326 LINE SMOOTH",
"715 417 OFFCURVE",
"791 518 OFFCURVE",
"904 518 CURVE SMOOTH",
"1006 518 OFFCURVE",
"1074 456 OFFCURVE",
"1074 233 CURVE SMOOTH",
"1074 151 OFFCURVE",
"1059 71 OFFCURVE",
"992 71 CURVE SMOOTH",
"950 71 OFFCURVE",
"908 95 OFFCURVE",
"908 208 CURVE SMOOTH",
"908 463 OFFCURVE",
"1119 517 OFFCURVE",
"1202 517 CURVE SMOOTH",
"1326 517 OFFCURVE",
"1412 441 OFFCURVE",
"1412 297 CURVE SMOOTH",
"1412 169 OFFCURVE",
"1374 62 OFFCURVE",
"1282 45 CURVE",
"1267 20 OFFCURVE",
"1271 -15 OFFCURVE",
"1334 -15 CURVE SMOOTH",
"1451 -15 OFFCURVE",
"1562 107 OFFCURVE",
"1562 285 CURVE SMOOTH",
"1562 496 OFFCURVE",
"1404 566 OFFCURVE",
"1246 566 CURVE SMOOTH",
"1030 566 OFFCURVE",
"853 447 OFFCURVE",
"853 201 CURVE SMOOTH",
"853 56 OFFCURVE",
"916 -18 OFFCURVE",
"1029 -18 CURVE SMOOTH",
"1154 -18 OFFCURVE",
"1224 84 OFFCURVE",
"1224 229 CURVE SMOOTH",
"1224 454 OFFCURVE",
"1079 563 OFFCURVE",
"917 563 CURVE SMOOTH",
"787 563 OFFCURVE",
"695 481 OFFCURVE",
"668 383 CURVE",
"621 488 OFFCURVE",
"544 566 OFFCURVE",
"388 566 CURVE SMOOTH",
"225 566 OFFCURVE",
"82 480 OFFCURVE",
"82 238 CURVE SMOOTH",
"82 53 OFFCURVE",
"166 -18 OFFCURVE",
"279 -18 CURVE SMOOTH"
);
},
{
closed = 1;
nodes = (
"205 26 OFFCURVE",
"161 73 OFFCURVE",
"161 161 CURVE SMOOTH",
"161 238 OFFCURVE",
"194 287 OFFCURVE",
"247 287 CURVE SMOOTH",
"300 287 OFFCURVE",
"330 237 OFFCURVE",
"330 156 CURVE SMOOTH",
"330 73 OFFCURVE",
"299 26 OFFCURVE",
"252 26 CURVE SMOOTH"
);
}
);
width = 1642;
},
{
associatedMasterId = "60CFBDE8-BC08-4808-BF41-F011F3E03A54";
background = {
paths = (
{
closed = 1;
nodes = (
"656 -16 OFFCURVE",
"659 -11 OFFCURVE",
"655 4 CURVE",
"578 4 OFFCURVE",
"508 75 OFFCURVE",
"508 241 CURVE SMOOTH",
"508 474 OFFCURVE",
"646 519 OFFCURVE",
"748 519 CURVE SMOOTH",
"891 519 OFFCURVE",
"995 401 OFFCURVE",
"995 206 CURVE SMOOTH",
"995 77 OFFCURVE",
"952 12 OFFCURVE",
"880 12 CURVE SMOOTH",
"805 12 OFFCURVE",
"765 80 OFFCURVE",
"765 198 CURVE SMOOTH",
"765 391 OFFCURVE",
"866 518 OFFCURVE",
"1031 518 CURVE SMOOTH",
"1140 518 OFFCURVE",
"1207 466 OFFCURVE",
"1207 277 CURVE SMOOTH",
"1207 172 OFFCURVE",
"1198 -16 OFFCURVE",
"1346 -16 CURVE SMOOTH",
"1470 -16 OFFCURVE",
"1495 118 OFFCURVE",
"1495 177 CURVE",
"1481 263 LINE",
"1481 118 OFFCURVE",
"1445 12 OFFCURVE",
"1345 12 CURVE SMOOTH",
"1239 12 OFFCURVE",
"1239 138 OFFCURVE",
"1239 273 CURVE SMOOTH",
"1239 491 OFFCURVE",
"1160 545 OFFCURVE",
"1032 545 CURVE SMOOTH",
"842 545 OFFCURVE",
"736 401 OFFCURVE",
"736 199 CURVE SMOOTH",
"736 80 OFFCURVE",
"773 -16 OFFCURVE",
"886 -16 CURVE SMOOTH",
"979 -16 OFFCURVE",
"1026 70 OFFCURVE",
"1026 209 CURVE SMOOTH",
"1026 411 OFFCURVE",
"914 546 OFFCURVE",
"751 546 CURVE SMOOTH",
"605 546 OFFCURVE",
"480 462 OFFCURVE",
"480 241 CURVE SMOOTH",
"480 58 OFFCURVE",
"558 -16 OFFCURVE",
"635 -16 CURVE SMOOTH"
);
},
{
closed = 1;
nodes = (
"1739 -16 OFFCURVE",
"1802 84 OFFCURVE",
"1802 260 CURVE SMOOTH",
"1802 460 OFFCURVE",
"1721 546 OFFCURVE",
"1691 546 CURVE SMOOTH",
"1679 546 OFFCURVE",
"1674 533 OFFCURVE",
"1674 523 CURVE",
"1697 508 OFFCURVE",
"1774 446 OFFCURVE",
"1774 262 CURVE SMOOTH",
"1774 150 OFFCURVE",
"1745 11 OFFCURVE",
"1625 11 CURVE SMOOTH",
"1514 11 OFFCURVE",
"1512 128 OFFCURVE",
"1512 262 CURVE SMOOTH",
"1511 515 LINE SMOOTH",
"1511 525 OFFCURVE",
"1505 537 OFFCURVE",
"1491 537 CURVE SMOOTH",
"1483 537 OFFCURVE",
"1478 533 OFFCURVE",
"1474 529 CURVE",
"1483 516 OFFCURVE",
"1481 487 OFFCURVE",
"1481 481 CURVE SMOOTH",
"1481 263 LINE SMOOTH",
"1481 144 OFFCURVE",
"1477 -16 OFFCURVE",
"1623 -16 CURVE SMOOTH"
);
}
);
};
layerId = "7AE1B8FC-5EE0-43C0-9C35-268639EF27C3";
name = "Light Sep 17 15, 16:26";
paths = (
{
closed = 1;
nodes = (
"345 -18 OFFCURVE",
"410 30 OFFCURVE",
"410 143 CURVE SMOOTH",
"410 243 OFFCURVE",
"359 298 OFFCURVE",
"287 298 CURVE SMOOTH",
"210 298 OFFCURVE",
"160 233 OFFCURVE",
"160 146 CURVE SMOOTH",
"160 101 OFFCURVE",
"173 38 OFFCURVE",
"226 11 CURVE",
"146 24 OFFCURVE",
"83 76 OFFCURVE",
"83 237 CURVE SMOOTH",
"83 456 OFFCURVE",
"200 519 OFFCURVE",
"298 519 CURVE SMOOTH",
"452 519 OFFCURVE",
"528 365 OFFCURVE",
"528 259 CURVE SMOOTH",
"528 12 LINE SMOOTH",
"528 4 OFFCURVE",
"529 -5 OFFCURVE",
"542 -5 CURVE SMOOTH",
"548 -5 OFFCURVE",
"552 -3 OFFCURVE",
"557 2 CURVE",
"555 10 OFFCURVE",
"555 22 OFFCURVE",
"555 33 CURVE SMOOTH",
"555 256 LINE SMOOTH",
"555 362 OFFCURVE",
"619 519 OFFCURVE",
"778 519 CURVE SMOOTH",
"947 519 OFFCURVE",
"1025 369 OFFCURVE",
"1025 209 CURVE SMOOTH",
"1025 98 OFFCURVE",
"987 12 OFFCURVE",
"903 12 CURVE SMOOTH",
"823 12 OFFCURVE",
"774 90 OFFCURVE",
"774 215 CURVE SMOOTH",
"774 407 OFFCURVE",
"874 518 OFFCURVE",
"1043 518 CURVE SMOOTH",
"1211 518 OFFCURVE",
"1266 374 OFFCURVE",
"1266 251 CURVE SMOOTH",
"1266 124 OFFCURVE",
"1225 7 OFFCURVE",
"1141 11 CURVE",
"1138 8 OFFCURVE",
"1136 4 OFFCURVE",
"1136 1 CURVE SMOOTH",
"1136 -8 OFFCURVE",
"1142 -16 OFFCURVE",
"1161 -16 CURVE SMOOTH",
"1229 -16 OFFCURVE",
"1299 76 OFFCURVE",
"1299 247 CURVE SMOOTH",
"1299 418 OFFCURVE",
"1211 546 OFFCURVE",
"1045 546 CURVE SMOOTH",
"868 546 OFFCURVE",
"746 433 OFFCURVE",
"746 213 CURVE SMOOTH",
"746 46 OFFCURVE",
"822 -15 OFFCURVE",
"901 -15 CURVE SMOOTH",
"985 -15 OFFCURVE",
"1057 46 OFFCURVE",
"1057 210 CURVE SMOOTH",
"1057 406 OFFCURVE",
"943 546 OFFCURVE",
"775 546 CURVE SMOOTH",
"641 546 OFFCURVE",
"568 440 OFFCURVE",
"541 336 CURVE",
"510 436 OFFCURVE",
"443 546 OFFCURVE",
"297 546 CURVE SMOOTH",
"162 546 OFFCURVE",
"55 453 OFFCURVE",
"55 239 CURVE SMOOTH",
"55 42 OFFCURVE",
"146 -18 OFFCURVE",
"251 -18 CURVE SMOOTH"
);
},
{
closed = 1;
nodes = (
"226 15 OFFCURVE",
"186 61 OFFCURVE",
"186 140 CURVE SMOOTH",
"186 212 OFFCURVE",
"219 269 OFFCURVE",
"285 269 CURVE SMOOTH",
"353 269 OFFCURVE",
"380 209 OFFCURVE",
"380 144 CURVE SMOOTH",
"380 66 OFFCURVE",
"340 15 OFFCURVE",
"282 15 CURVE SMOOTH"
);
}
);
width = 1375;
}
);
unicode = 0D1E;
},
{
glyphname = "tta-malayalam";
lastChange = "2015-09-17 14:41:58 +0000";
layers = (
{
layerId = "60CFBDE8-BC08-4808-BF41-F011F3E03A54";
name = Light;
paths = (
{
closed = 1;
nodes = (
"107 27 OFFCURVE",
"193 -16 OFFCURVE",
"304 -16 CURVE SMOOTH",
"418 -16 OFFCURVE",
"501 29 OFFCURVE",
"501 127 CURVE SMOOTH",
"501 243 OFFCURVE",
"389 260 OFFCURVE",
"288 283 CURVE SMOOTH",
"155 314 OFFCURVE",
"124 341 OFFCURVE",
"124 410 CURVE SMOOTH",
"124 490 OFFCURVE",
"196 518 OFFCURVE",
"276 518 CURVE SMOOTH",
"366 518 OFFCURVE",
"444 482 OFFCURVE",
"462 438 CURVE",
"480 432 OFFCURVE",
"495 449 OFFCURVE",
"480 469 CURVE SMOOTH",
"452 507 OFFCURVE",
"374 546 OFFCURVE",
"278 546 CURVE SMOOTH",
"177 546 OFFCURVE",
"95 504 OFFCURVE",
"95 410 CURVE SMOOTH",
"95 302 OFFCURVE",
"174 278 OFFCURVE",
"284 251 CURVE SMOOTH",
"391 225 OFFCURVE",
"472 215 OFFCURVE",
"472 129 CURVE SMOOTH",
"472 47 OFFCURVE",
"403 12 OFFCURVE",
"304 12 CURVE SMOOTH",
"203 12 OFFCURVE",
"128 48 OFFCURVE",
"110 98 CURVE",
"97 101 OFFCURVE",
"78 96 OFFCURVE",
"88 72 CURVE SMOOTH"
);
}
);
width = 584;
},
{
layerId = "EBFFFCD3-BAE4-48A5-9442-B72A90AD34A8";
name = Bold;
paths = (
{
closed = 1;
nodes = (
"91 26 OFFCURVE",
"178 -16 OFFCURVE",
"304 -16 CURVE SMOOTH",
"438 -16 OFFCURVE",
"534 31 OFFCURVE",
"534 151 CURVE SMOOTH",
"534 284 OFFCURVE",
"409 319 OFFCURVE",
"305 342 CURVE SMOOTH",
"213 362 OFFCURVE",
"144 370 OFFCURVE",
"144 428 CURVE SMOOTH",
"144 480 OFFCURVE",
"206 498 OFFCURVE",
"270 498 CURVE SMOOTH",
"376 498 OFFCURVE",
"450 448 OFFCURVE",
"466 393 CURVE",
"501 379 OFFCURVE",
"539 422 OFFCURVE",
"502 468 CURVE SMOOTH",
"467 511 OFFCURVE",
"379 546 OFFCURVE",
"275 546 CURVE SMOOTH",
"158 546 OFFCURVE",
"62 502 OFFCURVE",
"62 382 CURVE SMOOTH",
"62 295 OFFCURVE",
"115 236 OFFCURVE",
"256 202 CURVE SMOOTH",
"339 182 OFFCURVE",
"452 180 OFFCURVE",
"452 107 CURVE SMOOTH",
"452 55 OFFCURVE",
"389 32 OFFCURVE",
"310 32 CURVE SMOOTH",
"204 32 OFFCURVE",
"133 74 OFFCURVE",
"115 137 CURVE",
"58 149 OFFCURVE",
"50 104 OFFCURVE",
"67 72 CURVE SMOOTH"
);
}
);
width = 600;
},
{
associatedMasterId = "60CFBDE8-BC08-4808-BF41-F011F3E03A54";
layerId = "961FED42-4F24-49B0-AE19-D92F9DBAA0B2";
name = "Light Sep 17 15, 15:41";
paths = (
{
closed = 1;
nodes = (
"107 27 OFFCURVE",
"193 -16 OFFCURVE",
"304 -16 CURVE SMOOTH",
"418 -16 OFFCURVE",
"501 29 OFFCURVE",
"501 127 CURVE SMOOTH",
"501 243 OFFCURVE",
"389 269 OFFCURVE",
"288 283 CURVE SMOOTH",
"168 301 OFFCURVE",
"124 341 OFFCURVE",
"124 410 CURVE SMOOTH",
"124 490 OFFCURVE",
"196 518 OFFCURVE",
"276 518 CURVE SMOOTH",
"366 518 OFFCURVE",
"444 482 OFFCURVE",
"462 438 CURVE",
"480 432 OFFCURVE",
"495 449 OFFCURVE",
"480 469 CURVE SMOOTH",
"452 507 OFFCURVE",
"374 546 OFFCURVE",
"278 546 CURVE SMOOTH",
"177 546 OFFCURVE",
"95 504 OFFCURVE",
"95 410 CURVE SMOOTH",
"95 302 OFFCURVE",
"187 265 OFFCURVE",
"284 251 CURVE SMOOTH",
"393 235 OFFCURVE",
"472 215 OFFCURVE",
"472 129 CURVE SMOOTH",
"472 47 OFFCURVE",
"403 12 OFFCURVE",
"304 12 CURVE SMOOTH",
"203 12 OFFCURVE",
"128 48 OFFCURVE",
"110 98 CURVE",
"97 101 OFFCURVE",
"78 96 OFFCURVE",
"88 72 CURVE SMOOTH"
);
}
);
width = 584;
}
);
unicode = 0D1F;
},
{
glyphname = "ttha-malayalam";
lastChange = "2015-09-17 14:42:07 +0000";
layers = (
{
layerId = "60CFBDE8-BC08-4808-BF41-F011F3E03A54";
name = Light;
paths = (
{
closed = 1;
nodes = (
"448 -12 OFFCURVE",
"528 85 OFFCURVE",
"528 265 CURVE SMOOTH",
"528 448 OFFCURVE",
"448 546 OFFCURVE",
"299 546 CURVE SMOOTH",
"150 546 OFFCURVE",
"70 448 OFFCURVE",
"70 265 CURVE SMOOTH",
"70 85 OFFCURVE",
"150 -12 OFFCURVE",
"299 -12 CURVE SMOOTH"
);
},
{
closed = 1;
nodes = (
"168 16 OFFCURVE",
"98 103 OFFCURVE",
"98 265 CURVE SMOOTH",
"98 429 OFFCURVE",
"168 518 OFFCURVE",
"299 518 CURVE SMOOTH",
"427 518 OFFCURVE",
"496 429 OFFCURVE",
"496 265 CURVE SMOOTH",
"496 103 OFFCURVE",
"427 16 OFFCURVE",
"299 16 CURVE SMOOTH"
);
}
);
width = 598;
},
{
layerId = "EBFFFCD3-BAE4-48A5-9442-B72A90AD34A8";
name = Bold;
paths = (
{
closed = 1;
nodes = (
"471 -12 OFFCURVE",
"568 85 OFFCURVE",
"568 266 CURVE SMOOTH",
"568 448 OFFCURVE",
"470 546 OFFCURVE",
"305 546 CURVE SMOOTH",
"140 546 OFFCURVE",
"58 448 OFFCURVE",
"58 266 CURVE SMOOTH",
"58 84 OFFCURVE",
"140 -12 OFFCURVE",
"305 -12 CURVE SMOOTH"
);
},
{
closed = 1;
nodes = (
"177 36 OFFCURVE",
"120 116 OFFCURVE",
"120 266 CURVE SMOOTH",
"120 415 OFFCURVE",
"177 498 OFFCURVE",
"275 498 CURVE SMOOTH",
"371 498 OFFCURVE",
"418 416 OFFCURVE",
"418 266 CURVE SMOOTH",
"418 115 OFFCURVE",
"371 36 OFFCURVE",
"275 36 CURVE SMOOTH"
);
}
);
width = 600;
},
{
associatedMasterId = "EBFFFCD3-BAE4-48A5-9442-B72A90AD34A8";
layerId = "6DE47291-B220-461B-A9D7-AD7AFF69D5EF";
name = "Bold Sep 17 15, 15:42";
paths = (
{
closed = 1;
nodes = (
"471 -12 OFFCURVE",
"568 85 OFFCURVE",
"568 266 CURVE SMOOTH",
"568 448 OFFCURVE",
"470 546 OFFCURVE",
"305 546 CURVE SMOOTH",
"140 546 OFFCURVE",
"58 448 OFFCURVE",
"58 266 CURVE SMOOTH",
"58 84 OFFCURVE",
"140 -12 OFFCURVE",
"305 -12 CURVE SMOOTH"
);
},
{
closed = 1;
nodes = (
"177 36 OFFCURVE",
"120 116 OFFCURVE",
"120 266 CURVE SMOOTH",
"120 415 OFFCURVE",
"177 498 OFFCURVE",
"275 498 CURVE SMOOTH",
"371 498 OFFCURVE",
"418 416 OFFCURVE",
"418 266 CURVE SMOOTH",
"418 115 OFFCURVE",
"371 36 OFFCURVE",
"275 36 CURVE SMOOTH"
);
}
);
width = 600;
}
);
unicode = 0D20;
},
{
glyphname = "dda-malayalam";
lastChange = "2015-09-17 15:27:29 +0000";
layers = (
{
annotations = (
{
position = "{790, 158}";
type = Text;
}
);
layerId = "60CFBDE8-BC08-4808-BF41-F011F3E03A54";
name = Light;
paths = (
{
closed = 1;
nodes = (
"255 -16 OFFCURVE",
"263 -10 OFFCURVE",
"256 6 CURVE",
"160 13 OFFCURVE",
"78 94 OFFCURVE",
"78 286 CURVE SMOOTH",
"78 387 OFFCURVE",
"101 519 OFFCURVE",
"236 519 CURVE SMOOTH",
"365 519 OFFCURVE",
"365 398 OFFCURVE",
"364 263 CURVE SMOOTH",
"363 152 OFFCURVE",
"362 -18 OFFCURVE",
"519 -18 CURVE SMOOTH",
"659 -18 OFFCURVE",
"693 116 OFFCURVE",
"693 177 CURVE",
"679 263 LINE",
"679 116 OFFCURVE",
"637 9 OFFCURVE",
"523 9 CURVE SMOOTH",
"398 9 OFFCURVE",
"395 136 OFFCURVE",
"396 262 CURVE SMOOTH",
"397 423 OFFCURVE",
"386 546 OFFCURVE",
"240 546 CURVE SMOOTH",
"71 546 OFFCURVE",
"50 382 OFFCURVE",
"50 286 CURVE SMOOTH",
"50 87 OFFCURVE",
"140 -16 OFFCURVE",
"233 -16 CURVE SMOOTH"
);
},
{
closed = 1;
nodes = (
"970 -18 OFFCURVE",
"1040 81 OFFCURVE",
"1040 263 CURVE SMOOTH",
"1040 458 OFFCURVE",
"959 546 OFFCURVE",
"929 546 CURVE SMOOTH",
"917 546 OFFCURVE",
"912 533 OFFCURVE",
"912 523 CURVE",
"933 510 OFFCURVE",
"1012 446 OFFCURVE",
"1012 264 CURVE SMOOTH",
"1012 146 OFFCURVE",
"979 9 OFFCURVE",
"841 9 CURVE SMOOTH",
"714 9 OFFCURVE",
"708 125 OFFCURVE",
"708 262 CURVE SMOOTH",
"707 515 LINE SMOOTH",
"707 526 OFFCURVE",
"702 537 OFFCURVE",
"689 537 CURVE SMOOTH",
"681 537 OFFCURVE",
"676 533 OFFCURVE",
"672 529 CURVE",
"681 516 OFFCURVE",
"679 487 OFFCURVE",
"679 481 CURVE SMOOTH",
"679 263 LINE SMOOTH",
"679 144 OFFCURVE",
"675 -18 OFFCURVE",
"841 -18 CURVE SMOOTH"
);
}
);
width = 1090;
},
{
layerId = "EBFFFCD3-BAE4-48A5-9442-B72A90AD34A8";
name = Bold;
paths = (
{
closed = 1;
nodes = (
"288 -15 OFFCURVE",
"297 -2 OFFCURVE",
"290 18 CURVE",
"172 39 OFFCURVE",
"100 121 OFFCURVE",
"100 268 CURVE SMOOTH",
"100 399 OFFCURVE",
"167 518 OFFCURVE",
"271 518 CURVE SMOOTH",
"368 518 OFFCURVE",
"368 424 OFFCURVE",
"368 247 CURVE SMOOTH",
"368 75 OFFCURVE",
"446 -15 OFFCURVE",
"595 -15 CURVE SMOOTH",
"725 -15 OFFCURVE",
"823 53 OFFCURVE",
"823 217 CURVE",
"764 269 LINE",
"764 47 OFFCURVE",
"677 34 OFFCURVE",
"626 34 CURVE SMOOTH",
"502 34 OFFCURVE",
"518 151 OFFCURVE",
"514 278 CURVE SMOOTH",
"509 426 OFFCURVE",
"494 571 OFFCURVE",
"292 566 CURVE SMOOTH",
"125 562 OFFCURVE",
"45 431 OFFCURVE",
"45 275 CURVE SMOOTH",
"45 74 OFFCURVE",
"162 -15 OFFCURVE",
"253 -15 CURVE SMOOTH"
);
},
{
closed = 1;
nodes = (
"1220 -18 OFFCURVE",
"1246 190 OFFCURVE",
"1246 304 CURVE SMOOTH",
"1246 487 OFFCURVE",
"1179 567 OFFCURVE",
"1115 567 CURVE SMOOTH",
"1066 567 OFFCURVE",
"1049 521 OFFCURVE",
"1055 509 CURVE",
"1102 489 OFFCURVE",
"1185 445 OFFCURVE",
"1185 289 CURVE SMOOTH",
"1185 166 OFFCURVE",
"1133 49 OFFCURVE",
"1017 49 CURVE SMOOTH",
"882 49 OFFCURVE",
"910 207 OFFCURVE",
"910 297 CURVE SMOOTH",
"909 500 LINE SMOOTH",
"909 542 OFFCURVE",
"888 566 OFFCURVE",
"833 566 CURVE SMOOTH",
"813 566 OFFCURVE",
"777 563 OFFCURVE",
"756 557 CURVE",
"763 539 OFFCURVE",
"763 511 OFFCURVE",
"763 491 CURVE SMOOTH",
"763 217 LINE",
"763 111 OFFCURVE",
"790 -18 OFFCURVE",
"979 -18 CURVE SMOOTH"
);
}
);
width = 1276;
},
{
associatedMasterId = "EBFFFCD3-BAE4-48A5-9442-B72A90AD34A8";
layerId = "72878C8D-440B-4659-8737-D7579DCB10CB";
name = "Bold Sep 17 15, 15:42";
paths = (
{
closed = 1;
nodes = (
"288 -15 OFFCURVE",
"297 -2 OFFCURVE",
"290 18 CURVE",
"172 39 OFFCURVE",
"100 121 OFFCURVE",
"100 268 CURVE SMOOTH",
"100 399 OFFCURVE",
"167 518 OFFCURVE",
"271 518 CURVE SMOOTH",
"368 518 OFFCURVE",
"368 424 OFFCURVE",
"368 247 CURVE SMOOTH",
"368 -8 OFFCURVE",
"525 -15 OFFCURVE",
"588 -15 CURVE SMOOTH",
"753 -15 OFFCURVE",
"819 34 OFFCURVE",
"819 198 CURVE",
"763 269 LINE",
"763 47 OFFCURVE",
"677 34 OFFCURVE",
"633 34 CURVE SMOOTH",
"502 34 OFFCURVE",
"518 151 OFFCURVE",
"514 297 CURVE SMOOTH",
"511 403 OFFCURVE",
"501 566 OFFCURVE",
"292 566 CURVE SMOOTH",
"125 566 OFFCURVE",
"45 431 OFFCURVE",
"45 275 CURVE SMOOTH",
"45 74 OFFCURVE",
"162 -15 OFFCURVE",
"253 -15 CURVE SMOOTH"
);
},
{
closed = 1;
nodes = (
"1220 -18 OFFCURVE",
"1246 190 OFFCURVE",
"1246 304 CURVE SMOOTH",
"1246 487 OFFCURVE",
"1179 567 OFFCURVE",
"1115 567 CURVE SMOOTH",
"1066 567 OFFCURVE",
"1049 521 OFFCURVE",
"1055 509 CURVE",
"1102 489 OFFCURVE",
"1185 445 OFFCURVE",
"1185 289 CURVE SMOOTH",
"1185 166 OFFCURVE",
"1133 49 OFFCURVE",
"1017 49 CURVE SMOOTH",
"882 49 OFFCURVE",
"910 207 OFFCURVE",
"910 297 CURVE SMOOTH",
"909 500 LINE SMOOTH",
"909 542 OFFCURVE",
"888 566 OFFCURVE",
"833 566 CURVE SMOOTH",
"813 566 OFFCURVE",
"777 563 OFFCURVE",
"756 557 CURVE",
"763 539 OFFCURVE",
"763 511 OFFCURVE",
"763 491 CURVE SMOOTH",
"763 217 LINE",
"763 111 OFFCURVE",
"790 -18 OFFCURVE",
"979 -18 CURVE SMOOTH"
);
}
);
width = 1276;
},
{
annotations = (
{
position = "{790, 158}";
type = Text;
}
);
associatedMasterId = "60CFBDE8-BC08-4808-BF41-F011F3E03A54";
layerId = "7C299045-BC9F-411D-84DB-872422DAC2E8";
name = "Light Sep 17 15, 16:27";
paths = (
{
closed = 1;
nodes = (
"254 -16 OFFCURVE",
"263 -10 OFFCURVE",
"256 6 CURVE",
"160 13 OFFCURVE",
"78 94 OFFCURVE",
"78 286 CURVE SMOOTH",
"78 387 OFFCURVE",
"101 519 OFFCURVE",
"235 519 CURVE SMOOTH",
"365 519 OFFCURVE",
"366 395 OFFCURVE",
"364 263 CURVE SMOOTH",
"362 143 OFFCURVE",
"362 -18 OFFCURVE",
"532 -18 CURVE SMOOTH",
"653 -23 OFFCURVE",
"694 116 OFFCURVE",
"693 177 CURVE",
"679 263 LINE",
"679 116 OFFCURVE",
"632 9 OFFCURVE",
"532 9 CURVE SMOOTH",
"395 9 OFFCURVE",
"395 130 OFFCURVE",
"396 262 CURVE SMOOTH",
"397 423 OFFCURVE",
"389 546 OFFCURVE",
"234 546 CURVE SMOOTH",
"71 546 OFFCURVE",
"50 376 OFFCURVE",
"50 285 CURVE SMOOTH",
"50 87 OFFCURVE",
"139 -16 OFFCURVE",
"236 -16 CURVE SMOOTH"
);
},
{
closed = 1;
nodes = (
"970 -18 OFFCURVE",
"1040 84 OFFCURVE",
"1040 260 CURVE SMOOTH",
"1040 460 OFFCURVE",
"959 546 OFFCURVE",
"929 546 CURVE SMOOTH",
"917 546 OFFCURVE",
"912 533 OFFCURVE",
"912 523 CURVE",
"935 508 OFFCURVE",
"1012 446 OFFCURVE",
"1012 261 CURVE SMOOTH",
"1012 148 OFFCURVE",
"979 9 OFFCURVE",
"842 9 CURVE SMOOTH",
"710 9 OFFCURVE",
"710 130 OFFCURVE",
"711 262 CURVE SMOOTH",
"709 515 LINE SMOOTH",
"709 527 OFFCURVE",
"701 537 OFFCURVE",
"690 537 CURVE SMOOTH",
"681 537 OFFCURVE",
"676 533 OFFCURVE",
"672 529 CURVE",
"681 516 OFFCURVE",
"679 487 OFFCURVE",
"679 481 CURVE SMOOTH",
"679 263 LINE SMOOTH",
"677 143 OFFCURVE",
"677 -18 OFFCURVE",
"842 -18 CURVE SMOOTH"
);
}
);
width = 1090;
}
);
unicode = 0D21;
},
{
glyphname = "ddha-malayalam";
lastChange = "2015-09-17 15:27:51 +0000";
layers = (
{
layerId = "60CFBDE8-BC08-4808-BF41-F011F3E03A54";
name = Light;
paths = (
{
closed = 1;
nodes = (
"235 -16 OFFCURVE",
"239 -5 OFFCURVE",
"235 4 CURVE",
"150 12 OFFCURVE",
"83 69 OFFCURVE",
"83 247 CURVE SMOOTH",
"83 471 OFFCURVE",
"165 519 OFFCURVE",
"227 519 CURVE SMOOTH",
"337 519 OFFCURVE",
"338 395 OFFCURVE",
"336 263 CURVE SMOOTH",
"334 143 OFFCURVE",
"334 -18 OFFCURVE",
"479 -18 CURVE SMOOTH",
"596 -18 OFFCURVE",
"626 137 OFFCURVE",
"625 207 CURVE",
"611 293 LINE",
"611 129 OFFCURVE",
"574 9 OFFCURVE",
"473 9 CURVE SMOOTH",
"367 9 OFFCURVE",
"367 130 OFFCURVE",
"368 262 CURVE SMOOTH",
"369 423 OFFCURVE",
"362 546 OFFCURVE",
"226 546 CURVE SMOOTH",
"133 546 OFFCURVE",
"55 461 OFFCURVE",
"55 245 CURVE SMOOTH",
"55 58 OFFCURVE",
"130 -16 OFFCURVE",
"223 -16 CURVE SMOOTH"
);
},
{
closed = 1;
nodes = (
"1014 -18 OFFCURVE",
"1105 97 OFFCURVE",
"1105 296 CURVE SMOOTH",
"1105 484 OFFCURVE",
"1015 547 OFFCURVE",
"909 547 CURVE SMOOTH",
"816 547 OFFCURVE",
"750 499 OFFCURVE",
"750 386 CURVE SMOOTH",
"750 286 OFFCURVE",
"801 231 OFFCURVE",
"873 231 CURVE SMOOTH",
"950 231 OFFCURVE",
"1000 296 OFFCURVE",
"1000 383 CURVE SMOOTH",
"1000 428 OFFCURVE",
"987 491 OFFCURVE",
"934 518 CURVE",
"1008 507 OFFCURVE",
"1077 455 OFFCURVE",
"1077 298 CURVE SMOOTH",
"1077 169 OFFCURVE",
"1034 9 OFFCURVE",
"854 9 CURVE SMOOTH",
"661 9 OFFCURVE",
"641 144 OFFCURVE",
"643 292 CURVE SMOOTH",
"641 515 LINE SMOOTH",
"641 527 OFFCURVE",
"633 537 OFFCURVE",
"622 537 CURVE SMOOTH",
"613 537 OFFCURVE",
"608 533 OFFCURVE",
"604 529 CURVE",
"613 516 OFFCURVE",
"611 487 OFFCURVE",
"611 481 CURVE SMOOTH",
"611 293 LINE SMOOTH",
"611 169 OFFCURVE",
"628 -18 OFFCURVE",
"849 -18 CURVE SMOOTH"
);
},
{
closed = 1;
nodes = (
"807 260 OFFCURVE",
"780 320 OFFCURVE",
"780 385 CURVE SMOOTH",
"780 463 OFFCURVE",
"820 514 OFFCURVE",
"878 514 CURVE SMOOTH",
"934 514 OFFCURVE",
"974 468 OFFCURVE",
"974 389 CURVE SMOOTH",
"974 317 OFFCURVE",
"941 260 OFFCURVE",
"875 260 CURVE SMOOTH"
);
}
);
width = 1160;
},
{
layerId = "EBFFFCD3-BAE4-48A5-9442-B72A90AD34A8";
name = Bold;
paths = (
{
closed = 1;
nodes = (
"267 -15 OFFCURVE",
"277 -2 OFFCURVE",
"270 18 CURVE",
"170 42 OFFCURVE",
"113 97 OFFCURVE",
"113 268 CURVE SMOOTH",
"113 435 OFFCURVE",
"167 517 OFFCURVE",
"243 517 CURVE SMOOTH",
"323 517 OFFCURVE",
"323 426 OFFCURVE",
"323 247 CURVE SMOOTH",
"323 71 OFFCURVE",
"387 -15 OFFCURVE",
"520 -15 CURVE SMOOTH",
"664 -15 OFFCURVE",
"707 94 OFFCURVE",
"707 232 CURVE",
"643 269 LINE",
"643 49 OFFCURVE",
"585 34 OFFCURVE",
"552 34 CURVE SMOOTH",
"478 34 OFFCURVE",
"469 109 OFFCURVE",
"469 252 CURVE SMOOTH",
"469 423 OFFCURVE",
"456 566 OFFCURVE",
"273 566 CURVE SMOOTH",
"115 566 OFFCURVE",
"50 460 OFFCURVE",
"50 283 CURVE SMOOTH",
"50 55 OFFCURVE",
"157 -15 OFFCURVE",
"234 -15 CURVE SMOOTH"
);
},
{
closed = 1;
nodes = (
"1227 -18 OFFCURVE",
"1259 211 OFFCURVE",
"1259 324 CURVE SMOOTH",
"1259 504 OFFCURVE",
"1177 566 OFFCURVE",
"1063 566 CURVE SMOOTH",
"929 566 OFFCURVE",
"870 481 OFFCURVE",
"870 384 CURVE SMOOTH",
"870 274 OFFCURVE",
"946 204 OFFCURVE",
"1052 204 CURVE",
"1167 204 OFFCURVE",
"1213 285 OFFCURVE",
"1213 359 CURVE SMOOTH",
"1213 417 OFFCURVE",
"1212 454 OFFCURVE",
"1188 504 CURVE",
"1210 436 OFFCURVE",
"1211 375 OFFCURVE",
"1211 356 CURVE SMOOTH",
"1211 201 OFFCURVE",
"1144 49 OFFCURVE",
"971 49 CURVE SMOOTH",
"797 49 OFFCURVE",
"790 204 OFFCURVE",
"790 297 CURVE SMOOTH",
"789 500 LINE SMOOTH",
"789 542 OFFCURVE",
"768 566 OFFCURVE",
"713 566 CURVE SMOOTH",
"693 566 OFFCURVE",
"657 563 OFFCURVE",
"636 557 CURVE",
"643 539 OFFCURVE",
"643 511 OFFCURVE",
"643 491 CURVE SMOOTH",
"643 259 LINE",
"643 139 OFFCURVE",
"679 -18 OFFCURVE",
"927 -18 CURVE SMOOTH"
);
},
{
closed = 1;
nodes = (
"1034 261 OFFCURVE",
"1004 311 OFFCURVE",
"1004 392 CURVE SMOOTH",
"1004 475 OFFCURVE",
"1035 522 OFFCURVE",
"1082 522 CURVE SMOOTH",
"1129 522 OFFCURVE",
"1173 475 OFFCURVE",
"1173 387 CURVE SMOOTH",
"1173 310 OFFCURVE",
"1140 261 OFFCURVE",
"1087 261 CURVE SMOOTH"
);
}
);
width = 1309;
},
{
associatedMasterId = "EBFFFCD3-BAE4-48A5-9442-B72A90AD34A8";
layerId = "213E1892-B847-4C18-B86D-8F93ABB03E12";
name = "Bold Sep 17 15, 15:43";
paths = (
{
closed = 1;
nodes = (
"267 -15 OFFCURVE",
"277 -2 OFFCURVE",
"270 18 CURVE",
"165 43 OFFCURVE",
"113 102 OFFCURVE",
"113 271 CURVE SMOOTH",
"113 435 OFFCURVE",
"169 517 OFFCURVE",
"240 517 CURVE SMOOTH",
"323 517 OFFCURVE",
"323 432 OFFCURVE",
"323 247 CURVE SMOOTH",
"323 -13 OFFCURVE",
"458 -15 OFFCURVE",
"527 -15 CURVE SMOOTH",
"664 -15 OFFCURVE",
"699 66 OFFCURVE",
"699 198 CURVE",
"643 269 LINE",
"643 46 OFFCURVE",
"585 34 OFFCURVE",
"555 34 CURVE SMOOTH",
"459 34 OFFCURVE",
"474 158 OFFCURVE",
"469 297 CURVE SMOOTH",
"465 417 OFFCURVE",
"456 566 OFFCURVE",
"257 566 CURVE SMOOTH",
"115 566 OFFCURVE",
"50 458 OFFCURVE",
"50 277 CURVE SMOOTH",
"50 58 OFFCURVE",
"157 -15 OFFCURVE",
"235 -15 CURVE SMOOTH"
);
},
{
closed = 1;
nodes = (
"1227 -18 OFFCURVE",
"1259 213 OFFCURVE",
"1259 334 CURVE SMOOTH",
"1259 502 OFFCURVE",
"1177 566 OFFCURVE",
"1057 566 CURVE SMOOTH",
"932 566 OFFCURVE",
"870 481 OFFCURVE",
"870 383 CURVE SMOOTH",
"870 274 OFFCURVE",
"946 204 OFFCURVE",
"1052 204 CURVE",
"1167 204 OFFCURVE",
"1213 285 OFFCURVE",
"1213 359 CURVE SMOOTH",
"1213 417 OFFCURVE",
"1212 454 OFFCURVE",
"1188 504 CURVE",
"1210 436 OFFCURVE",
"1211 378 OFFCURVE",
"1211 349 CURVE SMOOTH",
"1211 202 OFFCURVE",
"1138 49 OFFCURVE",
"978 49 CURVE SMOOTH",
"793 49 OFFCURVE",
"790 204 OFFCURVE",
"790 297 CURVE SMOOTH",
"789 500 LINE",
"789 542 OFFCURVE",
"768 566 OFFCURVE",
"713 566 CURVE SMOOTH",
"693 566 OFFCURVE",
"657 563 OFFCURVE",
"636 557 CURVE",
"643 539 OFFCURVE",
"643 511 OFFCURVE",
"643 491 CURVE SMOOTH",
"643 259 LINE",
"643 135 OFFCURVE",
"679 -18 OFFCURVE",
"933 -18 CURVE SMOOTH"
);
},
{
closed = 1;
nodes = (
"1034 261 OFFCURVE",
"1004 311 OFFCURVE",
"1004 392 CURVE SMOOTH",
"1004 475 OFFCURVE",
"1035 522 OFFCURVE",
"1082 522 CURVE SMOOTH",
"1129 522 OFFCURVE",
"1173 475 OFFCURVE",
"1173 387 CURVE SMOOTH",
"1173 310 OFFCURVE",
"1140 261 OFFCURVE",
"1087 261 CURVE SMOOTH"
);
}
);
width = 1309;
},
{
associatedMasterId = "60CFBDE8-BC08-4808-BF41-F011F3E03A54";
layerId = "F2AE7C8B-B9D0-4D64-B9A5-409F2B832252";
name = "Light Sep 17 15, 16:27";
paths = (
{
closed = 1;
nodes = (
"235 -16 OFFCURVE",
"239 -5 OFFCURVE",
"235 4 CURVE",
"150 12 OFFCURVE",
"83 69 OFFCURVE",
"83 247 CURVE SMOOTH",
"83 471 OFFCURVE",
"165 519 OFFCURVE",
"227 519 CURVE SMOOTH",
"337 519 OFFCURVE",
"338 395 OFFCURVE",
"336 263 CURVE SMOOTH",
"334 143 OFFCURVE",
"334 -18 OFFCURVE",
"479 -18 CURVE SMOOTH",
"589 -24 OFFCURVE",
"626 137 OFFCURVE",
"625 207 CURVE",
"611 293 LINE",
"611 129 OFFCURVE",
"569 9 OFFCURVE",
"479 9 CURVE SMOOTH",
"367 9 OFFCURVE",
"367 130 OFFCURVE",
"368 262 CURVE SMOOTH",
"369 423 OFFCURVE",
"362 546 OFFCURVE",
"226 546 CURVE SMOOTH",
"133 546 OFFCURVE",
"55 461 OFFCURVE",
"55 245 CURVE SMOOTH",
"55 58 OFFCURVE",
"130 -16 OFFCURVE",
"223 -16 CURVE SMOOTH"
);
},
{
closed = 1;
nodes = (
"1014 -18 OFFCURVE",
"1105 97 OFFCURVE",
"1105 296 CURVE SMOOTH",
"1105 484 OFFCURVE",
"1015 547 OFFCURVE",
"909 547 CURVE SMOOTH",
"816 547 OFFCURVE",
"750 499 OFFCURVE",
"750 386 CURVE SMOOTH",
"750 286 OFFCURVE",
"801 231 OFFCURVE",
"873 231 CURVE SMOOTH",
"950 231 OFFCURVE",
"1000 296 OFFCURVE",
"1000 383 CURVE SMOOTH",
"1000 428 OFFCURVE",
"987 491 OFFCURVE",
"934 518 CURVE",
"1008 507 OFFCURVE",
"1077 455 OFFCURVE",
"1077 298 CURVE SMOOTH",
"1077 169 OFFCURVE",
"1034 9 OFFCURVE",
"854 9 CURVE SMOOTH",
"661 9 OFFCURVE",
"641 144 OFFCURVE",
"643 292 CURVE SMOOTH",
"641 515 LINE SMOOTH",
"641 527 OFFCURVE",
"633 537 OFFCURVE",
"622 537 CURVE SMOOTH",
"613 537 OFFCURVE",
"608 533 OFFCURVE",
"604 529 CURVE",
"613 516 OFFCURVE",
"611 487 OFFCURVE",
"611 481 CURVE SMOOTH",
"611 293 LINE SMOOTH",
"611 169 OFFCURVE",
"628 -18 OFFCURVE",
"849 -18 CURVE SMOOTH"
);
},
{
closed = 1;
nodes = (
"807 260 OFFCURVE",
"780 320 OFFCURVE",
"780 385 CURVE SMOOTH",
"780 463 OFFCURVE",
"820 514 OFFCURVE",
"878 514 CURVE SMOOTH",
"934 514 OFFCURVE",
"974 468 OFFCURVE",
"974 389 CURVE SMOOTH",
"974 317 OFFCURVE",
"941 260 OFFCURVE",
"875 260 CURVE SMOOTH"
);
}
);
width = 1160;
}
);
unicode = 0D22;
},
